<svg width="60" height="62" viewBox="0 0 60 62" fill="none" xmlns="http://www.w3.org/2000/svg">
<path fill-rule="evenodd" clip-rule="evenodd" d="M1.8 61C0.8 61 0 60.2 0 59.2V9.2C0 8.2 0.8 7.4 1.8 7.4H6.3V2.8C6.3 1.8 7.1 1 8.1 1H40.3C40.8 1 41.2 1.2 41.6 1.5L47.5 7.4C47.9 7.8 48 8.2 48 8.7V24.2L54.8 28.1C55 28.2 55.2 28.5 55.2 28.8V40.4L59.6 43.9C59.9 44.1 60 44.4 60 44.8C60 45.1 59.9 45.4 59.6 45.7L53.8 50.3C53.6 50.5 53.3 50.5 53.1 50.5C52.9 50.5 52.8 50.5 52.6 50.4C52.2 50.2 51.9 49.8 51.9 49.4V48H49.6L48 48.9V52.9C48 53.9 47.2 54.7 46.2 54.7H41.7V59.2C41.7 60.2 40.9 61 39.9 61H1.8ZM1.8 8.8C1.6 8.8 1.5 8.9 1.5 9.1V59.1C1.5 59.3 1.6 59.4 1.8 59.4H39.9C40.1 59.4 40.2 59.3 40.2 59.1V52.5L28 45.5H9C8.6 45.5 8.2 45.2 8.2 44.7C8.2 44.3 8.5 43.9 9 43.9H26.8V38.4H9C8.6 38.4 8.2 38.1 8.2 37.6C8.2 37.2 8.5 36.8 9 36.8H26.8V31.3H9C8.6 31.3 8.2 31 8.2 30.5C8.2 30.1 8.5 29.7 9 29.7H26.8V28.6C26.8 28.3 26.9 28.1 27.2 27.9L33.7 24.2L9 24.4C8.6 24.4 8.2 24.1 8.2 23.6C8.2 23.1 8.5 22.8 9 22.8H32.8C33.2 22.8 33.6 23.1 33.6 23.6C33.6 23.7 33.6 23.9 33.5 24L33.8 24.3L40.3 20.5V15.3H35C34.3 15.3 33.7 14.7 33.7 14V8.8H1.8ZM41.8 52.5V53.1H46.3C46.5 53.1 46.6 53 46.6 52.8V49.7L41.8 52.5ZM28.3 43.9L40.2 50.8V37L28.3 30.1V43.9ZM41.8 37V50.8L46.7 48H45.3C44.5 48 43.8 47.4 43.8 46.6V43C43.8 42.2 44.5 41.6 45.3 41.6H52V40.2C52 39.8 52.3 39.4 52.7 39.2C52.9 39.1 53 39.1 53.2 39.1C53.3 39.1 53.4 39.1 53.5 39.1L53.8 39.2V30.2L50.6 32.1V37.8C50.6 38.1 50.5 38.3 50.2 38.5L46.3 40.8C46.2 40.9 46.1 40.9 45.9 40.9C45.7 40.9 45.6 40.9 45.5 40.8C45.3 40.7 45.1 40.4 45.1 40.1V35.3L41.8 37ZM45.2 46.4H52.7C53.1 46.4 53.5 46.7 53.5 47.2V48.5L58.2 44.8L53.5 41.1V42.4C53.5 42.8 53.2 43.2 52.7 43.2H45.2V46.4ZM46.5 34.2V38.5L48.9 37.1V32.8L46.5 34.2ZM29.1 28.8L41 35.7L44.2 33.8L32.3 26.9L29.1 28.8ZM33.9 26L45.8 32.9L48.2 31.5L36.3 24.6L33.9 26ZM37.8 23.8L49.7 30.7L52.9 28.8L41 21.9L37.8 23.8ZM8.1 2.5C8 2.5 7.8 2.7 7.8 2.8V7.3H34C34.5 7.3 34.9 7.5 35.3 7.8L41.2 13.7C41.6 14.1 41.7 14.5 41.7 15V20.5L46.5 23.3V9.1H41.3C40.6 9.1 40 8.5 40 7.8V2.5H8.1ZM35.2 13.8H39.1L35.2 9.9V13.8ZM41.6 7.5H45.5L41.6 3.6V7.5ZM9 52.5C8.6 52.5 8.2 52.2 8.2 51.7C8.2 51.3 8.5 50.9 9 50.9H32.8C33.2 50.9 33.6 51.2 33.6 51.7C33.6 52.1 33.3 52.5 32.8 52.5H9ZM9 17.4C8.6 17.4 8.2 17.1 8.2 16.6C8.2 16.2 8.5 15.8 9 15.8H26.1C26.5 15.8 26.9 16.1 26.9 16.6C26.9 17 26.6 17.4 26.1 17.4H9Z" fill="#5B5C61"/>
</svg>
