<svg width="60" height="60" viewBox="0 0 60 60" fill="none" xmlns="http://www.w3.org/2000/svg">
<g clip-path="url(#clip0_959_49657)">
<path d="M15.6008 42.0001C11.9008 42.0001 9.00078 39.0001 9.00078 35.4001V30.9001L6.30078 24.1001H18.0008C20.4008 24.1001 22.3008 26.0001 22.3008 28.4001V35.4001C22.2008 39.0001 19.2008 42.0001 15.6008 42.0001ZM8.50078 25.6001L10.5008 30.6001V35.4001C10.5008 38.2001 12.8008 40.5001 15.6008 40.5001C18.4008 40.5001 20.7008 38.2001 20.7008 35.4001V28.4001C20.7008 26.9001 19.5008 25.6001 17.9008 25.6001H8.50078Z" fill="#5B5C61"/>
<path d="M21.3992 30H9.69922V31.5H21.3992V30Z" fill="#5B5C61"/>
<path d="M1.69922 60H0.199219V47.1C0.199219 44.7 1.69922 42.7001 3.89922 41.9001L11.6992 39.3L12.1992 40.7001L4.39922 43.3C2.79922 43.8 1.69922 45.3 1.69922 47V60Z" fill="#5B5C61"/>
<path d="M37.7 58.1999H27.9C25.5 58.1999 23.6 56.2999 23.6 53.8999V52.5999H25.1V53.8999C25.1 55.3999 26.3 56.6999 27.9 56.6999H37.7C39.9 56.6999 41.6 54.8999 41.6 52.7999V52.3999H29.5V47.1999C29.5 45.4999 28.4 43.9999 26.8 43.4999L19 40.7999L19.5 39.3999L27.3 41.9999C29.5 42.6999 31 44.7999 31 47.1999V50.8999H43.2V52.7999C43.2 55.6999 40.7 58.1999 37.7 58.1999Z" fill="#5B5C61"/>
<path d="M43.3984 36.3999H41.8984V38.9999H43.3984V36.3999Z" fill="#5B5C61"/>
<path d="M43.3984 46.5H41.8984V49.1H43.3984V46.5Z" fill="#5B5C61"/>
<path d="M43.7 47.2999H39.7V45.7999H43.7C44.3 45.7999 44.8 45.2999 44.8 44.6999C44.8 44.0999 44.3 43.5999 43.7 43.5999H41.6C40.2 43.5999 39 42.3999 39 40.9999C39 39.5999 40.2 38.3999 41.6 38.3999H45.6V39.8999H41.6C41 39.8999 40.5 40.3999 40.5 40.9999C40.5 41.5999 41 41.9999 41.6 41.9999H43.7C45.1 41.9999 46.3 43.1999 46.3 44.5999C46.3 45.9999 45.2 47.2999 43.7 47.2999Z" fill="#5B5C61"/>
<path d="M42.6992 52.3C37.3992 52.3 33.1992 48 33.1992 42.8C33.1992 37.6 37.4992 33.3 42.6992 33.3C47.8992 33.3 52.1992 37.6 52.1992 42.8C52.1992 48 47.8992 52.3 42.6992 52.3ZM42.6992 34.7001C38.2992 34.7001 34.6992 38.3001 34.6992 42.7001C34.6992 47.1 38.2992 50.7001 42.6992 50.7001C47.0992 50.7001 50.6992 47.1 50.6992 42.7001C50.6992 38.3001 47.0992 34.7001 42.6992 34.7001Z" fill="#5B5C61"/>
<path d="M37.3008 51.6001H35.8008V57.5001H37.3008V51.6001Z" fill="#5B5C61"/>
<path d="M7.5 48H6V60H7.5V48Z" fill="#5B5C61"/>
<path d="M25.0977 48H23.5977V60H25.0977V48Z" fill="#5B5C61"/>
<path d="M16.3008 44.5H14.8008V46.3H16.3008V44.5Z" fill="#5B5C61"/>
<path d="M16.3008 48H14.8008V58H16.3008V48Z" fill="#5B5C61"/>
<path d="M59.8 30.9999H25.5V11.8999H59.8V30.9999ZM27 29.4999H58.3V13.3999H27V29.4999Z" fill="#5B5C61"/>
<path d="M55.0977 12.7H53.5977V30.2999H55.0977V12.7Z" fill="#5B5C61"/>
<path d="M31.6992 12.7H30.1992V30.2999H31.6992V12.7Z" fill="#5B5C61"/>
<path d="M36.3984 12.7H34.8984V30.2999H36.3984V12.7Z" fill="#5B5C61"/>
<path d="M41.0977 12.7H39.5977V30.2999H41.0977V12.7Z" fill="#5B5C61"/>
<path d="M45.6992 12.7H44.1992V30.2999H45.6992V12.7Z" fill="#5B5C61"/>
<path d="M50.3984 12.7H48.8984V30.2999H50.3984V12.7Z" fill="#5B5C61"/>
<path d="M31.7 13.3999H25.5V8.3999H28.6C30.3 8.3999 31.7 9.7999 31.7 11.4999V13.3999ZM27 11.8999H30.2V11.4999C30.2 10.5999 29.5 9.8999 28.6 9.8999H27V11.8999Z" fill="#5B5C61"/>
<path d="M59.7977 13.3999H53.5977V11.4999C53.5977 9.7999 54.9977 8.3999 56.6977 8.3999H59.7977V13.3999ZM55.0977 11.8999H58.2977V9.8999H56.6977C55.7977 9.8999 55.0977 10.5999 55.0977 11.4999V11.8999Z" fill="#5B5C61"/>
<path d="M42.6992 5.4C41.2992 5.4 40.1992 4.3 40.1992 2.9V2.1H41.6992V2.9C41.6992 3.5 42.1992 3.9 42.6992 3.9C43.1992 3.9 43.6992 3.4 43.6992 2.9V0H45.1992V2.9C45.1992 4.3 43.9992 5.4 42.6992 5.4Z" fill="#5B5C61"/>
<path d="M42.395 3.96858L29.8164 9.13794L30.3866 10.5253L42.9652 5.35593L42.395 3.96858Z" fill="#5B5C61"/>
<path d="M42.9611 3.97447L42.3906 5.36182L54.9693 10.5339L55.5397 9.14655L42.9611 3.97447Z" fill="#5B5C61"/>
</g>
<defs>
<clipPath id="clip0_959_49657">
<rect width="60" height="60" fill="white"/>
</clipPath>
</defs>
</svg>
