<svg width="60" height="60" viewBox="0 0 60 60" fill="none" xmlns="http://www.w3.org/2000/svg">
<path fill-rule="evenodd" clip-rule="evenodd" d="M51.2974 57.282C47.9068 57.282 45.1484 54.5236 45.1484 51.1331C45.1484 47.7425 47.9068 44.9841 51.2974 44.9841C54.6877 44.9841 57.4461 47.7425 57.4461 51.1331C57.4461 54.5236 54.6877 57.282 51.2974 57.282ZM51.2974 46.358C48.6644 46.358 46.5223 48.5002 46.5223 51.1331C46.5223 53.7661 48.6644 55.908 51.2974 55.908C53.9302 55.908 56.0723 53.7661 56.0723 51.1331C56.0723 48.5001 53.9302 46.358 51.2974 46.358Z" fill="#5B5C61"/>
<path fill-rule="evenodd" clip-rule="evenodd" d="M51.2964 54.4409C49.4722 54.4409 47.9883 52.9568 47.9883 51.1329C47.9883 49.3087 49.4722 47.8247 51.2964 47.8247C53.1206 47.8247 54.6045 49.3087 54.6045 51.1329C54.6045 52.9568 53.1206 54.4409 51.2964 54.4409ZM51.2964 49.1989C50.23 49.1989 49.3621 50.0664 49.3621 51.133C49.3621 52.1996 50.2298 53.067 51.2964 53.067C52.3629 53.067 53.2306 52.1996 53.2306 51.133C53.2306 50.0664 52.3629 49.1989 51.2964 49.1989Z" fill="#5B5C61"/>
<path fill-rule="evenodd" clip-rule="evenodd" d="M41.6962 51.9382H30.4753C30.2904 51.9382 30.1133 51.8638 29.9839 51.7316C29.8546 51.5993 29.7842 51.4206 29.7883 51.2358C29.7892 51.2016 29.7897 51.167 29.7897 51.1328C29.7897 48.4998 27.6478 46.3578 25.0148 46.3578C22.3818 46.3578 20.2398 48.5 20.2398 51.1328C20.2398 51.1676 20.2405 51.2022 20.2412 51.2366C20.2452 51.4214 20.1746 51.5998 20.0453 51.7319C19.9162 51.8639 19.7391 51.9382 19.5544 51.9382H16.6372C16.453 51.9382 16.2767 51.8643 16.1475 51.7328C16.0182 51.6015 15.9474 51.4239 15.9504 51.2395C15.951 51.204 15.9517 51.1684 15.9517 51.1327C15.9517 48.4997 13.8098 46.3576 11.1768 46.3576C8.54377 46.3576 6.40172 48.4997 6.40172 51.1327C6.40172 51.1677 6.40241 51.2026 6.4031 51.2376C6.40684 51.422 6.33611 51.6002 6.20684 51.732C6.07756 51.8638 5.90081 51.9381 5.71631 51.9381L0.690878 51.9382C0.461807 51.9382 0.247823 51.824 0.120209 51.6337C-0.0072678 51.4436 -0.0316284 51.2022 0.0554322 50.9903L3.51737 42.562C3.62325 42.3043 3.87433 42.136 4.15281 42.136H41.696C42.0753 42.136 42.3829 42.4437 42.3829 42.8229V51.2512C42.383 51.6308 42.0755 51.9382 41.6962 51.9382ZM31.1377 50.5644H41.0093V43.51H4.6133L1.71552 50.5644H5.05386C5.34148 47.4392 7.97779 44.9838 11.1766 44.9838C14.3754 44.9838 17.0117 47.4392 17.2995 50.5644H18.8917C19.1795 47.4392 21.8157 44.9838 25.0146 44.9838C28.2134 44.9838 30.8498 47.4392 31.1377 50.5644Z" fill="#5B5C61"/>
<path fill-rule="evenodd" clip-rule="evenodd" d="M11.1764 57.282C7.78589 57.282 5.02734 54.5236 5.02734 51.1331C5.02734 47.7425 7.78587 44.9841 11.1764 44.9841C14.5668 44.9841 17.3253 47.7425 17.3253 51.1331C17.3252 54.5236 14.5669 57.282 11.1764 57.282ZM11.1764 46.358C8.54341 46.358 6.40136 48.5002 6.40136 51.1331C6.40136 53.7661 8.54327 55.908 11.1764 55.908C13.8094 55.908 15.9513 53.7661 15.9513 51.1331C15.9513 48.5001 13.8093 46.358 11.1764 46.358Z" fill="#5B5C61"/>
<path fill-rule="evenodd" clip-rule="evenodd" d="M11.1753 54.4409C9.35123 54.4409 7.86719 52.9568 7.86719 51.1329C7.86719 49.3087 9.35123 47.8247 11.1753 47.8247C12.9993 47.8247 14.4834 49.3087 14.4834 51.1329C14.4835 52.9568 12.9995 54.4409 11.1753 54.4409ZM11.1753 49.1989C10.1089 49.1989 9.24119 50.0664 9.24119 51.133C9.24119 52.1996 10.1088 53.067 11.1753 53.067C12.2418 53.067 13.1094 52.1996 13.1094 51.133C13.1094 50.0664 12.2418 49.1989 11.1753 49.1989Z" fill="#5B5C61"/>
<path fill-rule="evenodd" clip-rule="evenodd" d="M25.0163 57.282C21.6257 57.282 18.8672 54.5236 18.8672 51.1331C18.8672 47.7425 21.6257 44.9841 25.0163 44.9841C28.4066 44.9841 31.1652 47.7425 31.1652 51.1331C31.1652 54.5236 28.4068 57.282 25.0163 57.282ZM25.0163 46.358C22.3833 46.358 20.2412 48.5002 20.2412 51.1331C20.2412 53.7661 22.3831 55.908 25.0163 55.908C27.6492 55.908 29.7912 53.7661 29.7912 51.1331C29.7912 48.5001 27.6492 46.358 25.0163 46.358Z" fill="#5B5C61"/>
<path fill-rule="evenodd" clip-rule="evenodd" d="M25.0152 54.4409C23.1911 54.4409 21.707 52.9568 21.707 51.1329C21.707 49.3087 23.1911 47.8247 25.0152 47.8247C26.8392 47.8247 28.3232 49.3087 28.3232 51.1329C28.3232 52.9568 26.8392 54.4409 25.0152 54.4409ZM25.0152 49.1989C23.9487 49.1989 23.081 50.0664 23.081 51.133C23.081 52.1996 23.9486 53.067 25.0152 53.067C26.0816 53.067 26.9492 52.1996 26.9492 51.133C26.9492 50.0664 26.0816 49.1989 25.0152 49.1989Z" fill="#5B5C61"/>
<path fill-rule="evenodd" clip-rule="evenodd" d="M12.7288 43.5101H7.54254C7.16316 43.5101 6.85547 43.2025 6.85547 42.8232V39.7233C6.85547 39.3439 7.16316 39.0364 7.54254 39.0364H12.7288C13.1082 39.0364 13.4157 39.3439 13.4157 39.7233V42.8232C13.4157 43.2027 13.1081 43.5101 12.7288 43.5101ZM8.22936 42.1362H12.0417V40.4102H8.22936V42.1362Z" fill="#5B5C61"/>
<path fill-rule="evenodd" clip-rule="evenodd" d="M16.1281 40.41H4.26506C3.88581 40.41 3.57812 40.1024 3.57812 39.723V35.7291C3.57812 35.3497 3.88581 35.042 4.26506 35.042H16.1281C16.5075 35.042 16.8151 35.3497 16.8151 35.7291V39.723C16.8151 40.1024 16.5076 40.41 16.1281 40.41ZM4.95212 39.0361H15.4412V36.416H4.95212V39.0361Z" fill="#5B5C61"/>
<path fill-rule="evenodd" clip-rule="evenodd" d="M12.6121 36.4162H6.71051C6.33113 36.4162 6.02344 36.1085 6.02344 35.7293V28.0986C6.02344 27.7192 6.33113 27.4116 6.71051 27.4116H9.66129C9.94517 27.4116 10.1997 27.586 10.302 27.8508L13.2528 35.4814C13.3344 35.6927 13.3068 35.9307 13.1787 36.1177C13.0506 36.3045 12.8385 36.4162 12.6121 36.4162ZM7.39729 35.0422H11.6098L9.19027 28.7855H7.3973L7.39729 35.0422Z" fill="#5B5C61"/>
<path fill-rule="evenodd" clip-rule="evenodd" d="M11.8187 34.3688C11.7418 34.3688 11.6643 34.3559 11.5901 34.3296C11.4009 34.2629 11.2503 34.1169 11.1779 33.9296L9.01896 28.3463C8.89688 28.0304 9.02311 27.6727 9.31613 27.5036L31.0621 14.9486C31.2201 14.8577 31.4078 14.8329 31.5834 14.8801C31.7593 14.9272 31.9095 15.0423 32.0006 15.2001L34.9628 20.331C35.0539 20.4888 35.0786 20.6764 35.0314 20.8524C34.9843 21.0283 34.869 21.1785 34.7112 21.2694L12.162 34.2769C12.0564 34.3379 11.9379 34.3688 11.8187 34.3688ZM10.5126 28.3994L12.1702 32.6861L33.4291 20.4228L31.1541 16.482L10.5126 28.3994Z" fill="#5B5C61"/>
<path fill-rule="evenodd" clip-rule="evenodd" d="M33.889 20.5341C33.8293 20.5341 33.7697 20.5265 33.7111 20.5107C33.5352 20.4635 33.3852 20.3485 33.294 20.1906L31.2874 16.7147C31.0978 16.3861 31.2103 15.966 31.5389 15.7764L46.2661 7.27366C46.4858 7.14674 46.7579 7.15145 46.9733 7.28571C47.1886 7.41996 47.3124 7.66218 47.2951 7.91534C47.2869 8.03465 47.314 8.15202 47.3736 8.25527L48.6637 10.4896C48.7232 10.5926 48.8111 10.6747 48.9184 10.7272C49.1465 10.8387 49.2944 11.0668 49.3032 11.3207C49.3119 11.5745 49.1801 11.8123 48.96 11.9394L34.2327 20.4422C34.1272 20.5028 34.0086 20.5341 33.889 20.5341ZM32.8209 16.6228L34.1405 18.9088L47.4887 11.2022C47.4836 11.1936 47.4937 11.211 47.4887 11.2022L46.1833 8.94204C46.1785 8.93346 46.1882 8.95076 46.1833 8.94204L32.8209 16.6228Z" fill="#5B5C61"/>
<path fill-rule="evenodd" clip-rule="evenodd" d="M49.1924 12.164C48.4857 12.164 47.8282 11.7856 47.4765 11.1765L46.1864 8.94194C45.9231 8.48574 45.8535 7.95314 45.9904 7.44212C46.1273 6.93097 46.4539 6.50439 46.9103 6.24113L52.5555 2.98183C52.8545 2.80923 53.1951 2.71802 53.5403 2.71802C54.2472 2.71802 54.9046 3.09643 55.2562 3.70558L56.5462 5.93995C56.8096 6.39601 56.8792 6.92862 56.7423 7.43963C56.6054 7.95079 56.2788 8.37737 55.8224 8.64062L50.1772 11.8999C49.8781 12.0727 49.5375 12.164 49.1924 12.164ZM53.5403 4.0919C53.4344 4.0919 53.3342 4.11861 53.2424 4.17162L47.5971 7.43106C47.4587 7.51093 47.3593 7.64103 47.3175 7.79771C47.2755 7.95426 47.2963 8.11661 47.3763 8.25488L48.6663 10.4893C48.7734 10.6747 48.9749 10.7899 49.1924 10.7899C49.2983 10.7899 49.3986 10.7629 49.4905 10.71L55.1356 7.45058C55.2742 7.37071 55.3733 7.24061 55.4152 7.08406C55.457 6.92752 55.4363 6.76503 55.3562 6.62662L54.0663 4.39239C53.9593 4.20705 53.7577 4.0919 53.5403 4.0919Z" fill="#5B5C61"/>
<path fill-rule="evenodd" clip-rule="evenodd" d="M55.4799 16.3545C55.1005 16.3545 54.793 16.047 54.793 15.6676V8.04558C54.793 7.66633 55.1005 7.35864 55.4799 7.35864C55.8593 7.35864 56.1668 7.66633 56.1668 8.04558V15.6676C56.1668 16.047 55.8592 16.3545 55.4799 16.3545Z" fill="#5B5C61"/>
<path fill-rule="evenodd" clip-rule="evenodd" d="M57.1773 22.7332H53.7811C53.0078 22.7332 52.3789 22.1042 52.3789 21.331V16.3831C52.3789 15.6098 53.0078 14.9807 53.7811 14.9807H57.1773C57.9506 14.9807 58.5797 15.6098 58.5797 16.3831V21.331C58.5797 22.1043 57.9506 22.7332 57.1773 22.7332ZM53.7811 16.3546L53.7528 16.3831V21.331L53.7811 21.3594H57.1773L57.2059 21.331V16.3831L57.1773 16.3546H53.7811Z" fill="#5B5C61"/>
<path fill-rule="evenodd" clip-rule="evenodd" d="M54.0475 28.0503C52.8799 28.0503 51.9297 27.1002 51.9297 25.9326C51.9297 25.5534 52.2374 25.2457 52.6168 25.2457C52.996 25.2457 53.3037 25.5534 53.3037 25.9326C53.3037 26.3427 53.6373 26.6763 54.0475 26.6763C54.4576 26.6763 54.7912 26.3427 54.7912 25.9326V22.0463C54.7912 21.6669 55.0989 21.3594 55.4783 21.3594C55.8575 21.3594 56.1652 21.6669 56.1652 22.0463V25.9326C56.1652 27.1002 55.2153 28.0503 54.0475 28.0503Z" fill="#5B5C61"/>
<path fill-rule="evenodd" clip-rule="evenodd" d="M41.6977 43.5102H37.3627C36.9833 43.5102 36.6758 43.2026 36.6758 42.8232V34.5458C36.6758 34.1666 36.9833 33.8589 37.3627 33.8589H41.6977C42.0771 33.8589 42.3847 34.1666 42.3847 34.546V42.8232C42.3847 43.2027 42.077 43.5102 41.6977 43.5102ZM38.0496 42.1363H41.0107V35.2329H38.0496V42.1363Z" fill="#5B5C61"/>
<path fill-rule="evenodd" clip-rule="evenodd" d="M59.3111 51.9381H56.7566C56.5723 51.9381 56.3954 51.8639 56.2661 51.732C56.1368 51.6004 56.0662 51.4221 56.0697 51.2376C56.0704 51.2023 56.0711 51.1677 56.0711 51.1324C56.0711 48.4996 53.9292 46.3577 51.2962 46.3577C48.6632 46.3577 46.5213 48.4996 46.5213 51.1324C46.5213 51.1672 46.5218 51.2012 46.5226 51.2357C46.5269 51.4205 46.4563 51.5993 46.3271 51.7313C46.1978 51.8637 46.0208 51.9381 45.8359 51.9381H41.6947C41.3154 51.9381 41.0078 51.6306 41.0078 51.2512V29.8051C41.0078 29.4257 41.3154 29.1182 41.6947 29.1182H54.1891C54.4301 29.1182 54.6538 29.2445 54.7779 29.4512L59.9001 37.9722C59.9643 38.0792 59.9981 38.2014 59.9981 38.3261V51.2513C59.9981 51.6307 59.6905 51.9381 59.3111 51.9381ZM57.4191 50.5643H58.6242V38.5168L53.8004 30.492H42.3817V50.5644H45.1734C45.4613 47.4394 48.0975 44.9838 51.2963 44.9838C54.4952 44.9838 57.1313 47.4392 57.4191 50.5643Z" fill="#5B5C61"/>
<path fill-rule="evenodd" clip-rule="evenodd" d="M55.6999 43.1333H45.3082C44.9288 43.1333 44.6211 42.8256 44.6211 42.4462V33.4178C44.6211 33.0384 44.9288 32.7307 45.3082 32.7307H52.1469C52.3879 32.7307 52.6114 32.8572 52.7357 33.0639L56.2887 38.9746C56.353 39.0814 56.3869 39.2038 56.3869 39.3285V42.4461C56.3869 42.8257 56.0793 43.1333 55.6999 43.1333ZM45.9951 41.7593H55.013V39.5191L51.7583 34.1048H45.9951L45.9951 41.7593Z" fill="#5B5C61"/>
<path fill-rule="evenodd" clip-rule="evenodd" d="M45.9045 45.5252H44.4369C44.0576 45.5252 43.75 45.2177 43.75 44.8383C43.75 44.4589 44.0575 44.1514 44.4369 44.1514H45.9045C46.2839 44.1514 46.5914 44.4589 46.5914 44.8383C46.5914 45.2177 46.2839 45.5252 45.9045 45.5252Z" fill="#5B5C61"/>
<path fill-rule="evenodd" clip-rule="evenodd" d="M57.4807 57.282H2.52287C2.14363 57.282 1.83594 56.9743 1.83594 56.595C1.83594 56.2156 2.14363 55.908 2.52287 55.908H57.4807C57.86 55.908 58.1677 56.2156 58.1677 56.595C58.1677 56.9743 57.86 57.282 57.4807 57.282Z" fill="#5B5C61"/>
</svg>
