<svg width="60" height="60" viewBox="0 0 60 60" fill="none" xmlns="http://www.w3.org/2000/svg">
<g clip-path="url(#clip0_819_47758)">
<path d="M57.9141 0.351562H23.9766C22.8867 0.351562 22.0078 1.23047 22.0078 2.32031V28.4062C21.4453 28.125 16.3477 25.1719 15.668 24.7734C15.4688 24.6562 15.2227 24.6562 15.0352 24.7734L0.433594 33.1875C0.234375 33.3047 0.117188 33.5156 0.117188 33.7383V50.5898C0.117188 50.8125 0.234375 51.0234 0.433594 51.1406L15.0234 59.5664C15.2227 59.6836 15.4688 59.6836 15.6563 59.5664L30.2461 51.1406C30.7383 50.8945 30.5156 50.0508 30.5625 49.5H57.9023C58.9922 49.5 59.8711 48.6211 59.8711 47.543V2.32031C59.8828 1.23047 59.0039 0.351562 57.9141 0.351562ZM22.9922 30.4688L9.67969 38.1562L7.65234 36.9844L20.8359 29.2266L22.9922 30.4688ZM9.05859 39.2695V45.1406L7.03125 43.9219V38.1094L9.05859 39.2695ZM15.3398 26.0508L19.5586 28.4883L6.375 36.2461L2.02734 33.7383L15.3398 26.0508ZM14.707 57.9141L1.39453 50.2266V34.8516L5.68359 37.3242L5.76562 37.3711V44.2852C5.76562 44.5078 5.88281 44.7188 6.07031 44.8359L9.36328 46.8281C9.5625 46.9453 9.80859 46.9453 10.0078 46.8398C10.207 46.7227 10.3359 46.5117 10.3359 46.2891V40.0195L14.707 42.5391V57.9141ZM15.3398 41.4258L10.9453 38.8828L24.2578 31.1953L28.6523 33.7383L15.3398 41.4258ZM29.2969 50.2266L15.9844 57.9141V42.5391C19.0312 40.7812 26.332 36.5625 29.2969 34.8516V50.2266ZM58.6055 47.543C58.6055 47.918 58.2891 48.2344 57.9141 48.2344H30.5742V41.4609H55.5352C55.8867 41.4609 56.168 41.1797 56.168 40.8281C56.168 40.4766 55.8867 40.1953 55.5352 40.1953H30.5742V35.7422H38.2969C38.6484 35.7422 38.9297 35.4609 38.9297 35.1094C38.9297 34.7578 38.6484 34.4766 38.2969 34.4766H30.5742C30.5508 34.0898 30.7031 33.4102 30.2578 33.1992C29.168 32.5781 24.2578 29.7305 23.2852 29.1445V2.32031C23.2852 1.93359 23.6016 1.62891 23.9766 1.62891H57.9141C58.3008 1.62891 58.6055 1.94531 58.6055 2.32031V47.543ZM31.1484 6.48047C31.1484 6.12891 31.4297 5.84766 31.7813 5.84766H50.0977C50.4492 5.84766 50.7305 6.12891 50.7305 6.48047C50.7305 6.83203 50.4492 7.11328 50.0977 7.11328H31.7813C31.4297 7.11328 31.1484 6.83203 31.1484 6.48047ZM56.168 12.1992C56.168 12.5508 55.8867 12.832 55.5352 12.832H26.3555C25.5234 12.8203 25.5117 11.5664 26.3555 11.5547H55.5352C55.8867 11.5664 56.168 11.8477 56.168 12.1992ZM56.168 17.9297C56.168 18.2812 55.8867 18.5625 55.5352 18.5625H52.2891C51.9375 18.5625 51.6562 18.2812 51.6562 17.9297C51.6562 17.5781 51.9375 17.2969 52.2891 17.2969H55.5352C55.8867 17.2969 56.168 17.5781 56.168 17.9297ZM25.7109 17.9297C25.7109 17.5781 25.9922 17.2969 26.3438 17.2969H29.5898C29.9414 17.2969 30.2227 17.5781 30.2227 17.9297C30.2227 18.2812 29.9414 18.5625 29.5898 18.5625H26.3438C26.0039 18.5625 25.7109 18.2812 25.7109 17.9297ZM56.168 23.6484C56.168 24 55.8867 24.2812 55.5352 24.2812H52.0078C51.6562 24.2812 51.375 24 51.375 23.6484C51.375 23.2969 51.6562 23.0156 52.0078 23.0156H55.5352C55.8867 23.0156 56.168 23.2969 56.168 23.6484ZM25.7109 23.6484C25.7109 23.2969 25.9922 23.0156 26.3438 23.0156H29.8711C30.2227 23.0156 30.5039 23.2969 30.5039 23.6484C30.5039 24 30.2227 24.2812 29.8711 24.2812H26.3438C26.0039 24.293 25.7109 24 25.7109 23.6484ZM56.168 29.3789C56.168 29.7305 55.8867 30.0117 55.5352 30.0117H49.8047C49.4531 30.0117 49.1719 29.7305 49.1719 29.3789C49.1719 29.0273 49.4531 28.7461 49.8047 28.7461H55.5234C55.8867 28.7344 56.168 29.0273 56.168 29.3789ZM32.7188 29.3789C32.7188 29.7305 32.4375 30.0117 32.0859 30.0117H26.3555C26.0039 30.0117 25.7227 29.7305 25.7227 29.3789C25.7227 29.0273 26.0039 28.7461 26.3555 28.7461H32.0859C32.4375 28.7344 32.7188 29.0273 32.7188 29.3789ZM56.168 35.0977C56.168 35.4492 55.8867 35.7305 55.5352 35.7305H43.582C43.2305 35.7305 42.9492 35.4492 42.9492 35.0977C42.9492 34.7461 43.2305 34.4648 43.582 34.4648H55.5352C55.8867 34.4648 56.168 34.7461 56.168 35.0977ZM50.1914 20.8242V16.5234C50.1914 16.2188 49.9688 15.9492 49.6641 15.8906L41.0508 14.3203C40.9805 14.3086 40.8984 14.3086 40.8164 14.3203L32.2031 15.8906C31.8984 15.9492 31.6758 16.207 31.6758 16.5234V20.8242C31.6758 25.0898 33.5156 29.0391 36.7266 31.6523C37.9453 32.6484 39.2812 33.3984 40.7227 33.8789C40.8516 33.9258 40.9922 33.9258 41.1328 33.8789C46.6055 32.0391 50.2266 26.6367 50.1914 20.8242ZM40.9453 32.6016C36.1289 30.8789 32.9297 26.0273 32.9648 20.8359V17.0742L40.9453 15.6211L44.625 16.2891L48.9141 17.0625V20.8242C48.9492 26.0273 45.7734 30.8555 40.9453 32.6016ZM36.7031 26.2383C36.9609 26.6484 36.6328 27.2109 36.1523 27.1992C35.9297 27.1992 35.7188 27.082 35.6016 26.8828C34.5352 25.0781 33.9727 22.9922 33.9727 20.8242V18.4336C33.9727 18.1289 34.1953 17.8594 34.5 17.8008L40.8281 16.6523C40.8984 16.6406 40.9805 16.6406 41.0508 16.6523L47.3789 17.8008C47.6836 17.8594 47.9062 18.1172 47.9062 18.4219V20.8125C47.9062 21.1641 47.625 21.4453 47.2734 21.4453C46.9219 21.4453 46.6406 21.1641 46.6406 20.8125V18.9492L40.957 17.918L35.2617 18.9492C35.1445 21.4453 35.3789 24.1406 36.7031 26.2383ZM39 28.8984C39.4688 29.25 39.1758 30.0469 38.6016 30.0352C37.9336 29.918 37.5 29.2031 37.0195 28.7812C36.7852 28.5234 36.7969 28.1133 37.0547 27.8789C37.8516 27.2578 38.3789 28.5586 39 28.8984ZM44.7656 21.2227C45.0117 21.4688 45.0117 21.8789 44.7656 22.125L40.8398 26.0508C40.5938 26.2969 40.1836 26.2969 39.9375 26.0508L38.1445 24.2578C37.5586 23.6719 38.4492 22.7695 39.0469 23.3555L40.3945 24.7031L43.8633 21.2344C44.1094 20.9766 44.5195 20.9766 44.7656 21.2227Z" fill="#5B5C61"/>
</g>
<defs>
<clipPath id="clip0_819_47758">
<rect width="60" height="60" fill="white"/>
</clipPath>
</defs>
</svg>
