<svg width="60" height="60" viewBox="0 0 60 60" fill="none" xmlns="http://www.w3.org/2000/svg">
<path d="M58.9879 30.2528C58.8184 30.118 58.5951 30.0678 58.3866 30.1165C57.4196 30.3386 56.4247 30.4512 55.4291 30.4512C52.8241 30.4512 50.2714 29.6663 48.1896 28.2484V16.7187C48.1896 16.709 48.1862 16.7002 48.1862 16.6904C48.1841 16.6488 48.1797 16.6075 48.1706 16.5672C48.1667 16.5506 48.1629 16.5345 48.1583 16.5185C48.146 16.478 48.1309 16.4393 48.1116 16.4017C48.1064 16.3907 48.1025 16.3797 48.0965 16.3694C48.0706 16.3227 48.0386 16.279 48.0024 16.2393C47.994 16.2301 47.9837 16.2228 47.9748 16.2142C47.9452 16.185 47.913 16.1581 47.8775 16.134C47.8704 16.1292 47.8655 16.1227 47.8585 16.118C47.8491 16.1122 47.8386 16.1098 47.8292 16.1044C47.8141 16.096 47.8011 16.0856 47.7857 16.078L38.8168 11.791C38.8159 11.7906 38.8152 11.7897 38.8145 11.7892L36.2832 10.5798L24.781 5.08197C24.5872 4.98928 24.3627 4.98928 24.1687 5.08197L1.15004 16.0783C1.13445 16.0854 1.12191 16.0961 1.10703 16.1044C1.09742 16.1096 1.08641 16.1124 1.07727 16.1181C1.07035 16.1228 1.06496 16.1297 1.05781 16.1345C1.02277 16.1582 0.991484 16.1848 0.96125 16.2138C0.952344 16.2229 0.9425 16.2304 0.933359 16.2397C0.897383 16.279 0.865859 16.3225 0.839727 16.3688C0.833281 16.38 0.828711 16.392 0.823672 16.4035C0.805391 16.4406 0.78957 16.4781 0.777852 16.5179C0.772578 16.5345 0.768477 16.5508 0.765313 16.5678C0.756641 16.6078 0.751367 16.6484 0.749492 16.6895C0.749258 16.6995 0.746094 16.709 0.746094 16.7188V38.697C0.746094 38.9705 0.903594 39.2199 1.15004 39.3376L24.1687 50.3335C24.193 50.3453 24.2186 50.3508 24.2438 50.3595C24.2619 50.3657 24.2786 50.3733 24.2974 50.3781C24.3557 50.3935 24.4153 50.4031 24.475 50.4031H24.4755C24.5346 50.4031 24.5934 50.3935 24.6522 50.3781C24.6717 50.3733 24.6884 50.3657 24.707 50.3591C24.7321 50.3506 24.7566 50.3453 24.7807 50.3338L35.7787 45.0877C36.5311 50.1416 42.7919 54.1954 47.3599 54.9771C47.4 54.9839 47.4393 54.9873 47.4795 54.9873C47.5203 54.9873 47.5597 54.9839 47.5991 54.9771C52.4669 54.1444 59.2558 49.5967 59.2558 44.0826V30.8085C59.2556 30.5922 59.1569 30.3879 58.9879 30.2528ZM36.572 30.1166C36.3635 30.0679 36.14 30.118 35.9709 30.2529C35.8018 30.3879 35.7029 30.5923 35.7029 30.8086V43.5504L25.1848 48.5674V28.1628L46.7694 17.8454V28.2487C44.6872 29.6665 42.1345 30.4514 39.5301 30.4514C38.5339 30.4517 37.539 30.3387 36.572 30.1166ZM35.8913 11.9669L36.8611 12.4303L15.1832 22.7854C15.1773 22.7885 15.172 22.7936 15.1663 22.7966C15.1129 22.8242 15.0621 22.856 15.0164 22.8965C15.0164 22.8968 15.0157 22.8974 15.015 22.8976C14.9729 22.9358 14.9362 22.9817 14.903 23.0305C14.8939 23.0444 14.8861 23.0584 14.8779 23.0728C14.868 23.0891 14.8568 23.1031 14.8486 23.1201C14.8362 23.1469 14.8282 23.1742 14.8197 23.2015C14.8154 23.2138 14.8099 23.2253 14.8067 23.2382C14.79 23.2965 14.7822 23.3556 14.7808 23.4147C14.7808 23.4185 14.7794 23.4222 14.7794 23.426V28.4575L11.1521 26.7195V21.4552L33.4459 10.7984L35.8913 11.9669ZM38.5077 13.2172L45.8328 16.7188L24.4749 26.9281L17.1378 23.4258L38.5077 13.2172ZM24.4749 6.50978L31.8001 10.0112L10.442 20.2206L3.10426 16.7187L24.4749 6.50978ZM23.7642 48.5669L2.16641 38.2492V17.8447L9.73168 21.4555V27.1665C9.73168 27.4399 9.88848 27.6887 10.1347 27.8071L15.1829 30.2256C15.2804 30.2722 15.385 30.2953 15.4896 30.2953C15.6212 30.2953 15.7525 30.2587 15.8677 30.1861C16.0745 30.056 16.1998 29.8292 16.1998 29.5851V24.5517L23.7642 28.1629V48.5669ZM57.8355 44.0824C57.8355 48.7406 51.7463 52.771 47.4793 53.5556C43.212 52.7708 37.1233 48.7406 37.1233 44.0824V31.6728C40.722 32.2716 44.5302 31.4656 47.4793 29.4939C50.4291 31.4654 54.2377 32.2713 57.8355 31.6728V44.0824ZM54.308 34.9514C54.6138 35.1972 54.6625 35.6439 54.417 35.9496L45.7273 46.763C45.6008 46.9204 45.4133 47.0163 45.212 47.0272C45.1992 47.028 45.1865 47.0284 45.1738 47.0284C44.9858 47.0284 44.8051 46.9538 44.6714 46.8204L40.6075 42.7565C40.3302 42.4791 40.3302 42.0295 40.6075 41.7522C40.8856 41.4751 41.334 41.4751 41.6118 41.7522L45.116 45.2563L53.3097 35.0601C53.5559 34.7551 54.0021 34.7062 54.308 34.9514Z" fill="#5B5C61"/>
</svg>
