<svg width="50" height="50" viewBox="0 0 50 50" fill="none" xmlns="http://www.w3.org/2000/svg">
<path d="M34.1671 35.5303C33.7126 35.5303 33.4096 35.8333 33.4096 36.2878C33.4096 38.2575 31.8187 39.9242 29.7732 39.9242C29.3187 39.9242 29.0156 40.2272 29.0156 40.6818C29.0156 41.1363 29.3187 41.4394 29.7732 41.4394C32.5762 41.4394 34.9247 39.1666 34.9247 36.2878C34.9247 35.9091 34.6217 35.5303 34.1671 35.5303Z" fill="#5B5C61"/>
<path d="M48.4851 34.4697H46.1366V4.77271C46.1366 4.31817 45.8336 4.01514 45.379 4.01514H4.62145C4.1669 4.01514 3.86387 4.31817 3.86387 4.77271V34.4697H1.51539C1.06084 34.4697 0.757812 34.7727 0.757812 35.2273C0.757812 38.7121 3.56084 41.4394 6.96993 41.4394H17.6518L19.6214 43.9394C20.6063 45.2273 22.0457 45.9091 23.7124 45.9091H33.6366C36.2881 45.9091 38.4093 43.9394 38.7124 41.3636H43.0305C46.4396 41.3636 49.2427 38.5606 49.2427 35.1515C49.2427 34.7727 48.9396 34.4697 48.4851 34.4697ZM5.37902 5.53029H44.6214V34.4697H38.7124V28.6363C38.7124 26.4394 36.2881 24.7727 34.0911 26.0606C33.7124 23.6364 30.8336 22.9545 29.1669 24.2424C28.4093 22.9545 26.7427 22.197 25.0002 23.1818V18.0303C25.0002 16.3636 23.6366 15 21.9699 15C20.3033 15 18.9396 16.3636 18.9396 18.0303V31.8182C18.8639 31.7424 16.0608 27.4242 12.1214 30.4545C11.0608 31.2879 10.8336 32.8788 11.6669 33.9394L12.1214 34.4697H5.37902V5.53029ZM6.96993 39.9242C4.62145 39.9242 2.65175 38.1818 2.27296 35.9848H13.3336L16.4396 39.9242H6.96993ZM37.1972 40.8333C37.1972 42.803 35.6063 44.4697 33.5608 44.4697H23.7124C22.576 44.4697 21.5154 43.9394 20.8336 43.106L12.9548 32.9545C12.6518 32.5 12.7275 31.8939 13.1063 31.5909C16.2881 29.0909 18.4093 33.8636 19.1669 34.4697C19.6214 35.0757 20.5305 34.697 20.5305 34.0151V18.0303C20.5305 17.197 21.2124 16.5151 22.0457 16.5151C22.879 16.5151 23.5608 17.197 23.5608 18.0303V29.4697C23.5608 29.9242 23.8639 30.2273 24.3184 30.2273C24.773 30.2273 25.076 29.9242 25.076 29.4697V25.7576C25.076 23.7121 28.1063 23.7121 28.1063 25.7576V29.4697C28.1063 29.9242 28.4093 30.2273 28.8639 30.2273C29.3184 30.2273 29.6214 29.9242 29.6214 29.4697V26.5909C29.6214 24.5454 32.6518 24.5454 32.6518 26.5909V29.4697C32.6518 29.9242 32.9548 30.2273 33.4093 30.2273C33.8639 30.2273 34.1669 29.9242 34.1669 29.4697V28.6363C34.1669 26.5909 37.1972 26.7424 37.1972 28.6363V40.8333ZM43.0305 39.9242H38.7881V35.9848H45.4548H47.7275C47.273 38.2576 45.379 39.9242 43.0305 39.9242Z" fill="#5B5C61"/>
<path d="M21.8201 12.2728C22.2746 12.2728 22.5777 11.9697 22.5777 11.5152V9.09095C22.5777 8.6364 22.2746 8.33337 21.8201 8.33337C21.3655 8.33337 21.0625 8.6364 21.0625 9.09095V11.5152C21.0625 11.9697 21.3655 12.2728 21.8201 12.2728Z" fill="#5B5C61"/>
<path d="M18.1056 12.3485C18.3329 12.7273 18.7874 12.8788 19.1662 12.6515C19.545 12.4242 19.6965 11.9697 19.4692 11.5909L18.1814 9.39394C17.9541 9.01516 17.4995 8.86364 17.1208 9.09091C16.742 9.31819 16.5904 9.77273 16.8177 10.1515L18.1056 12.3485Z" fill="#5B5C61"/>
<path d="M24.4684 12.6515C24.8472 12.8788 25.3017 12.7273 25.529 12.3485L26.7411 10.1515C26.9684 9.77273 26.8169 9.31819 26.4381 9.09091C26.0593 8.86364 25.6048 9.01516 25.3775 9.39394L24.1654 11.5909C23.9381 11.9697 24.0896 12.4242 24.4684 12.6515Z" fill="#5B5C61"/>
<path d="M41.6656 15.6061H32.3474C31.8929 15.6061 31.5898 15.9091 31.5898 16.3637C31.5898 16.8182 31.8929 17.1212 32.3474 17.1212H41.6656C42.1201 17.1212 42.4232 16.8182 42.4232 16.3637C42.4232 15.9849 42.1201 15.6061 41.6656 15.6061Z" fill="#5B5C61"/>
<path d="M30.8318 11.8181H41.6651C42.1197 11.8181 42.4227 11.5151 42.4227 11.0606C42.4227 10.606 42.1197 10.303 41.6651 10.303H30.8318C30.3772 10.303 30.0742 10.606 30.0742 11.0606C30.0742 11.5151 30.453 11.8181 30.8318 11.8181Z" fill="#5B5C61"/>
<path d="M41.6665 20.9091H35.3787C34.9241 20.9091 34.6211 21.2121 34.6211 21.6666C34.6211 22.1212 34.9241 22.4242 35.3787 22.4242H41.6665C42.1211 22.4242 42.4241 22.1212 42.4241 21.6666C42.4241 21.2878 42.1211 20.9091 41.6665 20.9091Z" fill="#5B5C61"/>
<path d="M9.54664 17.1212H14.8497C15.3042 17.1212 15.6072 16.8182 15.6072 16.3637C15.6072 15.9091 15.3042 15.6061 14.8497 15.6061H9.54664C9.09209 15.6061 8.78906 15.9091 8.78906 16.3637C8.78906 16.8182 9.09209 17.1212 9.54664 17.1212Z" fill="#5B5C61"/>
<path d="M15.6072 21.6666C15.6072 21.2121 15.3042 20.9091 14.8497 20.9091H9.54664C9.09209 20.9091 8.78906 21.2121 8.78906 21.6666C8.78906 22.1212 9.09209 22.4242 9.54664 22.4242H14.8497C15.3042 22.4242 15.6072 22.1212 15.6072 21.6666Z" fill="#5B5C61"/>
</svg>
