<svg width="50" height="50" viewBox="0 0 50 50" fill="none" xmlns="http://www.w3.org/2000/svg">
<g clip-path="url(#clip0_619_33334)">
<path d="M45.4482 9.05145H36.0444C35.7002 9.05145 35.4219 8.77315 35.4219 8.42892C35.4219 8.0847 35.7002 7.8064 36.0444 7.8064H45.4556C45.7998 7.8064 46.0781 8.0847 46.0781 8.42892C46.0781 8.77315 45.7998 9.05145 45.4482 9.05145Z" fill="#5B5C61"/>
<path d="M45.4482 12.9243H36.0444C35.7002 12.9243 35.4219 12.6459 35.4219 12.3017C35.4219 11.9575 35.7002 11.6792 36.0444 11.6792H45.4556C45.7998 11.6792 46.0781 11.9575 46.0781 12.3017C46.0781 12.6459 45.7998 12.9243 45.4482 12.9243Z" fill="#5B5C61"/>
<path d="M16.8878 27.2873C12.4715 27.2873 8.88281 23.6986 8.88281 19.2823V15.8035C8.88281 15.4006 9.21239 15.0711 9.6152 15.0711C10.04 15.0711 10.3842 14.7268 10.3842 14.3021V12.7567C10.3842 11.541 11.3729 10.5522 12.5887 10.5522C12.9036 10.5522 13.2039 10.6182 13.4895 10.7427C15.6501 11.7094 18.1255 11.7094 20.2787 10.7427C20.5644 10.6182 20.8646 10.5522 21.1796 10.5522C22.3953 10.5522 23.3841 11.541 23.3841 12.7567V14.3021C23.3841 14.7268 23.7283 15.0711 24.1531 15.0711C24.5559 15.0711 24.8854 15.4006 24.8854 15.8035V19.2823C24.8854 23.6986 21.2968 27.2873 16.8878 27.2873ZM10.3476 16.4113V19.2823C10.3476 22.8856 13.2845 25.8225 16.8878 25.8225C20.4911 25.8225 23.428 22.8856 23.428 19.2823V16.4113C22.5565 16.1111 21.9266 15.2761 21.9266 14.3021V12.7567C21.9266 12.3466 21.597 12.017 21.1869 12.017C21.0844 12.017 20.9818 12.039 20.8866 12.0829C18.3452 13.2255 15.4377 13.2255 12.8963 12.0829C12.8011 12.039 12.6985 12.017 12.596 12.017C12.1859 12.017 11.8563 12.3466 11.8563 12.7567V14.3021C11.849 15.2761 11.2191 16.1037 10.3476 16.4113Z" fill="#5B5C61"/>
<path d="M9.6185 20.1257H8.35147C7.31881 20.1257 6.47656 19.2835 6.47656 18.2508V16.9398C6.47656 15.9072 7.31881 15.0649 8.35147 15.0649H9.61118C10.014 15.0649 10.3436 15.3945 10.3436 15.7973C10.3436 16.2001 10.014 16.5297 9.61118 16.5297H8.35147C8.12443 16.5297 7.94133 16.7128 7.94133 16.9398V18.2508C7.94133 18.4779 8.12443 18.661 8.35147 18.661H9.22301C9.33287 18.5877 9.47202 18.5511 9.61118 18.5511C10.014 18.5511 10.3436 18.8807 10.3436 19.2835C10.3436 19.2981 10.3436 19.3128 10.3436 19.3201C10.3436 19.3421 10.3436 19.364 10.3436 19.3787C10.3436 19.5764 10.2703 19.7669 10.1312 19.906C9.99934 20.0452 9.80892 20.1257 9.6185 20.1257Z" fill="#5B5C61"/>
<path d="M25.4213 20.1223H24.1543C23.9565 20.1223 23.7734 20.0417 23.6343 19.9026C23.4951 19.7634 23.4219 19.573 23.4219 19.3753C23.4219 19.3533 23.4219 19.3313 23.4219 19.3167C23.4219 19.302 23.4219 19.2947 23.4219 19.2801C23.4219 18.8773 23.7514 18.5477 24.1543 18.5477C24.3007 18.5477 24.4326 18.5916 24.5424 18.6575H25.414C25.641 18.6575 25.8241 18.4744 25.8241 18.2474V16.9364C25.8241 16.7094 25.641 16.5263 25.414 16.5263H24.1616C23.7588 16.5263 23.4292 16.1967 23.4292 15.7939C23.4292 15.3911 23.7588 15.0615 24.1616 15.0615H25.4213C26.454 15.0615 27.2962 15.9038 27.2962 16.9364V18.2474C27.2962 19.2874 26.454 20.1223 25.4213 20.1223Z" fill="#5B5C61"/>
<path d="M25.6534 16.5564C25.2506 16.5564 24.921 16.2268 24.921 15.824V11.5176C24.921 8.50017 22.4675 6.05401 19.4574 6.05401H14.3307C11.3133 6.05401 8.86712 8.5075 8.86712 11.5176V15.824C8.86712 16.2268 8.53754 16.5564 8.13473 16.5564C7.73192 16.5564 7.40234 16.2268 7.40234 15.824V11.5176C7.40234 7.69455 10.515 4.58923 14.3307 4.58923H19.4574C23.2805 4.58923 26.3858 7.70187 26.3858 11.5176V15.824C26.3858 16.2268 26.0562 16.5564 25.6534 16.5564Z" fill="#5B5C61"/>
<path d="M19.7591 34.8366C19.2318 34.8366 18.6971 34.6535 18.2724 34.2873L16.4048 32.6688C16.2363 32.5223 16.1484 32.3172 16.1484 32.0975C16.1558 31.8778 16.2583 31.6727 16.4267 31.5409L21.2458 27.7618C21.678 27.4249 22.2272 27.2857 22.7692 27.3663C23.3038 27.4542 23.7872 27.7618 24.0948 28.2159L25.2447 29.937C25.4497 30.2446 25.3985 30.6547 25.1202 30.8964L21.2532 34.28C20.8284 34.6462 20.2937 34.8366 19.7591 34.8366ZM18.038 32.1414L19.2391 33.1741C19.5394 33.4378 20.0008 33.4378 20.3011 33.1741L23.6847 30.2153L22.8864 29.0288C22.8058 28.9116 22.6886 28.8384 22.5495 28.8164C22.4103 28.7944 22.2712 28.8311 22.1613 28.9189L18.038 32.1414Z" fill="#5B5C61"/>
<path d="M14.0129 34.8367C13.4783 34.8367 12.9436 34.6536 12.5188 34.28L8.65183 30.8891C8.37353 30.6474 8.32226 30.2373 8.52733 29.9297L9.67717 28.2086C9.97745 27.7545 10.4608 27.4469 11.0028 27.359C11.5374 27.2711 12.094 27.4176 12.5262 27.7545L17.3453 31.5336C17.521 31.6654 17.6236 31.8705 17.6236 32.0902C17.6309 32.3099 17.5357 32.515 17.3672 32.6615L15.4996 34.28C15.0749 34.6536 14.5402 34.8367 14.0129 34.8367ZM10.0946 30.2153L13.4709 33.1741C13.7712 33.4378 14.2253 33.4378 14.5329 33.1741L15.734 32.1415L11.618 28.9117C11.5081 28.8238 11.369 28.7872 11.2298 28.8091C11.0907 28.8311 10.9735 28.9043 10.8929 29.0215L10.0946 30.2153Z" fill="#5B5C61"/>
<path d="M29.9985 46.2192H3.77179C1.69181 46.2192 0 44.5274 0 42.4474V41.737C0 41.3342 0.329574 41.0046 0.732386 41.0046C1.1352 41.0046 1.46477 41.3342 1.46477 41.737V42.4474C1.46477 43.7218 2.49744 44.7544 3.77179 44.7544H30.0059C31.2802 44.7544 32.3129 43.7218 32.3129 42.4474V37.5917C32.3129 34.9917 30.5625 32.6993 28.0504 32.0182L24.4544 31.0441C24.0662 30.9416 23.8318 30.5388 23.9417 30.1433C24.0442 29.7551 24.4471 29.5208 24.8425 29.6306L28.4386 30.6047C31.5805 31.4616 33.7776 34.3326 33.7776 37.5917V42.4474C33.7703 44.5347 32.0785 46.2192 29.9985 46.2192Z" fill="#5B5C61"/>
<path d="M0.732386 39.0444C0.329574 39.0444 0 38.7148 0 38.312V37.5943C0 34.3352 2.19716 31.4642 5.33909 30.6073L8.93511 29.6332C9.32328 29.5307 9.72609 29.7577 9.83595 30.1459C9.93848 30.5341 9.71144 30.9369 9.32328 31.0467L5.72726 32.0208C3.2225 32.7019 1.46477 34.9943 1.46477 37.5943V38.312C1.46477 38.7222 1.1352 39.0444 0.732386 39.0444Z" fill="#5B5C61"/>
<path d="M20.5996 29.9266C20.1968 29.9266 19.8672 29.5971 19.8672 29.1942V25.5323C19.8672 25.1295 20.1968 24.7999 20.5996 24.7999C21.0024 24.7999 21.332 25.1295 21.332 25.5323V29.1942C21.332 29.6044 21.0097 29.9266 20.5996 29.9266Z" fill="#5B5C61"/>
<path d="M13.1738 29.9292C12.771 29.9292 12.4414 29.5996 12.4414 29.1968V25.5349C12.4414 25.1321 12.771 24.8025 13.1738 24.8025C13.5766 24.8025 13.9062 25.1321 13.9062 25.5349V29.1968C13.9062 29.5996 13.5766 29.9292 13.1738 29.9292Z" fill="#5B5C61"/>
<path d="M34.7596 22.1195C34.6205 22.1195 34.474 22.0828 34.3495 22.0169C34.0126 21.8338 33.8368 21.453 33.9174 21.0795L34.7376 17.2711H34.1517C32.665 17.2711 31.4492 16.0626 31.4492 14.5686V6.4757C31.4492 4.98896 32.6577 3.77319 34.1517 3.77319H47.3054C48.7921 3.77319 50.0079 4.98163 50.0079 6.4757V6.9664C50.0079 7.31062 49.7296 7.58893 49.3854 7.58893C49.0411 7.58893 48.7628 7.31062 48.7628 6.9664V6.4757C48.7628 5.6774 48.111 5.02557 47.3127 5.02557H34.1444C33.3461 5.02557 32.6943 5.6774 32.6943 6.4757V14.5686C32.6943 15.3669 33.3461 16.0187 34.1444 16.0187H35.0452C35.3455 16.0187 35.6311 16.1505 35.8216 16.3922C36.012 16.6266 36.0852 16.9342 36.0193 17.2271L35.4114 20.0468L38.9122 16.5387C39.2491 16.2018 39.6886 16.0187 40.1646 16.0187H47.2981C48.0964 16.0187 48.7482 15.3669 48.7482 14.5686V9.88862C48.7482 9.5444 49.0265 9.26609 49.3707 9.26609C49.7149 9.26609 49.9932 9.5444 49.9932 9.88862V14.5686C49.9932 16.0553 48.7848 17.2711 47.2907 17.2711H40.1719C40.0328 17.2711 39.901 17.3297 39.8057 17.4249L35.3675 21.8705C35.199 22.0316 34.9793 22.1195 34.7596 22.1195Z" fill="#5B5C61"/>
</g>
<defs>
<clipPath id="clip0_619_33334">
<rect width="50" height="50" fill="white"/>
</clipPath>
</defs>
</svg>
