<svg width="50" height="50" viewBox="0 0 50 50" fill="none" xmlns="http://www.w3.org/2000/svg">
<path d="M10.6351 42.1831C9.86042 42.1831 9.08577 41.9719 8.38155 41.5493C7.67732 41.1268 7.11394 40.5634 6.69141 39.8592L6.62098 39.7183H3.59281C3.09986 39.7183 2.6069 39.5071 2.25479 39.1549C1.90267 38.8028 1.69141 38.3099 1.69141 37.8169V15.1409C1.69141 14.6479 1.90267 14.155 2.25479 13.8028C2.6069 13.4507 3.09986 13.2395 3.59281 13.2395H4.79V13.0986C5.70549 8.30988 9.50831 6.54932 12.4661 6.54932C15.7759 6.54932 19.6492 8.59157 20.4238 13.0986V13.2395H28.0999C28.5928 13.2395 29.0858 13.4507 29.4379 13.8028C29.79 14.155 30.0013 14.6479 30.0013 15.1409V18.3803H37.5365C38.452 18.3803 39.297 18.5916 40.0717 19.0141C40.8463 19.3662 41.5506 19.9296 42.1139 20.6338C42.6773 21.338 43.0999 22.1127 43.3111 22.9578C43.5224 23.8028 43.5928 24.7183 43.452 25.5634C43.452 25.9859 43.6632 26.3381 43.9449 26.5493C44.2266 26.831 44.5787 26.9014 44.9308 26.9014C45.6351 26.9014 46.2689 27.1831 46.7618 27.6761C47.2548 28.169 47.5365 28.8028 47.5365 29.5071V37.8169C47.5365 38.3099 47.3252 38.8028 46.9731 39.1549C46.621 39.5071 46.128 39.7183 45.6351 39.7183H41.5506V39.8592C41.128 40.5634 40.5646 41.1268 39.8604 41.5493C39.1562 41.9719 38.3815 42.1831 37.5365 42.1831C36.6914 42.1831 35.9168 41.9719 35.2125 41.5493C34.5083 41.1268 33.9449 40.5634 33.5224 39.8592L33.452 39.7183H14.7196L14.6492 39.8592C14.2266 40.5634 13.6632 41.1972 12.959 41.5493C12.2548 41.9719 11.4801 42.1831 10.7055 42.1831H10.6351ZM10.7759 34.3662C10.283 34.3662 9.79 34.4366 9.36746 34.6479C8.52239 35 7.88859 35.7042 7.6069 36.5493C7.25479 37.3944 7.25479 38.3099 7.6069 39.1549C8.02943 40 8.66324 40.5634 9.50831 40.9155C9.86042 41.0564 10.283 41.1268 10.6351 41.1268C11.128 41.1268 11.621 41.0564 12.0435 40.8451C12.8886 40.493 13.5224 39.7888 13.8041 38.9437C14.1562 38.0986 14.1562 37.1831 13.8041 36.338C13.3815 35.493 12.7477 34.9296 11.9027 34.5775C11.5506 34.4366 11.128 34.3662 10.7759 34.3662ZM37.5365 34.2958C36.9731 34.2958 36.4097 34.4366 35.9168 34.7183C35.4238 35 35.0013 35.3521 34.6492 35.8451C34.297 36.3381 34.1562 36.9014 34.0858 37.4648C34.0154 38.0282 34.1562 38.5916 34.3675 39.1549C34.6492 39.7183 35.0717 40.2817 35.6351 40.5634C36.128 40.9155 36.7618 41.0564 37.3956 41.0564H37.5365C38.0999 41.0564 38.6632 40.9155 39.1562 40.7042C39.6492 40.4226 40.0717 40.0704 40.4238 39.5775C40.7055 39.0845 40.9168 38.5916 40.9872 38.0282C41.0576 37.4648 40.9872 36.9014 40.7759 36.4085V36.338C40.5646 35.7042 40.1421 35.2113 39.5083 34.8592C38.9449 34.5071 38.3815 34.2958 37.7477 34.2958H37.5365ZM2.81817 36.9719C2.81817 37.0423 2.81817 37.1831 2.81817 37.2535C2.81817 37.6761 2.81817 38.0986 3.02943 38.3803C3.17028 38.5211 3.31112 38.5916 3.52239 38.5916H6.19845L6.12803 38.3803C6.0576 37.8873 6.0576 37.4648 6.12803 36.9719L6.19845 36.7606H2.81817V36.9719ZM42.0435 36.6902L42.1139 36.9014C42.1844 37.3944 42.1844 37.8169 42.1139 38.3099L42.0435 38.5211H45.7055C45.9168 38.5211 46.128 38.4507 46.2689 38.3099C46.5506 38.0282 46.5506 37.5352 46.4801 37.1831C46.4801 37.0423 46.4801 36.9719 46.4801 36.9014V36.6902H42.3956H42.0435ZM30.0013 38.5916H33.0999V38.3803C33.0294 37.8873 33.0294 37.4648 33.0999 36.9719L33.1703 36.7606H30.0717V38.5916H30.0013ZM15.1421 36.9719C15.2125 37.4648 15.2125 37.8873 15.1421 38.3803V38.5916H28.8745V36.6902H15.1421V36.9719ZM45.0013 33.0282C44.79 33.0282 44.6492 33.0986 44.5083 33.2395C44.3675 33.3803 44.297 33.5211 44.297 33.7324V35.6338H46.4801V33.0282H45.0013ZM37.5365 33.169C38.3815 33.169 39.1562 33.3803 39.8604 33.8028C40.5646 34.2254 41.128 34.7888 41.5506 35.493L41.621 35.5634H43.1703V33.662C43.1703 33.169 43.3815 32.7465 43.6632 32.3944C44.0154 32.0423 44.4379 31.9014 44.9308 31.9014H46.4801V29.5775C46.4801 29.155 46.3393 28.8028 46.0576 28.5211C45.7759 28.2395 45.4238 28.0986 45.0013 28.0986C44.297 28.0986 43.6632 27.8169 43.1703 27.324C42.6773 26.831 42.3956 26.1972 42.3956 25.493C42.5365 24.7888 42.5365 24.0845 42.3252 23.3803C42.1139 22.6761 41.8323 21.9719 41.3393 21.4085C40.8463 20.8451 40.283 20.3521 39.6492 20.0704C39.0154 19.7183 38.2407 19.5775 37.5365 19.5775H30.0013V35.6338H33.452L33.5224 35.5634C33.9449 34.8592 34.5083 34.2958 35.2125 33.8733C35.9168 33.3803 36.7618 33.169 37.5365 33.169ZM10.7055 33.169C11.5506 33.169 12.3252 33.3803 13.0294 33.8028C13.7337 34.2254 14.297 34.7888 14.7196 35.493L14.79 35.5634H28.8745V35.3521C28.8745 32.5352 28.8745 17.6057 28.8745 15.1409C28.8745 14.9296 28.8041 14.7183 28.6632 14.5775C28.5224 14.4366 28.3111 14.3662 28.0999 14.3662H20.4942V14.5775C20.4238 15.3521 20.283 16.1972 20.0717 16.9719L20.0013 17.1127L20.0717 17.1831C20.2125 17.3944 20.4238 17.6057 20.7055 17.8169C21.6914 18.7324 22.3252 19.4366 21.7618 20.2817L21.6914 20.4226L26.621 25.3521C27.0435 25.7747 27.2548 26.3381 27.2548 26.9014C27.2548 27.4648 27.0435 28.0282 26.621 28.4507C26.1984 28.8733 25.6351 29.0845 25.0717 29.0845C24.5083 29.0845 23.9449 28.8733 23.5224 28.4507L18.5928 23.5211L18.452 23.5916C18.2407 23.7324 18.0294 23.8028 17.8182 23.8028C17.1844 23.8028 16.5506 23.169 15.9872 22.5352C15.7759 22.324 15.5646 22.1127 15.4238 21.9719L15.283 21.831L15.1421 21.9014C14.3675 22.1831 13.5928 22.324 12.7477 22.324C10.5646 22.324 8.38155 21.4085 6.76183 19.7888C5.35338 18.3803 4.57873 16.5493 4.64915 14.6479V14.4366H4.43789H4.36746C4.29704 14.4366 3.94493 14.4366 3.8745 14.4366C3.59281 14.4366 3.2407 14.4366 3.02943 14.7183C2.88859 14.7888 2.81817 14.9296 2.81817 15.1409V35.5634H6.62098L6.69141 35.4226C7.11394 34.7183 7.67732 34.155 8.38155 33.7324C9.08577 33.3803 9.86042 33.169 10.7055 33.169ZM19.3675 22.6761L24.297 27.6057C24.5083 27.8169 24.79 27.8873 25.0717 27.8873C25.3534 27.8873 25.6351 27.7465 25.8463 27.5352C26.0576 27.324 26.1984 27.0423 26.1984 26.7606C26.1984 26.4789 26.0576 26.1972 25.9168 25.9859L20.9872 21.0564L19.3675 22.6761ZM19.4379 18.3803C18.7337 19.5775 17.8182 20.493 16.621 21.1972L16.4097 21.338L17.8182 22.7465L17.959 22.5352C18.1703 22.2535 19.1562 21.2676 19.9308 20.493C20.3534 20.0704 20.7055 19.7183 20.8463 19.5775L20.9872 19.4366L19.6492 18.169L19.4379 18.3803ZM12.3252 7.60565C8.66324 7.60565 6.26887 10.7747 5.91676 13.7324C5.56465 16.4789 6.76183 19.8592 11.2689 21.0564C11.7618 21.1268 12.2548 21.1972 12.7477 21.1972C16.4097 21.1972 18.6632 18.4507 19.2266 15.7747C19.9308 12.6057 18.452 9.71833 15.4942 8.3803C14.3675 7.81692 13.3815 7.60565 12.3252 7.60565ZM37.5365 39.7183C37.1844 39.7183 36.9731 39.6479 36.6914 39.5775C36.4097 39.4366 36.1984 39.2958 35.9872 39.0845C35.7759 38.8733 35.6351 38.662 35.5646 38.3803C35.4942 38.0986 35.4238 37.8169 35.4238 37.5352C35.4942 36.9719 35.7055 36.4789 36.128 36.1268C36.4801 35.7747 36.9731 35.6338 37.4661 35.6338H37.6069C38.1703 35.6338 38.6632 35.9155 39.0154 36.2676C39.3675 36.6902 39.5787 37.1831 39.5787 37.7465C39.5787 38.3099 39.3675 38.8028 38.9449 39.1549C38.5928 39.5071 38.0999 39.7183 37.5365 39.7183ZM37.5365 36.7606C37.4661 36.7606 37.3252 36.7606 37.2548 36.831C37.1139 36.9014 37.0435 36.9719 36.9027 37.0423C36.8323 37.1127 36.7618 37.2535 36.6914 37.324C36.621 37.4648 36.621 37.5352 36.621 37.6761C36.621 37.8169 36.621 37.8873 36.6914 38.0282C36.7618 38.169 36.8323 38.2395 36.9027 38.3099C36.9731 38.3803 37.1139 38.4507 37.2548 38.5211C37.3252 38.5916 37.4661 38.5916 37.5365 38.5916C37.7477 38.5916 37.8182 38.5916 37.959 38.5211C38.0999 38.4507 38.1703 38.3803 38.2407 38.3099C38.3111 38.2395 38.3815 38.0986 38.452 38.0282C38.5224 37.8873 38.5224 37.8169 38.5224 37.6761C38.5224 37.5352 38.5224 37.4648 38.452 37.324C38.3815 37.1831 38.3111 37.1127 38.2407 37.0423C38.1703 36.9719 38.0294 36.9014 37.959 36.831C37.8182 36.7606 37.7477 36.7606 37.6069 36.7606H37.5365ZM10.7055 39.7183C10.1421 39.7183 9.64915 39.5071 9.29704 39.0845C8.94493 38.7324 8.73366 38.169 8.73366 37.6761C8.73366 37.1127 8.94493 36.6197 9.29704 36.2676C9.64915 35.9155 10.2125 35.6338 10.7055 35.6338C11.2689 35.6338 11.7618 35.8451 12.1139 36.2676C12.4661 36.6197 12.6773 37.1831 12.6773 37.6761C12.6773 38.2395 12.4661 38.7324 12.1139 39.0845C11.7618 39.5071 11.1984 39.7183 10.7055 39.7183ZM10.6351 36.7606C10.5646 36.7606 10.4238 36.7606 10.3534 36.831C10.2125 36.9014 10.1421 36.9719 10.0013 37.0423C9.93084 37.1127 9.86042 37.2535 9.79 37.324C9.71957 37.4648 9.71957 37.5352 9.71957 37.6761C9.71957 37.8169 9.71957 37.8873 9.79 38.0282C9.86042 38.169 9.93084 38.2395 10.0013 38.3099C10.0717 38.3803 10.2125 38.4507 10.3534 38.5211C10.4238 38.5916 10.5646 38.5916 10.6351 38.5916C10.8463 38.5916 10.9168 38.5916 11.0576 38.5211C11.1984 38.4507 11.2689 38.3803 11.3393 38.3099C11.4097 38.2395 11.4801 38.0986 11.5506 38.0282C11.621 37.8873 11.621 37.8169 11.621 37.6761C11.621 37.5352 11.621 37.4648 11.5506 37.324C11.4801 37.1831 11.4097 37.1127 11.3393 37.0423C11.2689 36.9719 11.128 36.9014 11.0576 36.831C10.9168 36.7606 10.8463 36.7606 10.6351 36.7606ZM33.1703 29.8592C32.3956 29.8592 32.1844 29.6479 32.1844 29.2958C32.1844 28.9437 32.3956 28.7324 33.1703 28.7324C33.3111 28.7324 33.5224 28.7324 33.6632 28.7324C33.8041 28.7324 33.9449 28.7324 34.1562 28.7324C34.2266 28.7324 34.3675 28.7324 34.4379 28.7324C34.5787 28.7324 34.7196 28.8028 34.79 28.8733C34.8604 28.9437 34.9308 29.0845 34.9308 29.2958C34.9308 29.5071 34.8604 29.5775 34.79 29.7183C34.7196 29.7888 34.5787 29.8592 34.3675 29.8592C34.297 29.8592 34.2266 29.8592 34.0858 29.8592C33.9449 29.8592 33.8041 29.8592 33.5928 29.8592C33.5224 29.7888 33.3111 29.8592 33.1703 29.8592ZM32.7477 27.0423C32.6773 27.0423 32.6069 27.0423 32.5365 26.9719C32.4661 26.9719 32.3956 26.9014 32.3252 26.831C32.2548 26.7606 32.2548 26.6902 32.1844 26.6197C32.1844 26.5493 32.1139 26.4789 32.1139 26.4085V21.9014C32.1139 21.831 32.1139 21.7606 32.1844 21.6902C32.1844 21.6197 32.2548 21.5493 32.3252 21.4789C32.3956 21.4085 32.4661 21.4085 32.5365 21.338C32.6069 21.338 32.6773 21.2676 32.7477 21.2676H37.1844C37.8886 21.2676 38.5224 21.5493 39.0154 22.0423C39.5083 22.5352 39.79 23.169 39.79 23.8733V26.3381C39.79 26.4085 39.79 26.4789 39.7196 26.5493C39.7196 26.6197 39.6492 26.6902 39.5787 26.7606C39.5083 26.831 39.4379 26.831 39.3675 26.9014C39.297 26.9014 39.2266 26.9719 39.1562 26.9719H32.7477V27.0423ZM33.3111 25.9155H38.7337V24.0141C38.7337 23.5916 38.5928 23.2395 38.3111 22.9578C38.0294 22.6761 37.6773 22.5352 37.2548 22.5352H33.3815V25.9155H33.3111ZM12.1844 16.338C11.9731 16.338 11.0576 15.4226 10.5646 14.9296C10.2125 14.5775 9.93084 14.2958 9.71957 14.0845C9.50831 13.8733 9.57873 13.662 9.57873 13.5211C9.64915 13.3099 9.93084 13.0986 10.1421 13.0986C10.283 13.0986 10.4238 13.169 10.4942 13.2395L12.1844 14.9296L14.9308 12.1831C15.0717 12.0423 15.1421 12.0423 15.283 12.0423C15.4942 12.0423 15.7759 12.1831 15.8463 12.4648C15.9168 12.6057 15.9168 12.8169 15.7055 13.0282L12.6069 16.1972C12.5365 16.2676 12.4661 16.2676 12.3956 16.338C12.3956 16.338 12.3252 16.338 12.1844 16.338Z" fill="#5B5C61"/>
</svg>
