<svg width="50" height="50" viewBox="0 0 50 50" fill="none" xmlns="http://www.w3.org/2000/svg">
<path d="M23.3158 9.81117C22.9321 9.81117 22.621 10.1222 22.621 10.506C22.621 10.8898 22.9321 11.2008 23.3158 11.2008H26.4452C27.1171 11.2008 27.6637 10.6542 27.6637 9.98242V7.57456C27.6637 6.90269 27.1171 6.35608 26.4452 6.35608H12.074C11.4021 6.35608 10.8555 6.90269 10.8555 7.57456V9.98251C10.8555 10.6543 11.4021 11.2009 12.074 11.2009H20.0499C20.4337 11.2009 20.7448 10.8898 20.7448 10.5061C20.7448 10.1222 20.4337 9.81126 20.0499 9.81126H12.2452V7.74581H26.274V9.81108L23.3158 9.81117Z" fill="#5B5C61"/>
<path d="M7.75 14.7682C7.75 15.152 8.06107 15.463 8.44482 15.463H30.2218C30.6056 15.463 30.9166 15.1519 30.9166 14.7682C30.9166 14.3843 30.6055 14.0734 30.2218 14.0734H8.44482C8.06107 14.0733 7.75 14.3843 7.75 14.7682Z" fill="#5B5C61"/>
<path d="M8.44482 19.835H30.2218C30.6056 19.835 30.9166 19.5239 30.9166 19.1401C30.9166 18.7563 30.6055 18.4453 30.2218 18.4453H8.44482C8.06107 18.4453 7.75 18.7564 7.75 19.1401C7.75 19.524 8.06107 19.835 8.44482 19.835Z" fill="#5B5C61"/>
<path d="M25.9263 23.5121C25.9263 23.1282 25.6153 22.8173 25.2315 22.8173H8.44482C8.06107 22.8173 7.75 23.1283 7.75 23.5121C7.75 23.8958 8.06107 24.2069 8.44482 24.2069H25.2314C25.6152 24.2069 25.9263 23.8958 25.9263 23.5121Z" fill="#5B5C61"/>
<path d="M17.124 28.5789C17.5078 28.5789 17.8188 28.2678 17.8188 27.884C17.8188 27.5002 17.5078 27.1892 17.124 27.1892H8.44482C8.06107 27.1892 7.75 27.5003 7.75 27.884C7.75 28.2679 8.06107 28.5789 8.44482 28.5789H17.124Z" fill="#5B5C61"/>
<path d="M7.60625 42.09C7.97553 42.1958 8.35973 41.9812 8.46491 41.6121C8.46937 41.5967 8.92518 40.0682 10.6996 40.0682C11.5755 40.0682 11.9912 40.4123 12.5667 40.8886C13.2279 41.436 14.0508 42.117 15.6408 42.117C17.6234 42.117 18.6891 40.0209 18.7336 39.9317C18.9041 39.5891 18.7647 39.1742 18.4228 39.0025C18.0808 38.8307 17.6637 38.969 17.4905 39.3103C17.4833 39.3244 16.759 40.7273 15.6408 40.7273C14.5513 40.7273 14.0665 40.3261 13.4528 39.818C12.8074 39.2838 12.0761 38.6785 10.6996 38.6785C8.44991 38.6785 7.37982 40.3484 7.1283 41.2313C7.02321 41.6004 7.23723 41.9849 7.60625 42.09Z" fill="#5B5C61"/>
<path d="M47.1776 9.63464C47.1088 9.46312 46.9746 9.32616 46.8046 9.25375L45.1901 8.56679C45.3255 8.22446 45.1552 7.81813 44.8201 7.6733L44.4982 7.53429L45.0205 6.32464C45.6105 4.95562 44.9579 3.31455 43.5903 2.72375C42.2237 2.13339 40.5811 2.78616 39.9906 4.15232L39.4524 5.3983C38.8367 5.29098 38.2139 5.62929 37.9668 6.20161L36.5193 9.5533V5.99616C36.5193 4.0683 34.951 2.5 33.0232 2.5H5.63971C3.71248 2.5 2.14453 4.06795 2.14453 5.99518V44.7191C2.14453 46.6463 3.71248 48.2143 5.63971 48.2143H33.0242C34.9514 48.2143 36.5193 46.6463 36.5193 44.7191V34.9907C36.5193 34.6069 36.2082 34.2959 35.8244 34.2959C35.4407 34.2959 35.1296 34.607 35.1296 34.9907V44.7191C35.1296 45.8801 34.1852 46.8246 33.0243 46.8246H5.63971C4.47873 46.8246 3.53426 45.8801 3.53426 44.7191V5.99518C3.53426 4.8342 4.47882 3.88973 5.63971 3.88973H33.0232C34.1846 3.88973 35.1296 4.83464 35.1296 5.99616V12.7713L24.4791 37.4385C24.442 37.5244 24.4214 37.6207 24.4216 37.7144L24.4297 43.5676C24.4308 44.8737 26.0459 45.577 27.0019 44.6781L31.2668 40.6704C31.3258 40.6156 31.3752 40.5474 31.4111 40.4757C31.4149 40.4683 31.4186 40.461 31.4221 40.4534C31.4244 40.4487 31.4269 40.4441 31.429 40.4393L44.6401 9.84304L45.6186 10.2594L40.4504 22.2774C40.2988 22.6299 40.4617 23.0387 40.8143 23.1903C40.9037 23.2288 40.9968 23.247 41.0884 23.247C41.3577 23.247 41.6139 23.0895 41.727 22.8264L47.1708 10.1677C47.2438 9.99786 47.2462 9.80607 47.1776 9.63464ZM42.5842 3.89214C43.5058 3.93946 44.1065 4.93464 43.7444 5.77402L43.2224 6.98313L40.7438 5.91313L41.2663 4.70357C41.4901 4.18589 42.0186 3.86089 42.5842 3.89214ZM39.2331 6.77464L43.6313 8.67366L38.0429 21.6161L33.644 19.7166L39.2331 6.77464ZM30.4286 39.2506L26.0305 37.3513L33.0932 20.9926L37.4921 22.8921L30.4286 39.2506ZM26.05 43.6654C25.9644 43.7458 25.8194 43.6842 25.8194 43.5662L25.8128 38.7712L29.5439 40.3822L26.05 43.6654Z" fill="#5B5C61"/>
</svg>
