<svg width="50" height="50" viewBox="0 0 50 50" fill="none" xmlns="http://www.w3.org/2000/svg">
<g clip-path="url(#clip0_619_33401)">
<path d="M1.5625 34.0535H32.9619C33.3395 34.0535 33.6455 33.7475 33.6455 33.3699V17.6702C33.6455 17.4332 33.5228 17.2131 33.3211 17.0886L19.1543 8.33994C19.2184 8.14482 19.2541 7.93701 19.2541 7.7207C19.2541 7.34316 18.948 7.03711 18.5705 7.03711C18.2455 7.03711 17.9739 7.26416 17.9046 7.56816L17.6214 7.39326C17.4013 7.25742 17.1231 7.25742 16.9031 7.39326L16.6642 7.54082C16.7416 7.28379 16.9803 7.0959 17.2623 7.0959C17.6398 7.0959 17.9459 6.78984 17.9459 6.4123V5.35762C18.6727 5.08086 19.1912 4.37881 19.1912 3.55615C19.1912 2.7335 18.6726 2.03135 17.9459 1.75459V1.5625C17.9459 1.18496 17.6398 0.878906 17.2623 0.878906C16.8848 0.878906 16.5787 1.18496 16.5787 1.5625V1.75459C15.852 2.03135 15.3333 2.7335 15.3333 3.55615C15.3333 4.37881 15.852 5.08086 16.5787 5.35762V5.84961C15.8161 6.1291 15.2704 6.8624 15.2704 7.7207C15.2704 7.93701 15.3062 8.14482 15.3702 8.33994L1.20332 17.0886C1.00166 17.2131 0.878906 17.4332 0.878906 17.6702V33.3699C0.878906 33.7475 1.18496 34.0535 1.5625 34.0535ZM17.2622 4.11787C16.9524 4.11787 16.7004 3.86592 16.7004 3.55615C16.7004 3.24639 16.9524 2.99434 17.2622 2.99434C17.572 2.99434 17.8239 3.24639 17.8239 3.55615C17.8239 3.86592 17.572 4.11787 17.2622 4.11787ZM2.24609 32.6863V18.3538H32.2783V32.6863H2.24609ZM17.2622 9.7127C17.6422 9.7127 17.9963 9.60381 18.2987 9.41846L30.5539 16.9866H3.97041L16.2256 9.41846C16.5281 9.60381 16.8823 9.7127 17.2622 9.7127ZM17.9457 21.251V29.922C17.9457 30.2995 17.6396 30.6056 17.2621 30.6056C16.8846 30.6056 16.5785 30.2995 16.5785 29.922V21.251C16.5785 20.8734 16.8846 20.5674 17.2621 20.5674C17.6396 20.5674 17.9457 20.8734 17.9457 21.251ZM21.9841 21.251V29.922C21.9841 30.2995 21.678 30.6056 21.3005 30.6056C20.9229 30.6056 20.6169 30.2995 20.6169 29.922V21.251C20.6169 20.8734 20.9229 20.5674 21.3005 20.5674C21.678 20.5674 21.9841 20.8734 21.9841 21.251ZM5.83066 21.1182V29.7892C5.83066 30.1667 5.52461 30.4728 5.14707 30.4728C4.76953 30.4728 4.46348 30.1667 4.46348 29.7892V21.1182C4.46348 20.7406 4.76953 20.4346 5.14707 20.4346C5.52461 20.4346 5.83066 20.7405 5.83066 21.1182ZM26.0225 21.251V29.922C26.0225 30.2995 25.7164 30.6056 25.3389 30.6056C24.9613 30.6056 24.6553 30.2995 24.6553 29.922V21.251C24.6553 20.8734 24.9613 20.5674 25.3389 20.5674C25.7164 20.5674 26.0225 20.8734 26.0225 21.251ZM9.86904 21.1182V29.7892C9.86904 30.1667 9.56299 30.4728 9.18545 30.4728C8.80791 30.4728 8.50186 30.1667 8.50186 29.7892V21.1182C8.50186 20.7406 8.80791 20.4346 9.18545 20.4346C9.56299 20.4346 9.86904 20.7405 9.86904 21.1182ZM13.9074 21.251V29.922C13.9074 30.2995 13.6014 30.6056 13.2238 30.6056C12.8463 30.6056 12.5402 30.2995 12.5402 29.922V21.251C12.5402 20.8734 12.8463 20.5674 13.2238 20.5674C13.6014 20.5674 13.9074 20.8734 13.9074 21.251ZM30.0608 21.251V29.922C30.0608 30.2995 29.7548 30.6056 29.3772 30.6056C28.9997 30.6056 28.6937 30.2995 28.6937 29.922V21.251C28.6937 20.8734 28.9997 20.5674 29.3772 20.5674C29.7548 20.5674 30.0608 20.8734 30.0608 21.251ZM48.8053 37.3064L46.1316 33.1774C45.7622 32.6071 45.1607 32.2801 44.4813 32.2801H37.8109C37.4334 32.2801 37.1273 32.5861 37.1273 32.9637V41.9802H33.6455V40.1355C33.6455 39.758 33.3395 39.452 32.9619 39.452H1.5625C1.18496 39.452 0.878906 39.758 0.878906 40.1355V42.6638C0.878906 43.0413 1.18496 43.3474 1.5625 43.3474H3.52236C3.04453 43.9547 2.7584 44.7196 2.7584 45.5507C2.7584 47.5194 4.36016 49.1212 6.32891 49.1212C8.29766 49.1212 9.89932 47.5195 9.89932 45.5507C9.89932 44.7197 9.61318 43.9548 9.13535 43.3474H10.9734C10.4956 43.9547 10.2095 44.7196 10.2095 45.5507C10.2095 47.5194 11.8111 49.1212 13.78 49.1212C15.7488 49.1212 17.3505 47.5195 17.3505 45.5507C17.3505 44.7197 17.0644 43.9548 16.5865 43.3474H28.1092C27.6313 43.9547 27.3452 44.7196 27.3452 45.5507C27.3452 47.5194 28.9469 49.1212 30.9157 49.1212C32.2049 49.1212 33.3364 48.4344 33.9642 47.4075H39.2192C39.8468 48.4342 40.9784 49.1211 42.2675 49.1211C43.5565 49.1211 44.6882 48.4343 45.3159 47.4074H47.4422C48.3679 47.4074 49.121 46.6543 49.121 45.7287V38.3753C49.1211 37.9842 49.0177 37.6344 48.8053 37.3064ZM2.24609 40.8191H32.2783V41.9802H2.24609V40.8191ZM8.53213 45.5506C8.53213 46.7654 7.54375 47.7539 6.32891 47.7539C5.11396 47.7539 4.12559 46.7655 4.12559 45.5506C4.12559 44.3356 5.11396 43.3473 6.32891 43.3473C7.54375 43.3473 8.53213 44.3357 8.53213 45.5506ZM15.9831 45.5506C15.9831 46.7654 14.9947 47.7539 13.7798 47.7539C12.5648 47.7539 11.5765 46.7655 11.5765 45.5506C11.5765 44.3356 12.5648 43.3473 13.7798 43.3473C14.9947 43.3473 15.9831 44.3357 15.9831 45.5506ZM30.9154 47.7539C29.7006 47.7539 28.7121 46.7655 28.7121 45.5506C28.7121 44.3356 29.7005 43.3473 30.9154 43.3473C32.1304 43.3473 33.1187 44.3356 33.1187 45.5506C33.1187 46.7655 32.1304 47.7539 30.9154 47.7539ZM33.7219 43.3473H37.1272V46.0401H34.4515C34.4735 45.88 34.4858 45.7167 34.4858 45.5505C34.4859 44.7196 34.1998 43.9547 33.7219 43.3473ZM38.6971 45.5506C38.6971 45.7167 38.7094 45.88 38.7314 46.0402H38.4944V33.6472H44.4812C44.6974 33.6472 44.8665 33.7392 44.984 33.9206L47.6576 38.0497C47.7269 38.1565 47.7538 38.2478 47.7538 38.3752V41.1429H47.3715C46.9939 41.1429 46.6879 41.4489 46.6879 41.8265C46.6879 42.204 46.9939 42.5101 47.3715 42.5101H47.7539V43.6938H45.316C44.6883 42.667 43.5566 41.9801 42.2675 41.9801C40.2987 41.9801 38.6971 43.5818 38.6971 45.5506ZM42.2675 47.7539C41.0526 47.7539 40.0642 46.7655 40.0642 45.5506C40.0642 44.3356 41.0525 43.3473 42.2675 43.3473C43.4824 43.3473 44.4708 44.3356 44.4708 45.5506C44.4708 46.7655 43.4824 47.7539 42.2675 47.7539ZM47.4423 46.0402H45.8036C45.8257 45.8801 45.838 45.7168 45.838 45.5506C45.838 45.3845 45.8257 45.2212 45.8036 45.061H47.7539V45.7286C47.7539 45.9005 47.6141 46.0402 47.4423 46.0402ZM46.2768 37.9979C46.3965 37.7779 46.3861 37.5102 46.2501 37.2999L44.5239 34.6342C44.3979 34.4396 44.1819 34.3222 43.9501 34.3222H40.5891C40.2115 34.3222 39.9055 34.6282 39.9055 35.0058V37.6715C39.9055 38.049 40.2115 38.3551 40.5891 38.3551H45.6763C45.9267 38.355 46.157 38.2181 46.2768 37.9979ZM41.2727 36.9878V35.6893H43.5783L44.4191 36.9878H41.2727ZM13.0251 45.5506C13.0251 45.1337 13.363 44.7958 13.7799 44.7958C14.1968 44.7958 14.5347 45.1337 14.5347 45.5506C14.5347 45.9674 14.1968 46.3054 13.7799 46.3054C13.363 46.3054 13.0251 45.9675 13.0251 45.5506ZM5.57402 45.5506C5.57402 45.1337 5.91201 44.7958 6.32881 44.7958C6.7457 44.7958 7.08359 45.1337 7.08359 45.5506C7.08359 45.9674 6.7457 46.3054 6.32881 46.3054C5.91201 46.3054 5.57402 45.9675 5.57402 45.5506ZM31.6702 45.5506C31.6702 45.9674 31.3322 46.3054 30.9154 46.3054C30.4985 46.3054 30.1606 45.9675 30.1606 45.5506C30.1606 45.1337 30.4985 44.7958 30.9154 44.7958C31.3323 44.7958 31.6702 45.1337 31.6702 45.5506ZM43.0223 45.5506C43.0223 45.9674 42.6843 46.3054 42.2675 46.3054C41.8506 46.3054 41.5127 45.9675 41.5127 45.5506C41.5127 45.1337 41.8506 44.7958 42.2675 44.7958C42.6844 44.7958 43.0223 45.1337 43.0223 45.5506Z" fill="#5B5C61"/>
</g>
<defs>
<clipPath id="clip0_619_33401">
<rect width="50" height="50" fill="white"/>
</clipPath>
</defs>
</svg>
