<svg width="50" height="50" viewBox="0 0 50 50" fill="none" xmlns="http://www.w3.org/2000/svg">
<g clip-path="url(#clip0_619_33408)">
<path d="M29.856 46.7858C28.5703 46.7858 27.5703 45.7144 27.5703 44.5001C27.5703 43.2144 28.6417 42.2144 29.856 42.2144C31.1417 42.2144 32.1417 43.2858 32.1417 44.5001C32.1417 45.7144 31.1417 46.7858 29.856 46.7858ZM29.856 43.5001C29.356 43.5001 28.9275 43.9286 28.9275 44.4286C28.9275 44.9286 29.356 45.3572 29.856 45.3572C30.356 45.3572 30.7846 44.9286 30.7846 44.4286C30.7846 43.9286 30.356 43.5001 29.856 43.5001Z" fill="#5B5C61"/>
<path d="M10.4302 46.7858C9.14453 46.7858 8.14453 45.7144 8.14453 44.5001C8.14453 43.2144 9.21596 42.2144 10.4302 42.2144C11.6445 42.2144 12.716 43.2858 12.716 44.5001C12.716 45.7144 11.716 46.7858 10.4302 46.7858ZM10.4302 43.5001C9.93025 43.5001 9.50167 43.9286 9.50167 44.4286C9.50167 44.9286 9.93025 45.3572 10.4302 45.3572C10.9302 45.3572 11.3588 44.9286 11.3588 44.4286C11.3588 43.9286 10.9302 43.5001 10.4302 43.5001Z" fill="#5B5C61"/>
<path d="M12.0006 12.7143C10.7148 12.7143 9.71484 11.6428 9.71484 10.4285C9.71484 9.21425 10.7863 8.14282 12.0006 8.14282C13.2863 8.14282 14.2863 9.21425 14.2863 10.4285C14.2863 11.6428 13.2863 12.7143 12.0006 12.7143ZM12.0006 9.49997C11.5006 9.49997 11.072 9.92854 11.072 10.4285C11.072 10.9285 11.5006 11.3571 12.0006 11.3571C12.5006 11.3571 12.9291 10.9285 12.9291 10.4285C13.0006 9.92854 12.572 9.49997 12.0006 9.49997Z" fill="#5B5C61"/>
<path d="M44.4302 33.7858C43.1445 33.7858 42.1445 32.7144 42.1445 31.5001C42.1445 30.2144 43.216 29.2144 44.4302 29.2144C45.716 29.2144 46.716 30.2858 46.716 31.5001C46.7874 32.7858 45.716 33.7858 44.4302 33.7858ZM44.4302 30.5715C43.9302 30.5715 43.5017 31.0001 43.5017 31.5001C43.5017 32.0001 43.9302 32.4286 44.4302 32.4286C44.9302 32.4286 45.3588 32.0001 45.3588 31.5001C45.3588 31.0001 44.9302 30.5715 44.4302 30.5715Z" fill="#5B5C61"/>
<path d="M29.8571 50C27.7143 50 25.7857 48.7857 24.8571 46.8571V46.7857H24.7857H15.5V46.8571C14.5714 48.7857 12.5714 50.0714 10.5 50.0714C8.42857 50.0714 6.42857 48.8571 5.5 46.9286V46.8571H5.42857H1.5C0.642857 46.8571 0 46.2143 0 45.3571V43.7143C0 42.7857 0.642857 42.1429 1.5 42.1429H1.57143L1.64286 42.0714V25.7857C1.64286 25 2.28571 24.2857 3.14286 24.2857H4.92857V24.2143C5.07143 20.6429 6.14286 17.2857 8 14.2857V14.2143V14.1429L7.64286 13.6429C6.92857 12.7143 6.5 11.5 6.5 10.2857C6.5 7.21428 9 4.71429 12.0714 4.71429C13.6429 4.71429 15.2143 5.42857 16.2857 6.64286V6.71428H16.3571C19.0714 5.42857 22.0714 4.78571 25.0714 4.78571C25.2143 4.78571 25.5714 4.78571 25.5714 4.78571L25.6429 4.71429C27.2857 1.85714 30.5 0 33.9286 0C39.2143 0 43.5 4.28571 43.5 9.57143V9.71429C43.5 11.3571 43.0714 13 42.2143 14.4286V14.5V14.5714C44.1429 17.7143 45.1429 21.2857 45.1429 24.9286C45.1429 25.1429 45.1429 25.2857 45.1429 25.5V25.8571L45.2143 25.9286C48 26.2857 50.0714 28.6429 50.0714 31.4286C50.0714 32.6429 49.6429 33.7857 48.9286 34.7857L44.4286 40.7143L41.4286 36.6429L41.3571 36.7143C40.4286 38.0714 39.2857 39.2143 38.1429 40.2143V40.2857L38.6429 42.3571C38.7143 42.5714 38.7143 42.7143 38.7143 42.9286V45.1429C38.7143 46 38.0714 46.6429 37.2143 46.6429H34.9286V46.7143C33.9286 48.7857 32 50 29.8571 50ZM29.8571 40.2857C27.5714 40.2857 25.7143 42.1429 25.7143 44.4286C25.7143 46.7143 27.5714 48.5714 29.8571 48.5714C32.1429 48.5714 34 46.7143 34 44.4286C34 42.1429 32.1429 40.2857 29.8571 40.2857ZM10.4286 40.2857C8.14286 40.2857 6.28571 42.1429 6.28571 44.4286C6.28571 46.7143 8.14286 48.5714 10.4286 48.5714C12.7143 48.5714 14.5714 46.7143 14.5714 44.4286C14.5714 42.1429 12.7143 40.2857 10.4286 40.2857ZM35.3571 43.6429C35.4286 43.9286 35.4286 44.2143 35.4286 44.4286C35.4286 44.6429 35.4286 44.9286 35.3571 45.2143V45.2857L35.4286 45.3571H37.2857V43.5H35.3571V43.6429ZM15.9286 43.6429C16 43.9286 16 44.2143 16 44.4286C16 44.6429 16 44.9286 15.9286 45.2143V45.2857L16 45.3571H24.4286V45.2857C24.3571 44.9286 24.3571 44.6429 24.3571 44.4286C24.3571 44.2143 24.3571 43.9286 24.4286 43.6429V43.5714L24.2857 43.5H15.8571L15.9286 43.6429ZM1.35714 45.3571H4.92857V45.2857C4.85714 44.9286 4.85714 44.6429 4.85714 44.4286C4.85714 44.2143 4.85714 43.9286 4.92857 43.6429V43.5714L4.85714 43.5H1.35714V45.3571ZM29.8571 38.9286C32 38.9286 33.9286 40.1429 34.8571 42.0714V42.1429H34.9286H37.0714L35.7857 37.0714H30.6429C29.7857 37.0714 29.1429 36.4286 29.1429 35.5714V33.9286C29.1429 33.0714 29.7857 32.4286 30.6429 32.4286H34.6429L34.3571 31.2857C34.2857 30.8571 33.8571 30.5714 33.4286 30.5714H25.7143V40.7857L25.9286 40.5714C26.9286 39.5 28.3571 38.9286 29.8571 38.9286ZM10.4286 38.9286C12.5714 38.9286 14.5 40.1429 15.4286 42.0714V42.1429H15.5H24.2857V25.7143H17.5714V31.7857L13.6429 29.8571L9.71429 31.7857V25.7143H3V42.1429H5.35714V42.0714C6.35714 40.1429 8.28571 38.9286 10.4286 38.9286ZM8.78571 15.5714C7.28571 18.1429 6.42857 21.1429 6.28571 24.1429V24.2143L6.35714 24.2857H24.2143C25 24.2857 25.7143 25 25.7143 25.7857V29.1429H33.5C34.5714 29.1429 35.5 29.8571 35.7143 30.9286L37.7143 38.8571L37.8571 38.7143C38.8571 37.7857 39.7143 36.7857 40.5 35.6429V35.5714V35.5L40 34.7857C39.2857 33.8571 38.8571 32.6429 38.8571 31.4286C38.8571 28.7143 40.8571 26.3571 43.5714 25.9286H43.6429L43.7143 25.8571V25.5714C43.7143 25.3571 43.7143 25.1429 43.7143 24.9286C43.7143 21.7857 42.9286 18.6429 41.4286 15.9286L41.3571 15.7857L33.9286 25.2857L26.3571 15.7143C25 14 24.2857 11.9286 24.2857 9.78571V9.64286C24.2857 8.57143 24.5 7.5 24.8571 6.42857V6.35714L24.7857 6.28571C22.0714 6.28571 19.5 6.92857 17.1429 8H17.0714V8.07143C17.4286 8.85714 17.5714 9.64286 17.5714 10.4286C17.5714 11.6429 17.1429 12.7857 16.4286 13.7857L12 19.7143L8.85714 15.5L8.78571 15.5714ZM44.4286 27.2857C42.1429 27.2857 40.2857 29.1429 40.2857 31.4286C40.2857 32.3571 40.5714 33.2143 41.1429 33.9286L44.5 38.3571L47.8571 33.9286C48.4286 33.2143 48.7143 32.3571 48.7143 31.4286C48.6429 29.2143 46.7143 27.2857 44.4286 27.2857ZM30.5714 35.6429H35.5L35 33.7857H30.5714V35.6429ZM16.2143 29.5714V25.7143H11.1429V29.5714L13.7143 28.2857L16.2143 29.5714ZM33.9286 1.35714C29.3571 1.35714 25.7143 5.07143 25.7143 9.57143V9.71429C25.7143 11.5714 26.3571 13.3571 27.5 14.7857L34 23L40.5 14.7857C41.6429 13.3571 42.2857 11.5714 42.2857 9.71429V9.57143C42.1429 5.07143 38.4286 1.35714 33.9286 1.35714ZM12 6.21429C9.71428 6.21429 7.85714 8.07143 7.85714 10.3571C7.85714 11.2857 8.14286 12.1429 8.71428 12.8571L12.0714 17.2857L15.4286 12.8571C16 12.1429 16.2857 11.2857 16.2857 10.3571C16.2143 8.14286 14.3571 6.21429 12 6.21429Z" fill="#5B5C61"/>
<path d="M33.9275 16.0001C30.4275 16.0001 27.5703 13.1429 27.5703 9.64291C27.5703 6.14291 30.4275 3.28577 33.9275 3.28577C37.4275 3.28577 40.2846 6.14291 40.2846 9.64291C40.2846 13.1429 37.4275 16.0001 33.9275 16.0001ZM33.9275 4.64291C31.2132 4.64291 28.9275 6.85719 28.9275 9.64291C28.9275 12.4286 31.1417 14.6429 33.9275 14.6429C36.6417 14.6429 38.9275 12.4286 38.9275 9.64291C38.9275 6.85719 36.6417 4.64291 33.9275 4.64291Z" fill="#5B5C61"/>
<path d="M20.9297 21H19.4297V22.5H20.9297V21Z" fill="#5B5C61"/>
<path d="M20.7868 21.0715H19.4297V22.4287H20.7868V21.0715Z" fill="#5B5C61"/>
<path d="M24.1445 21H22.6445V22.5H24.1445V21Z" fill="#5B5C61"/>
<path d="M24.072 21.0715H22.7148V22.4287H24.072V21.0715Z" fill="#5B5C61"/>
<path d="M27.3555 21H25.8555V22.5H27.3555V21Z" fill="#5B5C61"/>
<path d="M27.2868 21.0715H25.9297V22.4287H27.2868V21.0715Z" fill="#5B5C61"/>
</g>
<defs>
<clipPath id="clip0_619_33408">
<rect width="50" height="50" fill="white"/>
</clipPath>
</defs>
</svg>
