<svg width="50" height="50" viewBox="0 0 50 50" fill="none" xmlns="http://www.w3.org/2000/svg">
<g clip-path="url(#clip0_619_33479)">
<path d="M39.375 43.0635H45.5889C46.4121 43.0625 47.0791 43.7305 47.0791 44.5527C47.0791 44.9648 46.9121 45.3369 46.6426 45.6064C46.373 45.876 46 46.043 45.5889 46.043L16.5312 46.0459" stroke="#5B5C61" stroke-width="1.5" stroke-miterlimit="10" stroke-linecap="round" stroke-linejoin="round"/>
<path d="M35.96 43.0645L16.4805 43.0654" stroke="#5B5C61" stroke-width="1.5" stroke-miterlimit="10" stroke-linecap="round" stroke-linejoin="round"/>
<path d="M44.9079 42.7923V24.3943H22.9297" stroke="#5B5C61" stroke-width="1.5" stroke-miterlimit="10" stroke-linecap="round" stroke-linejoin="round"/>
<path d="M36.4752 24.7948V31.448L33.802 30.3123L31.1289 31.448V24.698" stroke="#5B5C61" stroke-width="1.5" stroke-miterlimit="10" stroke-linecap="round" stroke-linejoin="round"/>
<path d="M41.4273 39.9906H36.0493C35.8236 39.9906 35.6406 39.8076 35.6406 39.5819V37.1624C35.6406 36.9367 35.8236 36.7537 36.0493 36.7537H41.4273C41.653 36.7537 41.836 36.9367 41.836 37.1624V39.5819C41.836 39.8076 41.6531 39.9906 41.4273 39.9906Z" stroke="#5B5C61" stroke-width="1.5" stroke-miterlimit="10" stroke-linecap="round" stroke-linejoin="round"/>
<path d="M26.1172 24.1816V6.5166C26.1172 6.19141 26.3809 5.92773 26.7061 5.92773H44.3193C44.6445 5.92773 44.9082 6.19141 44.9082 6.5166V11.9902" stroke="#5B5C61" stroke-width="1.5" stroke-miterlimit="10" stroke-linecap="round" stroke-linejoin="round"/>
<path d="M44.9062 24.3945V15.4082" stroke="#5B5C61" stroke-width="1.5" stroke-miterlimit="10" stroke-linecap="round" stroke-linejoin="round"/>
<path d="M38.207 6.18457V12.954L35.5117 11.8228L32.8164 12.954V6.28135" stroke="#5B5C61" stroke-width="1.5" stroke-miterlimit="10" stroke-linecap="round" stroke-linejoin="round"/>
<path d="M41.2044 21.1604H35.845C35.5854 21.1604 35.375 20.95 35.375 20.6904V18.3392C35.375 18.0796 35.5854 17.8691 35.845 17.8691H41.2044C41.464 17.8691 41.6744 18.0796 41.6744 18.3392V20.6904C41.6744 20.95 41.464 21.1604 41.2044 21.1604Z" stroke="#5B5C61" stroke-width="1.5" stroke-miterlimit="10" stroke-linecap="round" stroke-linejoin="round"/>
<path d="M10.543 39.9905V36.6107C10.543 32.7415 13.6907 29.5938 17.56 29.5938H18.913" stroke="#5B5C61" stroke-width="1.5" stroke-miterlimit="10" stroke-linecap="round" stroke-linejoin="round"/>
<path d="M19.0386 32.5774H17.5607C15.3367 32.5774 13.5273 34.3868 13.5273 36.6108V39.9906" stroke="#5B5C61" stroke-width="1.5" stroke-miterlimit="10" stroke-linecap="round" stroke-linejoin="round"/>
<path d="M11.9268 49.2676C14.5377 49.2676 16.6543 47.1575 16.6543 44.5547C16.6543 41.9518 14.5377 39.8418 11.9268 39.8418C9.31581 39.8418 7.19922 41.9518 7.19922 44.5547C7.19922 47.1575 9.31581 49.2676 11.9268 49.2676Z" stroke="#5B5C61" stroke-width="1.5" stroke-miterlimit="10" stroke-linecap="round" stroke-linejoin="round"/>
<path d="M11.9252 46.4815C10.8595 46.4816 9.99229 45.6174 9.99219 44.5549C9.99209 43.4924 10.859 42.628 11.9248 42.6279C12.9905 42.6278 13.8577 43.4921 13.8578 44.5546C13.8578 45.617 12.9909 46.4814 11.9252 46.4815Z" stroke="#5B5C61" stroke-width="1.5" stroke-miterlimit="10" stroke-linecap="round" stroke-linejoin="round"/>
<path d="M12.5234 4.77734H13.916C14.3818 4.77734 14.8193 4.95801 15.1484 5.28711L18.7002 8.83887C19.0293 9.16797 19.21 9.60547 19.21 10.0713V35.0449" stroke="#5B5C61" stroke-width="1.5" stroke-miterlimit="10" stroke-linecap="round" stroke-linejoin="round"/>
<path d="M19.2109 42.9424V38.4629" stroke="#5B5C61" stroke-width="1.5" stroke-miterlimit="10" stroke-linecap="round" stroke-linejoin="round"/>
<path d="M22.6953 42.9424V15.6289" stroke="#5B5C61" stroke-width="1.5" stroke-miterlimit="10" stroke-linecap="round" stroke-linejoin="round"/>
<path d="M12.5234 1.29199H13.916C15.3125 1.29199 16.626 1.83594 17.6133 2.82324L21.1641 6.37402C22.1514 7.3623 22.6953 8.6748 22.6953 10.0713V12.2109" stroke="#5B5C61" stroke-width="1.5" stroke-miterlimit="10" stroke-linecap="round" stroke-linejoin="round"/>
<path d="M12.3886 1.18691V4.88203C12.3886 5.13301 12.1851 5.33652 11.9341 5.33652H5.22002C3.94863 5.33652 2.91797 4.30586 2.91797 3.03447C2.91807 1.76309 3.94863 0.732422 5.22002 0.732422H11.9341C12.1851 0.732422 12.3886 0.935938 12.3886 1.18691Z" stroke="#5B5C61" stroke-width="1.5" stroke-miterlimit="10" stroke-linecap="round" stroke-linejoin="round"/>
</g>
<defs>
<clipPath id="clip0_619_33479">
<rect width="50" height="50" fill="white"/>
</clipPath>
</defs>
</svg>
