<svg width="50" height="50" viewBox="0 0 50 50" fill="none" xmlns="http://www.w3.org/2000/svg">
<g clip-path="url(#clip0_619_33507)">
<path d="M42.8555 12.2143V4.64289H40.3555V3.35718H43.4983C43.8555 3.35718 44.1412 3.64289 44.1412 4.00003V12.2143H42.8555Z" fill="#5B5C61"/>
<path d="M6.49833 46.6429C6.14118 46.6429 5.85547 46.3572 5.85547 46.0001V25.2144H7.14118V45.3572H39.4983V40.2858H40.7126V45.9286C40.7126 46.2858 40.4269 46.5715 40.0698 46.5715H6.49833V46.6429Z" fill="#5B5C61"/>
<path d="M39.4983 13V8.78572H32.5698C32.2126 8.78572 31.9269 8.5 31.9269 8.14286V1.28571H7.14118V2.14286H5.85547V0.642857C5.85547 0.285714 6.14118 0 6.49833 0H32.5698C32.6412 0 32.7126 0 32.784 0.0714286C32.9269 0.142857 32.9983 0.142857 32.9983 0.214286L40.5698 7.78571C40.6412 7.85714 40.6412 7.92857 40.7126 8C40.784 8.14286 40.784 8.14286 40.784 8.21429V8.28572V13.0714H39.4983V13ZM33.2126 7.57143H38.6412L33.2126 2.14286V7.57143Z" fill="#5B5C61"/>
<path d="M19.928 42.4285C19.5709 42.4285 19.2852 42.1428 19.2852 41.7856V35.0713C19.2852 34.7142 19.5709 34.4285 19.928 34.4285H24.7852V35.7142H20.5709V41.2142H30.6423V42.4285H19.928Z" fill="#5B5C61"/>
<path d="M27.3577 37.8572H22.7148V39.0715H27.3577V37.8572Z" fill="#5B5C61"/>
<path d="M10.0703 49.9999V48.7856H42.856V34.9285L35.4989 42.2856C35.356 42.4285 35.2132 42.4999 35.0703 42.4999C34.9275 42.4999 34.7132 42.4285 34.6417 42.2856L22.856 30.4999C22.6417 30.2856 22.6417 29.857 22.856 29.6428L30.4275 22.0713C30.5703 21.9285 30.7132 21.857 30.856 21.857C30.9989 21.857 31.2132 21.9285 31.2846 22.0713L34.1417 24.9285L38.6417 20.2142V20.0713C38.6417 16.9285 41.2132 14.4285 44.2846 14.4285C47.4275 14.4285 49.9275 16.9999 49.9275 20.0713C49.9275 23.1428 47.356 25.7142 44.2846 25.7142H44.1417L39.356 30.2142L42.856 33.5713V29.4285H44.0703V49.357C44.0703 49.7142 43.7846 49.9999 43.4275 49.9999H10.0703ZM24.2132 30.0713L35.0703 40.9285L36.7132 39.2856L25.856 28.4285L24.2132 30.0713ZM26.7132 27.4999L37.5703 38.357L41.7132 34.2142L38.4275 30.9285L36.2846 32.9999C36.1417 33.1428 35.9989 33.1428 35.856 33.1428C35.7132 33.1428 35.4989 33.0713 35.4275 32.9285L31.2132 28.7142C30.9989 28.4999 30.9989 28.0713 31.2132 27.857L33.2846 25.7142L30.856 23.2856L26.7132 27.4999ZM44.356 15.5713C41.9275 15.5713 39.9275 17.5713 39.9275 19.9999V20.4285C39.9275 20.5713 39.856 20.7142 39.7846 20.857L32.6417 28.4285L35.9989 31.7856L43.5703 24.6428C43.7132 24.4999 43.856 24.4999 43.9989 24.4999H44.4275C46.856 24.4999 48.856 22.4999 48.856 20.0713C48.856 17.6428 46.7846 15.5713 44.356 15.5713Z" fill="#5B5C61"/>
<path d="M24 24.3572H16V25.5715H24V24.3572Z" fill="#5B5C61"/>
<path d="M20.5725 27.7144H10.9297V28.9286H20.5725V27.7144Z" fill="#5B5C61"/>
<path d="M28.1429 21H18.5V22.2143H28.1429V21Z" fill="#5B5C61"/>
<path d="M15.5725 31.0715H10.9297V32.2858H15.5725V31.0715Z" fill="#5B5C61"/>
<path d="M17.2154 34.5H10.9297V35.7143H17.2154V34.5Z" fill="#5B5C61"/>
<path d="M17.2154 37.8572H10.9297V39.0715H17.2154V37.8572Z" fill="#5B5C61"/>
<path d="M17.2154 41.2144H10.9297V42.4286H17.2154V41.2144Z" fill="#5B5C61"/>
<path d="M13.8583 24.3572H10.9297V25.5715H13.8583V24.3572Z" fill="#5B5C61"/>
<path d="M20.5692 31.0715H17.6406V32.2858H20.5692V31.0715Z" fill="#5B5C61"/>
<path d="M29 16.7856H21V17.9999H29V16.7856Z" fill="#5B5C61"/>
<path d="M9.8567 23.1428C4.99956 23.1428 0.928126 19.6427 0.142412 14.857C-0.643302 10.0713 2.07098 5.42847 6.71384 3.92847C7.71384 3.57132 8.78527 3.42847 9.92813 3.42847C13.571 3.42847 16.9281 5.42847 18.6424 8.64275L18.7853 8.92847L18.9996 8.64275C19.071 8.4999 19.2138 8.42847 19.2853 8.35704L19.3567 8.28561V8.14275C19.2853 7.49989 19.4996 6.92847 19.9281 6.4999C20.2853 6.14275 20.8567 5.92847 21.3567 5.92847C21.4281 5.92847 21.4996 5.92847 21.571 5.92847H21.7138L21.7853 5.85704C22.2138 5.35704 22.7853 5.14275 23.3567 5.14275C23.9281 5.14275 24.571 5.42847 24.9281 5.85704H24.9996H25.1424C25.2138 5.85704 25.2853 5.85704 25.3567 5.85704C25.9281 5.85704 26.4281 6.07132 26.7853 6.42847C27.2138 6.85704 27.4281 7.42847 27.3567 8.07132V8.21418L27.4281 8.28561C27.9281 8.71418 28.1424 9.28561 28.1424 9.85704C28.1424 10.4999 27.8567 11.0713 27.4281 11.4285L27.3567 11.4999V11.6428C27.4281 12.2856 27.2138 12.857 26.7853 13.2856C26.4281 13.6428 25.8567 13.857 25.3567 13.857C25.2853 13.857 25.2138 13.857 25.1424 13.857H24.9996L24.9281 13.9285C24.4996 14.4285 23.9281 14.6428 23.3567 14.6428C22.7853 14.6428 22.1424 14.357 21.7853 13.9285L21.7138 13.857H21.571C21.4996 13.857 21.4281 13.857 21.3567 13.857C20.8567 13.857 20.4281 13.7142 20.071 13.357L19.7138 13.0713V13.4999C19.4996 18.9285 15.2138 23.0713 9.8567 23.1428ZM9.8567 4.64275C5.14241 4.64275 1.21384 8.4999 1.21384 13.2856C1.21384 18.0713 5.07098 21.9285 9.8567 21.9285C14.6424 21.9285 18.4996 18.0713 18.4996 13.2856C18.4996 8.4999 14.6424 4.64275 9.8567 4.64275ZM21.9996 12.4999C22.071 12.4999 22.1424 12.4999 22.2138 12.5713C22.3567 12.6428 22.4996 12.7856 22.571 12.9285C22.7138 13.2142 22.9996 13.4999 23.3567 13.4999C23.7138 13.4999 23.9996 13.2856 24.1424 12.9285C24.2138 12.7856 24.3567 12.6428 24.4996 12.5713C24.571 12.5713 24.6424 12.4999 24.7138 12.4999C24.7853 12.4999 24.9281 12.4999 24.9996 12.5713C25.071 12.6428 25.2138 12.6428 25.3567 12.6428C25.571 12.6428 25.7853 12.5713 25.9281 12.4285C26.1424 12.2142 26.2138 11.7856 26.071 11.4999C25.9996 11.357 25.9996 11.1428 26.071 10.9999C26.1424 10.857 26.2853 10.7142 26.4281 10.6428C26.7138 10.4999 26.9996 10.2142 26.9996 9.85704C26.9996 9.4999 26.7853 9.21418 26.4281 9.07132C26.2853 8.99989 26.1424 8.85704 26.071 8.71418C25.9996 8.57132 25.9996 8.35704 26.071 8.21418C26.2138 7.92847 26.1424 7.57132 25.9281 7.28561C25.7138 7.21418 25.4996 7.14275 25.2853 7.14275C25.1424 7.14275 25.071 7.14275 24.9281 7.21418C24.8567 7.28561 24.7853 7.28561 24.6424 7.28561C24.571 7.28561 24.4996 7.28561 24.4281 7.21418C24.2853 7.14275 24.1424 6.9999 24.071 6.85704C23.9281 6.57132 23.6424 6.28561 23.2853 6.28561C22.9281 6.28561 22.6424 6.4999 22.4996 6.85704C22.4281 6.9999 22.2853 7.14275 22.1424 7.21418C22.071 7.21418 21.9996 7.28561 21.9281 7.28561C21.8567 7.28561 21.7138 7.28561 21.6424 7.21418C21.571 7.14275 21.4996 7.14275 21.3567 7.14275C21.1424 7.14275 20.9281 7.21418 20.7853 7.35704C20.571 7.57132 20.4996 7.9999 20.6424 8.28561C20.7138 8.42847 20.7138 8.64275 20.6424 8.78561C20.571 8.92847 20.4281 9.07132 20.2853 9.14275H20.2138C19.9281 9.28561 19.7853 9.57132 19.7853 9.85704C19.7853 10.2142 19.9996 10.4999 20.3567 10.6428C20.4996 10.7142 20.6424 10.857 20.7138 10.9999C20.7853 11.1428 20.7853 11.357 20.7138 11.4999C20.571 11.7856 20.6424 12.1428 20.8567 12.4285C20.9996 12.5713 21.2138 12.6428 21.4281 12.6428C21.571 12.6428 21.6424 12.6428 21.7853 12.5713C21.7853 12.4999 21.8567 12.4999 21.9996 12.4999Z" fill="#5B5C61"/>
<path d="M6.50056 18.0715C6.3577 18.0715 6.14342 18.0001 6.07199 17.8572L3.71484 15.5001L4.57199 14.6429L6.50056 16.5715L14.2863 8.71436L15.1434 9.5715L6.92913 17.8572C6.8577 18.0001 6.64342 18.0715 6.50056 18.0715Z" fill="#5B5C61"/>
</g>
<defs>
<clipPath id="clip0_619_33507">
<rect width="50" height="50" fill="white"/>
</clipPath>
</defs>
</svg>
