<svg width="36" height="36" viewBox="0 0 36 36" fill="none" xmlns="http://www.w3.org/2000/svg">
<circle cx="18" cy="18" r="17.5" stroke="white"/>
<path d="M25.5 12.3789V14.5618C25.5 14.7279 25.434 14.8872 25.3166 15.0046C25.1991 15.1221 25.0398 15.1881 24.8737 15.1881C24.7076 15.1881 24.5483 15.1221 24.4308 15.0046C24.3134 14.8872 24.2474 14.7279 24.2474 14.5618V12.6382L21.5901 15.2957C21.5321 15.3546 21.4631 15.4014 21.3869 15.4335C21.3107 15.4655 21.229 15.4822 21.1463 15.4825C21.0637 15.4828 20.9818 15.4668 20.9054 15.4353C20.8289 15.4038 20.7595 15.3575 20.7011 15.2991C20.6426 15.2407 20.5963 15.1712 20.5649 15.0948C20.5334 15.0184 20.5173 14.9365 20.5177 14.8539C20.518 14.7712 20.5346 14.6895 20.5667 14.6133C20.5988 14.5371 20.6456 14.4681 20.7045 14.4101L23.3617 11.7526H21.4381C21.272 11.7526 21.1127 11.6866 20.9953 11.5692C20.8778 11.4517 20.8118 11.2924 20.8118 11.1263C20.8118 10.9602 20.8778 10.8009 20.9953 10.6834C21.1127 10.566 21.272 10.5 21.4381 10.5H23.6211C24.1192 10.5006 24.5967 10.6988 24.949 11.051C25.3012 11.4032 25.4994 11.8807 25.5 12.3789ZM14.4099 20.7043L11.7526 23.3612V21.4382C11.7526 21.2721 11.6866 21.1128 11.5692 20.9954C11.4517 20.8779 11.2924 20.8119 11.1263 20.8119C10.9602 20.8119 10.8009 20.8779 10.6834 20.9954C10.566 21.1128 10.5 21.2721 10.5 21.4382V23.6211C10.5006 24.1193 10.6988 24.5968 11.051 24.949C11.4033 25.3012 11.8808 25.4994 12.3789 25.5H14.5619C14.728 25.5 14.8873 25.434 15.0047 25.3166C15.1222 25.1991 15.1882 25.0398 15.1882 24.8737C15.1882 24.7076 15.1222 24.5483 15.0047 24.4308C14.8873 24.3134 14.728 24.2474 14.5619 24.2474H12.6375L15.2953 21.5899C15.3542 21.5319 15.401 21.4629 15.4331 21.3867C15.4652 21.3105 15.4818 21.2288 15.4822 21.1461C15.4825 21.0635 15.4664 20.9816 15.4349 20.9052C15.4035 20.8288 15.3572 20.7593 15.2987 20.7009C15.2403 20.6425 15.1709 20.5962 15.0945 20.5647C15.018 20.5332 14.9361 20.5172 14.8535 20.5175C14.7709 20.5178 14.6891 20.5345 14.6129 20.5665C14.5367 20.5986 14.4679 20.6454 14.4099 20.7043ZM24.8737 20.8119C24.7914 20.8119 24.71 20.8281 24.634 20.8596C24.558 20.891 24.4889 20.9372 24.4308 20.9953C24.3726 21.0535 24.3265 21.1225 24.295 21.1985C24.2635 21.2745 24.2474 21.356 24.2474 21.4382V23.3612L21.5901 20.7043C21.5321 20.6454 21.4631 20.5986 21.3869 20.5665C21.3107 20.5345 21.229 20.5178 21.1463 20.5175C21.0637 20.5172 20.9818 20.5332 20.9054 20.5647C20.8289 20.5962 20.7595 20.6425 20.7011 20.7009C20.6426 20.7593 20.5963 20.8288 20.5649 20.9052C20.5334 20.9816 20.5173 21.0635 20.5177 21.1461C20.518 21.2288 20.5346 21.3105 20.5667 21.3867C20.5988 21.4629 20.6456 21.5319 20.7045 21.5899L23.3625 24.2474H21.4381C21.272 24.2474 21.1127 24.3134 20.9953 24.4308C20.8778 24.5483 20.8118 24.7076 20.8118 24.8737C20.8118 25.0398 20.8778 25.1991 20.9953 25.3166C21.1127 25.434 21.272 25.5 21.4381 25.5H23.6211C24.1192 25.4994 24.5967 25.3012 24.949 24.949C25.3012 24.5968 25.4994 24.1193 25.5 23.6211V21.4382C25.5 21.356 25.4838 21.2745 25.4524 21.1985C25.4209 21.1225 25.3748 21.0535 25.3166 20.9953C25.2584 20.9372 25.1894 20.891 25.1134 20.8596C25.0374 20.8281 24.9559 20.8119 24.8737 20.8119ZM12.6382 11.7526H14.5619C14.728 11.7526 14.8873 11.6866 15.0047 11.5692C15.1222 11.4517 15.1882 11.2924 15.1882 11.1263C15.1882 10.9602 15.1222 10.8009 15.0047 10.6834C14.8873 10.566 14.728 10.5 14.5619 10.5H12.3789C11.8808 10.5006 11.4033 10.6988 11.051 11.051C10.6988 11.4032 10.5006 11.8807 10.5 12.3789V14.5618C10.5 14.7279 10.566 14.8872 10.6834 15.0046C10.8009 15.1221 10.9602 15.1881 11.1263 15.1881C11.2924 15.1881 11.4517 15.1221 11.5692 15.0046C11.6866 14.8872 11.7526 14.7279 11.7526 14.5618V12.6382L14.4099 15.2957C14.4679 15.3546 14.5369 15.4014 14.6131 15.4335C14.6893 15.4655 14.771 15.4822 14.8537 15.4825C14.9363 15.4828 15.0182 15.4668 15.0946 15.4353C15.1711 15.4038 15.2405 15.3575 15.2989 15.2991C15.3574 15.2407 15.4037 15.1712 15.4351 15.0948C15.4666 15.0184 15.4827 14.9365 15.4823 14.8539C15.482 14.7712 15.4654 14.6895 15.4333 14.6133C15.4012 14.5371 15.3544 14.4681 15.2955 14.4101L12.6382 11.7526ZM18.8838 18L19.6919 17.1919C19.8057 17.074 19.8687 16.9161 19.8673 16.7522C19.8659 16.5884 19.8001 16.4316 19.6843 16.3157C19.5684 16.1999 19.4116 16.1341 19.2478 16.1327C19.0839 16.1313 18.926 16.1943 18.8081 16.3081L18 17.1162L17.1919 16.3081C17.074 16.1943 16.9161 16.1313 16.7522 16.1327C16.5884 16.1341 16.4316 16.1999 16.3157 16.3157C16.1999 16.4316 16.1341 16.5884 16.1327 16.7522C16.1313 16.9161 16.1943 17.074 16.3081 17.1919L17.1162 18L16.3081 18.8081C16.2484 18.8658 16.2008 18.9347 16.1681 19.011C16.1353 19.0872 16.1181 19.1693 16.1173 19.2522C16.1166 19.3352 16.1324 19.4175 16.1639 19.4943C16.1953 19.5712 16.2417 19.6409 16.3004 19.6996C16.3591 19.7583 16.4288 19.8047 16.5057 19.8361C16.5825 19.8676 16.6648 19.8834 16.7478 19.8827C16.8307 19.8819 16.9128 19.8647 16.989 19.8319C17.0653 19.7992 17.1342 19.7516 17.1919 19.6919L18 18.8838L18.8081 19.6919C18.926 19.8057 19.0839 19.8687 19.2478 19.8673C19.4116 19.8659 19.5684 19.8001 19.6843 19.6843C19.8001 19.5684 19.8659 19.4116 19.8673 19.2478C19.8687 19.0839 19.8057 18.926 19.6919 18.8081L18.8838 18Z" fill="white"/>
</svg>
