<svg width="36" height="36" viewBox="0 0 36 36" fill="none" xmlns="http://www.w3.org/2000/svg">
<circle cx="18" cy="18" r="17.5" stroke="white"/>
<g clip-path="url(#clip0_619_34205)">
<path d="M11.7494 10.4999C11.6427 10.4999 11.536 10.459 11.4544 10.3782L10.0827 9.00571L8.71104 10.3782C8.54854 10.5407 8.28437 10.5407 8.12187 10.3782C7.95938 10.2157 7.95938 9.95155 8.12187 9.78905L9.78854 8.12238C9.95104 7.95988 10.2152 7.95988 10.3777 8.12238L12.0444 9.78905C12.2069 9.95155 12.2069 10.2157 12.0444 10.3782C11.9627 10.459 11.856 10.4999 11.7494 10.4999Z" fill="white"/>
<path d="M25.9169 28C25.8102 28 25.7035 27.9592 25.6219 27.8783C25.4594 27.7158 25.4594 27.4517 25.6219 27.2892L26.9935 25.9175L25.6219 24.5458C25.4594 24.3833 25.4594 24.1192 25.6219 23.9567C25.7844 23.7942 26.0485 23.7942 26.211 23.9567L27.8777 25.6233C28.0402 25.7858 28.0402 26.05 27.8777 26.2125L26.211 27.8792C26.1302 27.9592 26.0235 28 25.9169 28Z" fill="white"/>
<path d="M10.0846 28C9.85464 28 9.66797 27.8133 9.66797 27.5833V8.62499C9.66797 8.39499 9.85464 8.20833 10.0846 8.20833C10.3146 8.20833 10.5013 8.39499 10.5013 8.62499V27.5833C10.5013 27.8133 10.3146 28 10.0846 28Z" fill="white"/>
<path d="M27.375 26.3333H8.41667C8.18667 26.3333 8 26.1467 8 25.9167C8 25.6867 8.18667 25.5 8.41667 25.5H27.375C27.605 25.5 27.7917 25.6867 27.7917 25.9167C27.7917 26.1467 27.605 26.3333 27.375 26.3333Z" fill="white"/>
<path d="M18.8333 16.3333C18.7825 16.3333 18.7317 16.3242 18.6833 16.3058L13.2667 14.2225C13.1058 14.1608 13 14.0058 13 13.8333C13 13.6608 13.1058 13.5058 13.2667 13.4442L18.6833 11.3608C18.7792 11.3242 18.8867 11.3242 18.9825 11.3608L24.3992 13.4442C24.5608 13.5058 24.6667 13.6608 24.6667 13.8333C24.6667 14.0058 24.5608 14.1608 24.4 14.2225L18.9833 16.3058C18.935 16.3242 18.8842 16.3333 18.8333 16.3333ZM14.5775 13.8333L18.8333 15.47L23.0892 13.8333L18.8333 12.1967L14.5775 13.8333Z" fill="white"/>
<path d="M18.8333 23C18.7825 23 18.7317 22.9908 18.6833 22.9725L13.2667 20.8892C13.1058 20.8275 13 20.6725 13 20.5V13.8333C13 13.6033 13.1867 13.4167 13.4167 13.4167C13.6467 13.4167 13.8333 13.6033 13.8333 13.8333V20.2142L18.8333 22.1375L23.8333 20.2142V13.8333C23.8333 13.6033 24.02 13.4167 24.25 13.4167C24.48 13.4167 24.6667 13.6033 24.6667 13.8333V20.5C24.6667 20.6725 24.5608 20.8275 24.4 20.8892L18.9833 22.9725C18.935 22.9908 18.8842 23 18.8333 23Z" fill="white"/>
<path d="M18.8346 23C18.6046 23 18.418 22.8133 18.418 22.5833V15.9167C18.418 15.6867 18.6046 15.5 18.8346 15.5C19.0646 15.5 19.2513 15.6867 19.2513 15.9167V22.5833C19.2513 22.8133 19.0646 23 18.8346 23Z" fill="white"/>
</g>
<defs>
<clipPath id="clip0_619_34205">
<rect width="20" height="20" fill="white" transform="translate(8 8)"/>
</clipPath>
</defs>
</svg>
