<svg width="36" height="36" viewBox="0 0 36 36" fill="none" xmlns="http://www.w3.org/2000/svg">
<circle cx="18" cy="18" r="17.5" stroke="white"/>
<path d="M11.7398 21.4646H11.7367C11.5749 21.4646 11.4453 21.5957 11.4453 21.7575C11.4453 21.9193 11.578 22.0505 11.7398 22.0505C11.9016 22.0505 12.0328 21.9193 12.0328 21.7575C12.0328 21.5957 11.9016 21.4646 11.7398 21.4646Z" fill="white"/>
<path d="M14.2438 21.4646H14.2406C14.0788 21.4646 13.9492 21.5957 13.9492 21.7575C13.9492 21.9193 14.082 22.0505 14.2438 22.0505C14.4055 22.0505 14.5367 21.9193 14.5367 21.7575C14.5367 21.5957 14.4055 21.4646 14.2438 21.4646Z" fill="white"/>
<path d="M24.5797 21.4646H24.5766C24.4148 21.4646 24.2852 21.5957 24.2852 21.7575C24.2852 21.9193 24.4179 22.0505 24.5797 22.0505C24.7415 22.0505 24.8727 21.9193 24.8727 21.7575C24.8727 21.5957 24.7415 21.4646 24.5797 21.4646Z" fill="white"/>
<path d="M27.7308 17.9225L27.3369 17.5286L26.5433 15.1479C26.6617 15.1103 26.7475 14.9995 26.7475 14.8687C26.7475 14.7069 26.6164 14.5758 26.4546 14.5758H23.6162V13.3032C23.6162 12.969 23.3444 12.6971 23.0101 12.6971H8.60609C8.27188 12.6971 8 12.969 8 13.3032V20.192C8 20.5262 8.27188 20.7981 8.60609 20.7981H8.93938V21.4444C8.93938 21.7786 9.21125 22.0505 9.54547 22.0505H10.2201C10.3575 22.763 10.9854 23.303 11.7374 23.303C12.2523 23.303 12.7089 23.0496 12.9899 22.6612C13.2709 23.0496 13.7275 23.303 14.2424 23.303C14.9944 23.303 15.6224 22.763 15.7597 22.0505H23.0585C23.1958 22.763 23.8237 23.303 24.5757 23.303C25.4279 23.303 26.1212 22.6096 26.1212 21.7575C26.1212 21.7508 26.1208 21.7442 26.1207 21.7375H27.3939C27.7281 21.7375 28 21.4656 28 21.1314V18.5725C28 18.327 27.9044 18.0962 27.7308 17.9225ZM10.2201 21.4646H9.54547C9.53434 21.4646 9.52532 21.4555 9.52532 21.4444V20.7981H10.5271C10.3755 20.989 10.268 21.2162 10.2201 21.4646ZM11.7374 22.7171C11.2083 22.7171 10.7779 22.2866 10.7779 21.7576C10.7779 21.2305 11.2051 20.8014 11.7314 20.7981H11.7434C12.2698 20.8014 12.697 21.2305 12.697 21.7576C12.697 22.2866 12.2665 22.7171 11.7374 22.7171ZM14.2425 22.7171C13.7134 22.7171 13.2829 22.2866 13.2829 21.7576C13.2829 21.2305 13.7101 20.8014 14.2365 20.7981H14.2485C14.7748 20.8014 15.202 21.2305 15.202 21.7576C15.202 22.2866 14.7716 22.7171 14.2425 22.7171ZM23.0585 21.4646H15.7597C15.7119 21.2162 15.6044 20.989 15.4527 20.7981H21.1313C21.2931 20.7981 21.4243 20.6669 21.4243 20.5051C21.4243 20.3433 21.2931 20.2122 21.1313 20.2122H8.60609C8.59496 20.2122 8.58594 20.2031 8.58594 20.192V13.3032C8.58594 13.292 8.59496 13.283 8.60609 13.283H23.0101C23.0212 13.283 23.0303 13.292 23.0303 13.3032V20.2122H22.384C22.2222 20.2122 22.091 20.3434 22.091 20.5052C22.091 20.667 22.2222 20.7981 22.384 20.7981H23.3655C23.2139 20.989 23.1064 21.2162 23.0585 21.4646ZM26.7787 17.707H24.8889C24.8778 17.707 24.8687 17.698 24.8687 17.6869V16.4142H26.3478L26.7787 17.707ZM24.5758 22.7171C24.0467 22.7171 23.6162 22.2866 23.6162 21.7576C23.6162 21.2305 24.0435 20.8014 24.5698 20.7981H24.5758C24.5765 20.7981 24.5771 20.7981 24.5778 20.798C25.106 20.7991 25.5354 21.2291 25.5354 21.7575C25.5353 22.2866 25.1049 22.7171 24.5758 22.7171ZM27.4141 21.1315C27.4141 21.1426 27.4051 21.1516 27.3939 21.1516H25.9974C25.7612 20.5998 25.213 20.2121 24.5758 20.2121C24.5737 20.2121 24.5718 20.2123 24.5698 20.2123H23.6162V15.182V15.1818C23.6162 15.1707 23.6253 15.1617 23.6364 15.1617H25.9303L26.1525 15.8282H24.5758C24.414 15.8282 24.2828 15.9594 24.2828 16.1212V17.6869C24.2828 18.0211 24.5547 18.2929 24.8889 18.2929H27.2726L27.3165 18.3369C27.3794 18.3998 27.4141 18.4835 27.4141 18.5725V19.2728H27.0808C26.919 19.2728 26.7878 19.404 26.7878 19.5658C26.7878 19.7276 26.919 19.8588 27.0808 19.8588H27.4141V21.1315Z" fill="white"/>
<path d="M22.0721 18.9597H9.54688C9.38508 18.9597 9.25391 19.0908 9.25391 19.2526C9.25391 19.4144 9.38508 19.5456 9.54688 19.5456H22.0721C22.2339 19.5456 22.3651 19.4144 22.3651 19.2526C22.3651 19.0908 22.2339 18.9597 22.0721 18.9597Z" fill="white"/>
</svg>
