<svg width="17" height="17" viewBox="0 0 17 17" fill="none" xmlns="http://www.w3.org/2000/svg">
<g clip-path="url(#clip0_619_33809)">
<path d="M9.37231 10.303C8.97425 10.5684 8.51188 10.7087 8.03516 10.7087C7.55847 10.7087 7.09609 10.5684 6.69803 10.303L0.141687 5.93201C0.105312 5.90776 0.069875 5.88248 0.0351562 5.85648V13.0189C0.0351562 13.8401 0.701562 14.4918 1.50806 14.4918H14.5622C15.3834 14.4918 16.0351 13.8254 16.0351 13.0189V5.85645C16.0003 5.88251 15.9648 5.90785 15.9284 5.93213L9.37231 10.303Z" fill="#FF4D29"/>
<path d="M0.661719 5.1518L7.21806 9.52286C7.46625 9.68833 7.75069 9.77105 8.03512 9.77105C8.31959 9.77105 8.60406 9.6883 8.85225 9.52286L15.4086 5.1518C15.8009 4.89039 16.0352 4.45289 16.0352 3.98071C16.0352 3.1688 15.3746 2.5083 14.5627 2.5083H1.50756C0.695688 2.50833 0.0351562 3.16883 0.0351562 3.98149C0.0351562 4.45289 0.269406 4.89039 0.661719 5.1518Z" fill="#FF4D29"/>
</g>
<defs>
<clipPath id="clip0_619_33809">
<rect width="16" height="16" fill="white" transform="translate(0.0351562 0.5)"/>
</clipPath>
</defs>
</svg>
