<svg width="30" height="30" viewBox="0 0 30 30" fill="none" xmlns="http://www.w3.org/2000/svg">
<g clip-path="url(#clip0_619_34985)">
<path d="M14.998 18.0762C16.697 18.0762 18.0742 16.6989 18.0742 15C18.0742 13.3011 16.697 11.9238 14.998 11.9238C13.2991 11.9238 11.9219 13.3011 11.9219 15C11.9219 16.6989 13.2991 18.0762 14.998 18.0762Z" fill="white"/>
<path d="M15 0.351562C6.9099 0.351562 0.351562 6.9099 0.351562 15C0.351562 23.0901 6.9099 29.6484 15 29.6484C23.0901 29.6484 29.6484 23.0901 29.6484 15C29.6484 6.9099 23.0901 0.351562 15 0.351562ZM24.0503 18.723C23.98 20.1157 23.5886 21.489 22.5737 22.4931C21.549 23.5068 20.1691 23.8845 18.7631 23.9541H11.237C9.83074 23.8845 8.45109 23.5071 7.42635 22.4931C6.41139 21.489 6.0201 20.1157 5.94979 18.723V11.277C6.0201 9.8843 6.41145 8.51098 7.42635 7.5068C8.45109 6.49312 9.83092 6.11543 11.237 6.04588H18.763C20.1693 6.11543 21.5489 6.49295 22.5737 7.5068C23.5886 8.51098 23.9799 9.8843 24.0502 11.277L24.0503 18.723Z" fill="white"/>
<path d="M18.6696 7.74229C16.8365 7.69202 13.1673 7.69202 11.3342 7.74229C10.3802 7.76849 9.29874 8.00597 8.61906 8.73194C7.91277 9.48657 7.64587 10.3983 7.6188 11.4182C7.57122 13.2084 7.6188 18.5814 7.6188 18.5814C7.6498 19.6013 7.91277 20.5131 8.61906 21.2677C9.29874 21.9939 10.3802 22.2312 11.3342 22.2574C13.1673 22.3076 16.8365 22.3076 18.6696 22.2574C19.6236 22.2312 20.7051 21.9937 21.3848 21.2677C22.091 20.5131 22.3579 19.6014 22.385 18.5814V11.4182C22.3579 10.3983 22.091 9.48657 21.3848 8.73194C20.7048 8.00573 19.6234 7.76849 18.6696 7.74229ZM15.0017 19.7679C14.0586 19.7679 13.1368 19.4883 12.3527 18.9643C11.5686 18.4404 10.9574 17.6957 10.5966 16.8245C10.2357 15.9532 10.1412 14.9945 10.3252 14.0696C10.5092 13.1447 10.9633 12.2951 11.6301 11.6283C12.297 10.9615 13.1466 10.5074 14.0715 10.3234C14.9964 10.1394 15.9551 10.2338 16.8263 10.5947C17.6976 10.9556 18.4423 11.5667 18.9662 12.3508C19.4901 13.1349 19.7697 14.0568 19.7697 14.9998C19.7697 16.2644 19.2674 17.4772 18.3732 18.3714C17.479 19.2656 16.2662 19.7679 15.0017 19.7679ZM19.79 11.216C19.6014 11.2159 19.4171 11.16 19.2603 11.0551C19.1035 10.9503 18.9813 10.8014 18.9092 10.6271C18.837 10.4529 18.8182 10.2611 18.855 10.0762C18.8918 9.8912 18.9826 9.72131 19.116 9.58796C19.2494 9.45462 19.4193 9.36382 19.6043 9.32705C19.7893 9.29027 19.981 9.30917 20.1552 9.38135C20.3295 9.45354 20.4784 9.57576 20.5832 9.73258C20.6879 9.88939 20.7439 10.0738 20.7439 10.2624C20.7439 10.3876 20.7192 10.5116 20.6712 10.6273C20.6233 10.7431 20.553 10.8482 20.4645 10.9367C20.3759 11.0253 20.2707 11.0955 20.155 11.1434C20.0393 11.1914 19.9153 11.216 19.79 11.216Z" fill="white"/>
</g>
<defs>
<clipPath id="clip0_619_34985">
<rect width="30" height="30" fill="white"/>
</clipPath>
</defs>
</svg>
