<svg width="17" height="16" viewBox="0 0 17 16" fill="none" xmlns="http://www.w3.org/2000/svg">
<path d="M8.03647 0C5.09572 0 2.70312 2.39259 2.70312 5.33334C2.70312 6.21616 2.92384 7.09147 3.34344 7.86784L7.74481 15.8281C7.80341 15.9342 7.91506 16 8.03647 16C8.15787 16 8.26953 15.9342 8.32812 15.8281L12.7311 7.86522C13.1491 7.09147 13.3698 6.21613 13.3698 5.33331C13.3698 2.39259 10.9772 0 8.03647 0ZM8.03647 8C6.56609 8 5.36981 6.80372 5.36981 5.33334C5.36981 3.86297 6.56609 2.66669 8.03647 2.66669C9.50684 2.66669 10.7031 3.86297 10.7031 5.33334C10.7031 6.80372 9.50684 8 8.03647 8Z" fill="#FF4D29"/>
</svg>
