<svg width="16" height="17" viewBox="0 0 16 17" fill="none" xmlns="http://www.w3.org/2000/svg">
<path d="M15.5829 12.2424L13.35 10.0095C12.5526 9.21209 11.1969 9.5311 10.878 10.5678C10.6387 11.2855 9.84127 11.6842 9.12357 11.5247C7.52868 11.126 5.37558 9.0526 4.97685 7.37797C4.73762 6.66024 5.21609 5.86279 5.93379 5.62359C6.97047 5.30461 7.28945 3.94895 6.492 3.15151L4.25915 0.918659C3.6212 0.360447 2.66426 0.360447 2.10605 0.918659L0.590902 2.43381C-0.924245 4.0287 0.750391 8.25516 4.49839 12.0032C8.24638 15.7511 12.4728 17.5056 14.0677 15.9106L15.5829 14.3955C16.1411 13.7575 16.1411 12.8006 15.5829 12.2424Z" fill="#FF4D29"/>
</svg>
