<svg width="30" height="30" viewBox="0 0 30 30" fill="none" xmlns="http://www.w3.org/2000/svg">
<g clip-path="url(#clip0_619_35000)">
<path fill-rule="evenodd" clip-rule="evenodd" d="M15 1.8796e-06C6.71573 1.8796e-06 0 6.71573 0 15C0 23.2843 6.71573 30 15 30C23.2843 30 30 23.2843 30 15C30.002 11.0211 28.4223 7.20468 25.6088 4.3912C22.7953 1.57772 18.9789 -0.00198904 15 1.8796e-06ZM21.9945 13.1865C16.269 13.1865 15.3105 13.2615 15.3105 15.3885V22.4873H9.741V7.51275H15.285V9.975C16.7075 8.35513 18.7775 7.45291 20.9325 7.5135H21.9945V13.1865Z" fill="white"/>
</g>
<defs>
<clipPath id="clip0_619_35000">
<rect width="30" height="30" fill="white"/>
</clipPath>
</defs>
</svg>
