<svg width="31" height="31" viewBox="0 0 31 31" fill="none" xmlns="http://www.w3.org/2000/svg">
<circle cx="15.668" cy="15.5" r="15" fill="#FF4D29"/>
<g clip-path="url(#clip0_741_6709)">
<path d="M23.2313 19.2424L20.9985 17.0095C20.201 16.2121 18.8454 16.5311 18.5264 17.5678C18.2872 18.2855 17.4897 18.6842 16.772 18.5247C15.1771 18.126 13.024 16.0526 12.6253 14.378C12.3861 13.6602 12.8645 12.8628 13.5822 12.6236C14.6189 12.3046 14.9379 10.949 14.1404 10.1515L11.9076 7.91866C11.2696 7.36045 10.3127 7.36045 9.75449 7.91866L8.23934 9.43381C6.72419 11.0287 8.39883 15.2552 12.1468 19.0032C15.8948 22.7511 20.1213 24.5056 21.7162 22.9106L23.2313 21.3955C23.7896 20.7575 23.7896 19.8006 23.2313 19.2424Z" fill="white"/>
</g>
<defs>
<clipPath id="clip0_741_6709">
<rect width="16" height="16" fill="white" transform="translate(7.66797 7.5)"/>
</clipPath>
</defs>
</svg>
