<svg width="1410" height="185" viewBox="0 0 1410 185" fill="none" xmlns="http://www.w3.org/2000/svg">
<path d="M148.462 5.56787H222.692L155.509 93.1884L222.692 179.4H148.462L111.346 132.183L74.2308 179.4H0L67.4185 93.1884L0 5.56787H74.2308L111.346 53.0192L148.462 5.56787Z" fill="#1F2023"/>
<path d="M207.102 129.129V93.8932H289.085V129.129H207.102Z" fill="#1F2023"/>
<path d="M273.328 59.5966V5.56787H482.631L273.328 59.5966ZM482.631 5.56787V59.5966H411.923V179.4H344.975V59.5966H273.328V5.56787H482.631Z" fill="#1F2023"/>
<path d="M629.839 179.4L581.683 123.257H558.897V179.4H495.472V5.56787H630.778C645.343 5.56787 658.184 7.99525 669.303 12.85C680.579 17.7048 689.27 24.5171 695.378 33.287C701.642 41.9003 704.774 51.923 704.774 63.3552V64.2948C704.774 79.1723 700.389 91.4658 691.619 101.175C683.006 110.885 671.026 117.384 655.679 120.673L706.184 179.4H629.839ZM642.994 64.2948C642.994 59.5966 641.897 56.2296 639.705 54.1937C637.669 52.0013 634.85 50.6701 631.248 50.2003C627.803 49.7305 622.478 49.4956 615.274 49.4956H607.757C602.903 49.6522 586.616 49.7305 558.897 49.7305V78.3892H615.274C622.478 78.3892 627.803 78.1543 631.248 77.6845C634.85 77.2147 637.669 76.0402 639.705 74.1609C641.897 72.125 642.994 68.8363 642.994 64.2948Z" fill="#1F2023"/>
<path d="M949.836 179.4H882.887L868.558 153.09H775.77L761.44 179.4H694.492L788.69 5.56787H855.638L949.836 179.4ZM822.281 67.3486L798.791 110.337H845.537L822.281 67.3486Z" fill="#1F2023"/>
<path d="M1019.16 179.4H952.211V5.56787L1019.16 179.4ZM1115.47 103.524V5.56787H1182.42V179.4H1115.47L1019.16 81.443V179.4H952.211V5.56787H1019.16L1115.47 103.524Z" fill="#1F2023"/>
<path d="M1315.8 75.1005C1323.32 74.7873 1329.19 74.6307 1333.42 74.6307C1356.13 74.6307 1374.53 77.8411 1388.62 84.2619C1402.87 90.6827 1410 103.289 1410 122.082C1410 146.669 1399.12 163.269 1377.35 171.882C1355.58 180.496 1331.07 184.802 1303.82 184.802C1276.42 184.802 1251.28 180.496 1228.42 171.882C1205.55 163.269 1194.12 146.669 1194.12 122.082H1263.18C1263.18 131.165 1267.18 136.96 1275.16 139.465C1283.15 141.971 1292.7 143.224 1303.82 143.224C1314.31 143.224 1323.32 141.579 1330.84 138.291C1338.35 135.002 1342.11 129.912 1342.11 123.022C1342.11 117.227 1338.12 113.469 1330.13 111.746C1322.3 109.867 1313.14 108.927 1302.65 108.927L1279.16 109.162C1263.5 109.162 1249.56 108.066 1237.34 105.873C1225.28 103.524 1215.03 98.7479 1206.57 91.5441C1198.27 84.1836 1194.12 73.4562 1194.12 59.3617C1194.12 42.2918 1200.15 29.4502 1212.21 20.8369C1224.42 12.067 1238.36 6.5075 1254.02 4.15842C1269.68 1.65274 1286.28 0.399902 1303.82 0.399902C1331.07 0.399902 1355.58 4.70654 1377.35 13.3198C1399.12 21.7765 1410 38.3766 1410 63.1202H1342.11C1342.11 56.5428 1338.35 51.6098 1330.84 48.3211C1323.48 45.0323 1314.47 43.2314 1303.82 42.9182C1292.55 42.9182 1282.91 44.171 1274.93 46.6767C1267.1 49.1824 1263.18 53.1758 1263.18 58.657C1263.18 64.9212 1267.18 69.2278 1275.16 71.5769C1283.15 73.926 1292.15 75.1788 1302.18 75.3354L1315.8 75.1005Z" fill="#1F2023"/>
</svg>
