<svg width="24" height="24" viewBox="0 0 24 24" fill="none" xmlns="http://www.w3.org/2000/svg">
<g clip-path="url(#clip0_619_33646)">
<path d="M22.9899 22.5873L20.4419 8.37145C20.3393 7.79915 19.8414 7.38255 19.2599 7.38255H15.0223C15.8168 6.59994 16.3106 5.51273 16.3106 4.31201C16.3106 1.93434 14.3762 0 11.9986 0C9.62088 0 7.68647 1.93434 7.68647 4.31201C7.68647 5.51273 8.18024 6.59994 8.97477 7.38255H4.73713C4.15562 7.38255 3.65777 7.79915 3.55514 8.37145L1.00711 22.5873C0.944431 22.9373 1.03993 23.2971 1.26817 23.5697C1.49632 23.8424 1.83359 23.9999 2.1891 23.9999H21.8079C22.1634 23.9999 22.5007 23.8424 22.7289 23.5697C22.957 23.2971 23.0526 22.9373 22.9899 22.5873ZM11.9986 2.40161C13.052 2.40161 13.909 3.25858 13.909 4.31201C13.909 5.36543 13.052 6.22249 11.9986 6.22249C10.9451 6.22249 10.0881 5.36543 10.0881 4.31201C10.0881 3.25858 10.9451 2.40161 11.9986 2.40161ZM11.6847 18.5825C11.6222 18.6978 11.5015 18.7696 11.3704 18.7696H10.8039C10.677 18.7696 10.5594 18.7023 10.4952 18.5927L9.09333 16.1995L8.19681 17.1147V18.2168C8.19681 18.5221 7.94928 18.7696 7.64396 18.7696C7.33863 18.7696 7.09111 18.5221 7.09111 18.2168V13.8461C7.09111 13.5408 7.33863 13.2932 7.64396 13.2932C7.94928 13.2932 8.19681 13.5408 8.19681 13.8461V15.725L10.3246 13.4089C10.3923 13.3352 10.4879 13.2932 10.5879 13.2932H11.0741C11.2177 13.2932 11.3473 13.379 11.4034 13.5112C11.4595 13.6434 11.4311 13.7963 11.3313 13.8995L9.85544 15.4261L11.6703 18.2168C11.7417 18.3269 11.7473 18.4672 11.6847 18.5825ZM17.1318 17.8532C17.1318 17.962 17.0822 18.0652 16.9973 18.133C16.7766 18.3091 16.486 18.4671 16.1252 18.607C15.6856 18.7776 15.2404 18.8629 14.7897 18.8629C14.2168 18.8629 13.7177 18.7428 13.2917 18.5024C12.8659 18.2622 12.5458 17.9185 12.3317 17.4714C12.1174 17.0244 12.0104 16.5382 12.0104 16.0126C12.0104 15.4424 12.1299 14.9355 12.369 14.4923C12.6081 14.049 12.958 13.7092 13.4188 13.4725C13.7697 13.2907 14.2069 13.1997 14.7299 13.1997C15.4098 13.1997 15.9408 13.3424 16.3231 13.6275C16.4888 13.7511 16.6288 13.8951 16.7432 14.0595C16.8525 14.2166 16.8747 14.4185 16.8022 14.5955C16.7296 14.7727 16.5723 14.9012 16.3841 14.9364L16.3829 14.9366C16.1624 14.9779 15.9389 14.8802 15.8195 14.6903C15.7431 14.5688 15.6457 14.4648 15.5275 14.3783C15.3145 14.2226 15.0486 14.1448 14.7299 14.1448C14.2467 14.1448 13.8625 14.2981 13.5775 14.6043C13.2924 14.9107 13.1498 15.3652 13.1498 15.9678C13.1498 16.6179 13.2941 17.1053 13.5831 17.4303C13.872 17.7553 14.2505 17.9178 14.7188 17.9178C14.9503 17.9178 15.1825 17.8724 15.4154 17.7814C15.6481 17.6905 15.848 17.5803 16.0149 17.4509V16.7559H15.21C14.9552 16.7559 14.7487 16.5494 14.7487 16.2947C14.7487 16.0399 14.9553 15.8334 15.21 15.8334H16.7742C16.9717 15.8334 17.1318 15.9936 17.1318 16.1911V17.8532Z" fill="#FF4D29"/>
</g>
<defs>
<clipPath id="clip0_619_33646">
<rect width="24" height="24" fill="white"/>
</clipPath>
</defs>
</svg>
