<svg width="60" height="60" viewBox="0 0 60 60" fill="none" xmlns="http://www.w3.org/2000/svg">
<path fill-rule="evenodd" clip-rule="evenodd" d="M12.552 50.5858C12.4084 50.4422 12.2255 50.3444 12.0263 50.3048C11.8271 50.2652 11.6207 50.2855 11.4331 50.3633C11.2454 50.441 11.0851 50.5726 10.9723 50.7414C10.8594 50.9103 10.7992 51.1088 10.7992 51.3119C10.7992 51.515 10.8594 51.7135 10.9723 51.8823C11.0851 52.0512 11.2454 52.1828 11.4331 52.2605C11.6207 52.3382 11.8271 52.3586 12.0263 52.319C12.2255 52.2794 12.4084 52.1816 12.552 52.038C12.7443 51.8453 12.8523 51.5841 12.8523 51.3119C12.8523 51.0396 12.7443 50.7785 12.552 50.5858ZM11.8255 48.9968C13.8805 48.9968 14.9175 51.4929 13.4623 52.9488C12.0072 54.4046 9.51043 53.3671 9.51043 51.3119C9.51049 50.6979 9.75442 50.1091 10.1886 49.675C10.6227 49.2408 11.2115 48.9969 11.8255 48.9968ZM14.7393 48.3984C15.3157 48.9747 15.7081 49.709 15.8671 50.5083C16.0261 51.3077 15.9445 52.1363 15.6326 52.8893C15.3207 53.6423 14.7925 54.2859 14.1149 54.7387C13.4372 55.1915 12.6404 55.4332 11.8254 55.4332C11.0104 55.4332 10.2136 55.1915 9.53597 54.7387C8.85829 54.2859 8.3301 53.6423 8.0182 52.8893C7.7063 52.1363 7.62469 51.3077 7.78369 50.5083C7.9427 49.709 8.33517 48.9747 8.91148 48.3984C9.68435 47.6256 10.7325 47.1915 11.8254 47.1915C12.9183 47.1915 13.9665 47.6256 14.7393 48.3984ZM48.0799 50.5863C47.9363 50.4427 47.7533 50.3449 47.5541 50.3053C47.355 50.2657 47.1485 50.286 46.9609 50.3637C46.7733 50.4414 46.6129 50.5731 46.5001 50.7419C46.3873 50.9108 46.3271 51.1093 46.3271 51.3124C46.3271 51.5154 46.3873 51.7139 46.5001 51.8828C46.6129 52.0517 46.7733 52.1833 46.9609 52.261C47.1485 52.3387 47.355 52.359 47.5541 52.3194C47.7533 52.2798 47.9363 52.182 48.0799 52.0384C48.2722 51.8457 48.3802 51.5846 48.3802 51.3124C48.3802 51.0401 48.2722 50.779 48.0799 50.5863ZM47.3533 48.9973C49.4083 48.9973 50.4453 51.4934 48.9902 52.9492C47.5351 54.4051 45.0388 53.3671 45.0388 51.3119C45.0388 50.6979 45.2827 50.1091 45.7169 49.675C46.151 49.2408 46.7394 48.9974 47.3533 48.9973ZM50.2677 48.3984C50.844 48.9747 51.2364 49.709 51.3955 50.5083C51.5545 51.3077 51.4728 52.1363 51.1609 52.8893C50.849 53.6423 50.3209 54.2859 49.6432 54.7387C48.9655 55.1915 48.1688 55.4332 47.3537 55.4332C46.5387 55.4332 45.742 55.1915 45.0643 54.7387C44.3866 54.2859 43.8584 53.6423 43.5465 52.8893C43.2346 52.1363 43.153 51.3077 43.312 50.5083C43.471 49.709 43.8635 48.9747 44.4398 48.3984C44.8224 48.0157 45.2767 47.7121 45.7767 47.505C46.2767 47.2978 46.8126 47.1912 47.3537 47.1912C47.8949 47.1912 48.4308 47.2978 48.9308 47.505C49.4307 47.7121 49.885 48.0157 50.2677 48.3984ZM6.58145 49.9804H3.94555C3.73837 49.9804 3.53967 50.0627 3.39318 50.2092C3.24668 50.3557 3.16438 50.5544 3.16438 50.7616C3.16438 50.9688 3.24668 51.1674 3.39318 51.3139C3.53967 51.4604 3.73837 51.5427 3.94555 51.5427H6.42125C6.39869 51.017 6.45265 50.4907 6.58145 49.9804ZM52.7578 51.5427H56.057C56.2641 51.5427 56.4628 51.4604 56.6093 51.3139C56.7558 51.1674 56.8381 50.9688 56.8381 50.7616C56.8381 50.5544 56.7558 50.3557 56.6093 50.2092C56.4628 50.0627 56.2641 49.9804 56.057 49.9804H52.5977C52.7265 50.4907 52.7804 51.017 52.7578 51.5427ZM42.1099 49.9804H17.0693C17.1981 50.4907 17.252 51.017 17.2295 51.5427H41.9497C41.9271 51.017 41.9811 50.4907 42.1099 49.9804ZM41.0755 37.4882V29.2073C41.0755 29.0363 41.1434 28.8724 41.2642 28.7515C41.3851 28.6306 41.5491 28.5627 41.72 28.5627L47.2044 28.565C47.3197 28.565 47.433 28.5961 47.5322 28.655C47.6313 28.714 47.7128 28.7986 47.7679 28.8999L52.1318 36.8968C52.406 37.3513 52.2116 38.1322 51.5949 38.1322H41.72C41.5491 38.1322 41.3851 38.0643 41.2642 37.9434C41.1434 37.8225 41.0755 37.6592 41.0755 37.4882ZM42.3637 29.8512V36.8442H50.6408L46.8248 29.8512H42.3637ZM37.5083 40.088H4.58973V48.6925H7.0918C9.15043 44.9804 14.5003 44.9804 16.5589 48.6925H37.5084L37.5083 40.088ZM54.518 41.9918L52.274 41.9965V43.5397L54.518 43.5442V41.9918ZM54.518 44.8325H52.2836C51.9384 44.8319 51.6075 44.6945 51.3633 44.4504C51.1192 44.2062 50.9818 43.8753 50.9812 43.53V42.0066C50.9818 41.6614 51.1192 41.3304 51.3633 41.0863C51.6075 40.8422 51.9384 40.7048 52.2836 40.7042H54.518V36.5027L48.9422 26.2839H38.7966V48.6927H42.6202C44.6787 44.9807 50.0288 44.9807 52.0873 48.6927H54.518V44.8325ZM20.4199 25.3843H35.8066C35.9775 25.3843 36.1415 25.4522 36.2624 25.573C36.3832 25.6939 36.4511 25.8579 36.4511 26.0288V38.8H37.5083V25.6406C37.5083 25.4696 37.5762 25.3057 37.6971 25.1848C37.8179 25.0639 37.9819 24.996 38.1528 24.996H49.322C49.4473 24.9961 49.5699 25.0327 49.6747 25.1014C49.7796 25.1701 49.8621 25.2679 49.9122 25.3827L55.726 36.0368C55.7774 36.131 55.8043 36.2365 55.8043 36.3438L55.8065 48.6932H56.0572C57.8816 48.6932 58.8275 50.916 57.5191 52.2244C57.3274 52.4169 57.0996 52.5697 56.8487 52.6739C56.5978 52.7781 56.3289 52.8318 56.0572 52.8318H52.5463C51.4027 56.7459 46.4456 58.0534 43.5291 55.137C42.8868 54.4957 42.4164 53.7029 42.1613 52.8318H17.0178C15.8743 56.7459 10.9171 58.0536 8.0007 55.137C7.35833 54.4955 6.88791 53.7026 6.63289 52.8313H3.94555C2.12117 52.8313 1.17523 50.6084 2.48363 49.3001C2.71309 49.0705 2.99321 48.8979 3.30149 48.7962V39.4447C3.30149 39.2737 3.36939 39.1098 3.49026 38.9889C3.61114 38.868 3.77508 38.8001 3.94602 38.8001H4.38899V26.0283C4.38899 25.8574 4.45689 25.6934 4.57776 25.5726C4.69864 25.4517 4.86258 25.3838 5.03352 25.3838L20.4199 25.3843ZM12.0557 26.6724V29.0187H13.3966V26.6724H12.0557ZM14.6848 26.6724V29.6628C14.6848 29.8337 14.6169 29.9977 14.4961 30.1185C14.3752 30.2394 14.2113 30.3073 14.0403 30.3073H11.4117C11.2407 30.3073 11.0768 30.2394 10.9559 30.1185C10.8351 29.9977 10.7671 29.8337 10.7671 29.6628V26.6724H5.67664V38.8H19.7758V26.6724H14.6848ZM27.443 26.6724V29.0187H28.7839V26.6724H27.443ZM30.0721 26.6724V29.6628C30.0721 29.8337 30.0042 29.9977 29.8834 30.1185C29.7625 30.2394 29.5986 30.3073 29.4276 30.3073H26.799C26.628 30.3073 26.4641 30.2394 26.3432 30.1185C26.2224 29.9977 26.1545 29.8337 26.1545 29.6628V26.6724H21.0639V38.8H35.1631V26.6724H30.0721ZM31.2323 7.76419C31.319 7.76088 31.4054 7.77509 31.4864 7.80597C31.5674 7.83685 31.6414 7.88376 31.7039 7.94389C31.7663 8.00402 31.816 8.07614 31.85 8.15593C31.8839 8.23572 31.9014 8.32154 31.9014 8.40825C31.9014 8.49496 31.8839 8.58078 31.85 8.66057C31.816 8.74036 31.7663 8.81248 31.7039 8.87261C31.6414 8.93274 31.5674 8.97965 31.4864 9.01053C31.4054 9.04141 31.319 9.05562 31.2323 9.05231H15.5989C15.5123 9.05562 15.4258 9.04141 15.3448 9.01053C15.2638 8.97965 15.1898 8.93274 15.1274 8.87261C15.0649 8.81248 15.0152 8.74036 14.9812 8.66057C14.9473 8.58078 14.9298 8.49496 14.9298 8.40825C14.9298 8.32154 14.9473 8.23572 14.9812 8.15593C15.0152 8.07614 15.0649 8.00402 15.1274 7.94389C15.1898 7.88376 15.2638 7.83685 15.3448 7.80597C15.4258 7.77509 15.5123 7.76088 15.5989 7.76419H31.2323ZM27.2362 18.0263H37.7948V21.8691C37.795 21.9978 37.8338 22.1235 37.906 22.23C37.9783 22.3365 38.0808 22.4189 38.2004 22.4667C38.3199 22.5144 38.451 22.5252 38.5768 22.4978C38.7025 22.4703 38.8172 22.4059 38.906 22.3127L49.0108 13.3758C49.1382 13.263 49.2157 13.1043 49.226 12.9344C49.2364 12.7646 49.1789 12.5975 49.0661 12.4701L38.864 3.44079C38.7714 3.35939 38.6572 3.30638 38.5352 3.2881C38.4133 3.26982 38.2886 3.28704 38.1761 3.33771C38.0637 3.38838 37.9682 3.47035 37.9011 3.57382C37.834 3.6773 37.798 3.79792 37.7976 3.92126L37.7942 7.76419H34.1898C34.1031 7.76088 34.0167 7.77509 33.9357 7.80597C33.8546 7.83685 33.7807 7.88376 33.7182 7.94389C33.6557 8.00402 33.606 8.07614 33.5721 8.15593C33.5382 8.23572 33.5207 8.32154 33.5207 8.40825C33.5207 8.49496 33.5382 8.58078 33.5721 8.66057C33.606 8.74036 33.6557 8.81248 33.7182 8.87261C33.7807 8.93274 33.8546 8.97965 33.9357 9.01053C34.0167 9.04141 34.1031 9.05562 34.1898 9.05231H38.4388C38.6097 9.05231 38.7736 8.98441 38.8945 8.86353C39.0154 8.74266 39.0833 8.57872 39.0833 8.40778V5.34755L47.6175 12.8952L39.0833 20.4429V17.3822C39.0833 17.2113 39.0154 17.0474 38.8945 16.9265C38.7736 16.8056 38.6097 16.7377 38.4388 16.7377H27.2356C27.0691 16.7441 26.9114 16.8147 26.7958 16.9348C26.6802 17.0549 26.6157 17.2151 26.6157 17.3818C26.6157 17.5485 26.6802 17.7087 26.7958 17.8287C26.9114 17.9488 27.0696 18.0199 27.2362 18.0263ZM5.35356 18.0263C5.18699 18.0199 5.02937 17.9493 4.91377 17.8292C4.79818 17.7091 4.7336 17.5489 4.7336 17.3822C4.7336 17.2155 4.79818 17.0553 4.91377 16.9353C5.02937 16.8152 5.18699 16.7445 5.35356 16.7382H24.278C24.4446 16.7445 24.6022 16.8152 24.7178 16.9353C24.8334 17.0553 24.898 17.2155 24.898 17.3822C24.898 17.5489 24.8334 17.7091 24.7178 17.8292C24.6022 17.9493 24.4446 18.0199 24.278 18.0263H5.35356ZM15.9871 12.1741C16.0738 12.1708 16.1602 12.185 16.2412 12.2159C16.3223 12.2467 16.3962 12.2936 16.4587 12.3538C16.5212 12.4139 16.5709 12.486 16.6048 12.5658C16.6388 12.6456 16.6563 12.7314 16.6563 12.8181C16.6563 12.9048 16.6388 12.9907 16.6048 13.0705C16.5709 13.1502 16.5212 13.2224 16.4587 13.2825C16.3962 13.3426 16.3223 13.3895 16.2412 13.4204C16.1602 13.4513 16.0738 13.4655 15.9871 13.4622H9.92106C9.75449 13.4558 9.59687 13.3852 9.48127 13.2651C9.36568 13.145 9.3011 12.9848 9.3011 12.8181C9.3011 12.6514 9.36568 12.4912 9.48127 12.3712C9.59687 12.2511 9.75449 12.1804 9.92106 12.1741H15.9871ZM35.8421 12.1741C35.9288 12.1708 36.0152 12.185 36.0962 12.2159C36.1772 12.2467 36.2512 12.2936 36.3137 12.3538C36.3761 12.4139 36.4258 12.486 36.4598 12.5658C36.4937 12.6456 36.5112 12.7314 36.5112 12.8181C36.5112 12.9048 36.4937 12.9907 36.4598 13.0705C36.4258 13.1502 36.3761 13.2224 36.3137 13.2825C36.2512 13.3426 36.1772 13.3895 36.0962 13.4204C36.0152 13.4513 35.9288 13.4655 35.8421 13.4622H18.9443C18.8576 13.4655 18.7712 13.4513 18.6902 13.4204C18.6091 13.3895 18.5352 13.3426 18.4727 13.2825C18.4102 13.2224 18.3605 13.1502 18.3266 13.0705C18.2926 12.9907 18.2751 12.9048 18.2751 12.8181C18.2751 12.7314 18.2926 12.6456 18.3266 12.5658C18.3605 12.486 18.4102 12.4139 18.4727 12.3538C18.5352 12.2936 18.6091 12.2467 18.6902 12.2159C18.7712 12.185 18.8576 12.1708 18.9443 12.1741H35.8421Z" fill="#FF4D29"/>
</svg>
