<svg width="60" height="61" viewBox="0 0 60 61" fill="none" xmlns="http://www.w3.org/2000/svg">
<g clip-path="url(#clip0_889_8017)">
<path d="M20.2384 56.4315C15.4751 54.6548 11.2904 51.6117 8.13808 47.6322C4.98576 43.6528 2.98608 38.8887 2.35586 33.8567C1.72563 28.8246 2.4889 23.7165 4.56292 19.0862C6.63693 14.4559 9.94255 10.4801 14.1214 7.58983C18.3002 4.69956 23.1928 3.00512 28.2686 2.69023C33.3445 2.37534 38.41 3.45201 42.9158 5.8035C47.4217 8.155 51.196 11.6916 53.8296 16.0298C56.4632 20.3681 57.8556 25.3425 57.8557 30.4136C57.859 32.8554 57.5367 35.2867 56.8973 37.6437C56.859 37.7795 56.8481 37.9215 56.8652 38.0615C56.8822 38.2015 56.9269 38.3367 56.9966 38.4594C57.0663 38.5821 57.1597 38.6898 57.2714 38.7763C57.3831 38.8629 57.5108 38.9265 57.6473 38.9635C57.7838 39.0006 57.9262 39.0103 58.0665 38.9922C58.2067 38.9741 58.342 38.9284 58.4645 38.8579C58.587 38.7874 58.6942 38.6934 58.7801 38.5813C58.866 38.4693 58.9287 38.3414 58.9648 38.205C60.0774 34.0918 60.2962 29.789 59.6064 25.5847C58.9166 21.3803 57.3342 17.3714 54.965 13.8262C52.5959 10.2809 49.4946 7.28118 45.8689 5.02767C42.2431 2.77417 38.1764 1.3189 33.941 0.759243C29.7056 0.199591 25.3991 0.548473 21.3099 1.78254C17.2206 3.0166 13.4429 5.10738 10.2295 7.91496C7.01605 10.7225 4.4411 14.1821 2.67694 18.0622C0.912781 21.9423 0.000107114 26.1534 0 30.4136C0.0175184 36.5033 1.89073 42.4438 5.37131 47.4477C8.85189 52.4516 13.7754 56.2825 19.4893 58.4326C19.7554 58.5316 20.0501 58.5212 20.3085 58.4036C20.5669 58.286 20.7679 58.0709 20.8672 57.8055C20.9666 57.5402 20.9561 57.2463 20.8382 56.9887C20.7203 56.731 20.5045 56.5306 20.2384 56.4315Z" fill="#FF4D29"/>
<path d="M29.8 7.5C29.662 7.49992 29.5255 7.5278 29.398 7.58204C29.2706 7.63629 29.1548 7.71584 29.0573 7.81614C28.9598 7.91644 28.8825 8.03554 28.8297 8.1666C28.777 8.29767 28.7499 8.43815 28.75 8.58V26.0133C28.028 26.2067 27.3693 26.5947 26.8418 27.1373C26.3143 27.6799 25.9371 28.3574 25.7491 29.1H14.05C13.7715 29.1 13.5044 29.2137 13.3075 29.4163C13.1106 29.6188 13 29.8935 13 30.18C13 30.4664 13.1106 30.7411 13.3075 30.9436C13.5044 31.1462 13.7715 31.26 14.05 31.26H25.7491C25.9328 31.9968 26.3027 32.6705 26.8214 33.2127C27.3401 33.7548 27.989 34.1462 28.7023 34.347C29.4156 34.5479 30.1679 34.551 30.8827 34.3561C31.5975 34.1612 32.2495 33.7752 32.7724 33.2374C33.2954 32.6995 33.6706 32.0289 33.8601 31.2936C34.0496 30.5584 34.0465 29.7846 33.8513 29.051C33.656 28.3173 33.2755 27.6498 32.7484 27.1163C32.2213 26.5828 31.5663 26.2023 30.85 26.0133V8.58C30.85 8.43815 30.8229 8.29767 30.7702 8.1666C30.7175 8.03554 30.6401 7.91644 30.5426 7.81614C30.4451 7.71584 30.3293 7.63629 30.2019 7.58204C30.0744 7.5278 29.9379 7.49992 29.8 7.5ZM31.9 30.18C31.9 30.6072 31.7768 31.0248 31.546 31.38C31.3153 31.7352 30.9873 32.012 30.6036 32.1755C30.2199 32.339 29.7976 32.3818 29.3903 32.2985C28.9829 32.2151 28.6087 32.0094 28.315 31.7073C28.0213 31.4052 27.8213 31.0203 27.7403 30.6014C27.6593 30.1824 27.7009 29.7481 27.8598 29.3534C28.0188 28.9587 28.2879 28.6213 28.6333 28.384C28.9786 28.1466 29.3846 28.02 29.8 28.02C30.3567 28.0207 30.8904 28.2485 31.2841 28.6534C31.6778 29.0584 31.8992 29.6073 31.9 30.18Z" fill="#FF4D29"/>
<path d="M56.9091 41.5718C56.6617 41.0641 56.2796 40.6371 55.8061 40.3392C55.3326 40.0414 54.7867 39.8845 54.2301 39.8865H48.1531C48.1486 39.2525 47.8983 38.646 47.4568 38.1991C47.0153 37.7521 46.4182 37.5008 45.7957 37.5H25.359C24.7335 37.5007 24.1339 37.754 23.6917 38.2044C23.2495 38.6548 23.0007 39.2654 23 39.9023V55.1151C23.0007 55.752 23.2494 56.3626 23.6917 56.813C24.1339 57.2633 24.7335 57.5167 25.359 57.5174H26.0892C26.3165 58.3735 26.8143 59.1296 27.5058 59.6687C28.1973 60.2079 29.0439 60.5 29.9148 60.5C30.7857 60.5 31.6323 60.2079 32.3238 59.6687C33.0153 59.1296 33.5131 58.3735 33.7403 57.5174H49.6055C49.8327 58.3735 50.3306 59.1296 51.0221 59.6687C51.7136 60.2079 52.5602 60.5 53.4311 60.5C54.3019 60.5 55.1486 60.2079 55.8401 59.6687C56.5315 59.1296 57.0294 58.3735 57.2566 57.5174H57.6503C58.2733 57.5166 58.8705 57.2643 59.311 56.8157C59.7515 56.3671 59.9993 55.7589 60 55.1245V49.2087C59.9991 48.3268 59.7977 47.457 59.4116 46.6676L56.9091 41.5718ZM29.9148 58.3469C29.5446 58.3469 29.1827 58.2351 28.8749 58.0256C28.5671 57.8162 28.3272 57.5185 28.1856 57.1702C28.0439 56.8219 28.0068 56.4387 28.079 56.0689C28.1513 55.6992 28.3295 55.3596 28.5913 55.093C28.853 54.8264 29.1865 54.6449 29.5496 54.5714C29.9127 54.4978 30.289 54.5356 30.631 54.6798C30.973 54.8241 31.2653 55.0684 31.471 55.3818C31.6767 55.6953 31.7864 56.0638 31.7864 56.4408C31.786 56.9462 31.5886 57.4307 31.2377 57.7881C30.8868 58.1454 30.411 58.3464 29.9148 58.3469ZM46.0403 55.3642H33.7403C33.5131 54.5081 33.0153 53.752 32.3238 53.2129C31.6323 52.6737 30.7857 52.3816 29.9148 52.3816C29.0439 52.3816 28.1973 52.6737 27.5058 53.2129C26.8143 53.752 26.3165 54.5081 26.0892 55.3642H25.359C25.2944 55.3632 25.2327 55.3366 25.1871 55.2901C25.1414 55.2436 25.1153 55.1808 25.1143 55.1151V39.9023C25.1153 39.8365 25.1414 39.7737 25.1871 39.7272C25.2327 39.6807 25.2944 39.6542 25.359 39.6531H45.7956C45.8602 39.6542 45.9219 39.6807 45.9675 39.7272C46.0132 39.7738 46.0393 39.8365 46.0403 39.9023L46.0403 55.3642ZM51.802 42.0396H54.2301C54.3938 42.0389 54.5543 42.0849 54.6936 42.1724C54.8328 42.26 54.9451 42.3855 55.0178 42.5348L57.2332 47.0461H51.9145C51.884 47.0448 51.8552 47.0314 51.8342 47.0089C51.8132 46.9863 51.8017 46.9563 51.802 46.9252L51.802 42.0396ZM55.3024 56.4442C55.3015 56.9494 55.1037 57.4336 54.7524 57.7904C54.4011 58.1471 53.9251 58.3473 53.429 58.3468C52.9329 58.3463 52.4573 58.1453 52.1066 57.7879C51.756 57.4305 51.559 56.946 51.559 56.4407C51.559 55.9355 51.756 55.451 52.1066 55.0936C52.4573 54.7361 52.9329 54.5351 53.429 54.5347C53.9251 54.5342 54.4011 54.7343 54.7524 55.0911C55.1037 55.4478 55.3015 55.932 55.3024 56.4373L55.3017 56.4407L55.3024 56.4442ZM57.8857 55.1245C57.8857 55.156 57.8797 55.1872 57.8678 55.2163C57.856 55.2454 57.8387 55.2718 57.8168 55.2941C57.7949 55.3163 57.769 55.334 57.7404 55.346C57.7119 55.3581 57.6812 55.3642 57.6503 55.3642H57.2566C57.0294 54.5081 56.5315 53.752 55.8401 53.2129C55.1486 52.6737 54.3019 52.3816 53.4311 52.3816C52.5602 52.3816 51.7136 52.6737 51.0221 53.2129C50.3306 53.752 49.8327 54.5081 49.6055 55.3642H48.1546V42.0396H49.6877V46.9251C49.6875 47.5272 49.9219 48.1048 50.3394 48.5311C50.7568 48.9574 51.3233 49.1977 51.9145 49.1992H57.8847L57.8857 49.2087V55.1245Z" fill="#FF4D29"/>
</g>
<defs>
<clipPath id="clip0_889_8017">
<rect width="60" height="60" fill="white" transform="translate(0 0.5)"/>
</clipPath>
</defs>
</svg>
