<svg width="60" height="61" viewBox="0 0 60 61" fill="none" xmlns="http://www.w3.org/2000/svg">
<g clip-path="url(#clip0_889_8023)">
<path d="M53.0994 34.7421C52.2377 34.2448 51.2891 33.916 50.3044 33.7736V27.2304C51.5768 27.0448 52.7845 26.5505 53.8218 25.7906C54.8591 25.0308 55.6947 24.0285 56.2554 22.8714C56.8162 21.7142 57.0851 20.4373 57.0387 19.1523C56.9923 17.8673 56.632 16.6131 55.9893 15.4994C55.3465 14.3857 54.4409 13.4463 53.3514 12.7633C52.262 12.0802 51.0219 11.6743 49.7394 11.5809C48.4569 11.4875 47.1711 11.7096 45.9942 12.2276C44.8173 12.7457 43.7851 13.544 42.9878 14.5528L37.3165 11.2779C37.7919 10.0832 37.9675 8.79028 37.828 7.51206C37.6885 6.23384 37.2382 5.00923 36.5163 3.94519C35.7944 2.88115 34.8229 2.01006 33.6868 1.40802C32.5506 0.805975 31.2843 0.49129 29.9985 0.491455C28.7127 0.49162 27.4465 0.806629 26.3105 1.40896C25.1745 2.0113 24.2033 2.88264 23.4816 3.94686C22.76 5.01108 22.31 6.23581 22.1708 7.51407C22.0316 8.79232 22.2075 10.0852 22.6832 11.2798L17.0114 14.5535C16.2145 13.5453 15.183 12.7475 14.0067 12.2297C12.8305 11.712 11.5455 11.4901 10.2637 11.5835C8.98203 11.6769 7.74266 12.0826 6.65388 12.7653C5.56511 13.448 4.66004 14.3869 4.01772 15.5C3.3767 16.6134 3.01753 17.8666 2.9715 19.1505C2.92546 20.4344 3.19395 21.7101 3.75358 22.8666C4.31322 24.023 5.14704 25.0251 6.18246 25.7857C7.21788 26.5463 8.42351 27.0422 9.6944 27.2304V33.7695C8.42323 33.9571 7.21723 34.4528 6.18147 35.2132C5.14571 35.9737 4.31162 36.9759 3.75187 38.1325C3.19211 39.2891 2.92368 40.5651 2.96996 41.8492C3.01623 43.1333 3.37581 44.3866 4.01737 45.5C4.61246 46.5316 5.43394 47.4148 6.41989 48.0829C7.40585 48.7511 8.53058 49.1867 9.70934 49.3571C10.8881 49.5275 12.0902 49.4281 13.225 49.0665C14.3597 48.7049 15.3977 48.0905 16.2605 47.2695C16.2914 47.2445 16.3205 47.2173 16.3475 47.1882C16.5846 46.955 16.8065 46.7069 17.0118 46.4453L22.683 49.7195C22.1114 51.1531 21.9748 52.7232 22.2904 54.2339C22.606 55.7446 23.3597 57.1288 24.4574 58.2136C24.4989 58.2638 24.5461 58.3089 24.5981 58.348C26.0576 59.7304 27.9917 60.5005 30.002 60.4997C32.0123 60.499 33.9458 59.7274 35.4043 58.3439C35.4523 58.3074 35.496 58.2657 35.5348 58.2195C36.6342 57.135 37.3895 55.7505 37.7063 54.2391C38.0232 52.7276 37.8874 51.1563 37.3161 49.7216L42.9869 46.4462C43.7226 47.377 44.6589 48.1298 45.726 48.6483C46.7932 49.1668 47.9636 49.4377 49.15 49.4409C49.8422 49.4403 50.5313 49.3491 51.1998 49.1694C52.704 48.766 54.0549 47.9256 55.0816 46.7545C56.1083 45.5835 56.7648 44.1343 56.9681 42.5902C57.1714 41.0462 56.9124 39.4765 56.2238 38.0795C55.5352 36.6826 54.4479 35.5212 53.0994 34.7421ZM52.279 24.8334C51.1671 25.475 49.8844 25.7583 48.6056 25.6445C47.3268 25.5307 46.1142 25.0254 45.1331 24.1975C45.3255 23.2718 45.8308 22.4406 46.5641 21.8437C47.2974 21.2468 48.2138 20.9206 49.1593 20.92C50.1048 20.9195 51.0217 21.2445 51.7557 21.8406C52.4896 22.4366 52.996 23.2672 53.1895 24.1927C52.9055 24.4327 52.6008 24.647 52.2789 24.8332L52.279 24.8334ZM47.7101 17.8238C47.7108 17.5368 47.7965 17.2564 47.9564 17.0181C48.1163 16.7798 48.3433 16.5943 48.6086 16.4849C48.8739 16.3755 49.1657 16.3473 49.4471 16.4036C49.7285 16.46 49.9869 16.5986 50.1896 16.8017C50.3923 17.0049 50.5302 17.2636 50.5859 17.5451C50.6417 17.8266 50.6127 18.1184 50.5027 18.3834C50.3927 18.6485 50.2066 18.875 49.968 19.0344C49.7293 19.1938 49.4487 19.2788 49.1617 19.2788C48.9709 19.2786 48.7819 19.2408 48.6056 19.1676C48.4294 19.0943 48.2692 18.9871 48.1344 18.852C47.9996 18.7168 47.8928 18.5565 47.8199 18.38C47.7471 18.2036 47.7098 18.0145 47.71 17.8237L47.7101 17.8238ZM46.0444 14.0397C46.9887 13.491 48.0611 13.2015 49.1532 13.2006C49.7011 13.201 50.2466 13.2733 50.7757 13.4155C51.5672 13.6253 52.3093 13.99 52.9589 14.4886C53.6085 14.9872 54.1527 15.6098 54.5599 16.3203C54.971 17.0282 55.2377 17.8106 55.3444 18.6222C55.4512 19.4339 55.3959 20.2586 55.1818 21.0488C55.0218 21.6486 54.7734 22.2213 54.4448 22.748C53.879 21.4372 52.8456 20.384 51.5458 19.7935C51.9195 19.3412 52.1567 18.7919 52.23 18.2098C52.3032 17.6278 52.2093 17.0369 51.9594 16.5061C51.7094 15.9754 51.3136 15.5267 50.8182 15.2124C50.3228 14.8981 49.7482 14.7313 49.1616 14.7313C48.5749 14.7313 48.0003 14.8981 47.5049 15.2124C47.0095 15.5267 46.6138 15.9754 46.3638 16.5061C46.1138 17.0369 46.0199 17.6278 46.0932 18.2098C46.1664 18.7919 46.4037 19.3412 46.7773 19.7935C45.479 20.3836 44.4463 21.4353 43.8801 22.7442C43.8405 22.6809 43.8008 22.6176 43.7629 22.5525C42.9384 21.1207 42.7156 19.4202 43.1433 17.8243C43.571 16.2283 44.6143 14.8672 46.0443 14.0396L46.0444 14.0397ZM30.001 2.14058C31.1139 2.13997 32.2067 2.43758 33.1656 3.00244C34.1246 3.5673 34.9147 4.37879 35.4537 5.35248C35.9927 6.32618 36.261 7.42652 36.2306 8.53904C36.2002 9.65156 35.8723 10.7356 35.281 11.6785C34.7145 10.3705 33.6827 9.31933 32.3855 8.72863C32.7595 8.27605 32.9971 7.72642 33.0704 7.14391C33.1437 6.5614 33.0499 5.97005 32.7997 5.43889C32.5496 4.90773 32.1536 4.45867 31.6578 4.14416C31.162 3.82964 30.5871 3.66263 29.9999 3.66263C29.4128 3.66263 28.8378 3.82964 28.3421 4.14416C27.8463 4.45867 27.4503 4.90773 27.2002 5.43889C26.95 5.97005 26.8562 6.5614 26.9295 7.14391C27.0028 7.72642 27.2404 8.27605 27.6144 8.72863C26.3171 9.31923 25.2851 10.3701 24.7182 11.6779C24.1266 10.7349 23.7987 9.65059 23.7684 8.53782C23.7381 7.42506 24.0066 6.32452 24.546 5.35075C25.0854 4.37698 25.8759 3.56557 26.8353 3.001C27.7947 2.43642 28.8878 2.13931 30.001 2.14058ZM28.5462 6.76175C28.5459 6.47437 28.6309 6.19334 28.7903 5.95422C28.9497 5.71509 29.1764 5.52861 29.4418 5.41833C29.7072 5.30806 29.9993 5.27896 30.2812 5.3347C30.5632 5.39045 30.8222 5.52854 31.0257 5.73151C31.2291 5.93449 31.3678 6.19323 31.4242 6.47503C31.4806 6.75683 31.4522 7.04902 31.3426 7.31466C31.2329 7.58031 31.0469 7.80748 30.8082 7.96744C30.5694 8.1274 30.2886 8.21298 30.0012 8.21335C29.6161 8.21295 29.2467 8.06 28.974 7.78795C28.7014 7.51591 28.5475 7.14693 28.5462 6.76175ZM30.0012 9.85445C30.9462 9.8537 31.8626 10.1786 32.5961 10.7745C33.3295 11.3704 33.8352 12.2008 34.028 13.126C32.9039 14.0828 31.4758 14.6082 29.9996 14.608C28.5234 14.6079 27.0954 14.0823 25.9714 13.1253C26.165 12.2001 26.6713 11.3698 27.4052 10.7741C28.1391 10.1784 29.0558 9.85364 30.001 9.85445H30.0012ZM5.43874 16.3203C5.84793 15.6113 6.39275 14.99 7.04209 14.4916C7.69142 13.9932 8.43257 13.6276 9.22319 13.4157C10.0138 13.2038 10.8385 13.1496 11.65 13.2564C12.4616 13.3631 13.2441 13.6287 13.9531 14.0379C14.662 14.4471 15.2834 14.9919 15.7817 15.6412C16.2801 16.2906 16.6457 17.0317 16.8576 17.8223C17.0696 18.6129 17.1237 19.4376 17.017 20.2491C16.9102 21.0607 16.6446 21.8433 16.2355 22.5522C16.1982 22.6166 16.1588 22.6792 16.1197 22.742C15.5525 21.4346 14.5204 20.3841 13.2231 19.7939C13.5972 19.3416 13.8348 18.7922 13.9082 18.2099C13.9817 17.6275 13.888 17.0363 13.6381 16.5052C13.3882 15.9742 12.9923 15.5251 12.4968 15.2106C12.0012 14.8961 11.4264 14.729 10.8395 14.7288C10.2526 14.7287 9.67769 14.8955 9.18201 15.2099C8.68633 15.5242 8.29029 15.973 8.04013 16.504C7.78997 17.035 7.69602 17.6261 7.76923 18.2085C7.84245 18.7909 8.07981 19.3404 8.45362 19.7929C7.15362 20.3836 6.12001 21.4369 5.55405 22.7479C5.2254 22.2212 4.97702 21.6485 4.81706 21.0487C4.60288 20.2586 4.54755 19.4338 4.65426 18.6222C4.76097 17.8106 5.02761 17.0282 5.43874 16.3203ZM9.38538 17.8234C9.38575 17.536 9.47132 17.2552 9.63128 17.0165C9.79124 16.7777 10.0184 16.5918 10.284 16.4821C10.5497 16.3725 10.8419 16.344 11.1237 16.4004C11.4054 16.4568 11.6642 16.5955 11.8672 16.799C12.0702 17.0024 12.2083 17.2614 12.264 17.5434C12.3198 17.8253 12.2907 18.1174 12.1804 18.3828C12.0702 18.6482 11.8837 18.8749 11.6446 19.0343C11.4055 19.1938 11.1245 19.2787 10.8371 19.2784C10.6462 19.2782 10.4573 19.2405 10.2811 19.1673C10.1048 19.094 9.94472 18.9868 9.80991 18.8517C9.6751 18.7167 9.56822 18.5563 9.49538 18.3799C9.42254 18.2035 9.38516 18.0145 9.38538 17.8237V17.8234ZM6.80948 24.1927C7.00324 23.2672 7.50968 22.4367 8.24368 21.8407C8.97768 21.2447 9.89448 20.9195 10.84 20.9198C11.7855 20.9202 12.7021 21.246 13.4357 21.8425C14.1692 22.439 14.6751 23.2699 14.8682 24.1955C13.887 25.0242 12.674 25.53 11.3948 25.6441C10.1155 25.7582 8.83221 25.475 7.71979 24.8331C7.39805 24.6469 7.09343 24.4326 6.80948 24.1927ZM7.72284 36.1634C8.92757 35.4683 10.3302 35.1962 11.7074 35.3905C13.0847 35.5847 14.3574 36.234 15.3229 37.2351C16.2885 38.2363 16.8914 39.5316 17.0356 40.915C17.1799 42.2983 16.8573 43.6902 16.1191 44.869C15.5518 43.5619 14.5199 42.5117 13.223 41.9215C13.5969 41.4691 13.8344 40.9197 13.9078 40.3375C13.9812 39.7552 13.8874 39.164 13.6375 38.633C13.3876 38.102 12.9917 37.6531 12.4962 37.3386C12.0007 37.0241 11.426 36.857 10.8391 36.8568C10.2522 36.8567 9.67739 37.0235 9.18173 37.3378C8.68607 37.652 8.29003 38.1008 8.03982 38.6317C7.78962 39.1625 7.69558 39.7536 7.76868 40.336C7.84179 40.9183 8.07902 41.4678 8.45268 41.9203C7.15442 42.5102 6.12186 43.5618 5.55569 44.8705C5.5162 44.8075 5.47635 44.7447 5.4385 44.6798C4.61489 43.2469 4.39285 41.5459 4.82103 39.9496C5.24921 38.3533 6.29269 36.9918 7.72284 36.1634ZM9.38538 39.9508C9.38572 39.6634 9.47128 39.3826 9.63122 39.1438C9.79117 38.905 10.0183 38.7191 10.284 38.6094C10.5496 38.4997 10.8418 38.4713 11.1236 38.5276C11.4054 38.584 11.6641 38.7227 11.8671 38.9261C12.0701 39.1296 12.2082 39.3886 12.264 39.6706C12.3198 39.9525 12.2907 40.2446 12.1804 40.51C12.0702 40.7754 11.8837 41.0021 11.6446 41.1616C11.4055 41.321 11.1245 41.4059 10.8371 41.4057C10.6462 41.4055 10.4573 41.3677 10.281 41.2945C10.1048 41.2213 9.94468 41.114 9.80987 40.9789C9.67506 40.8438 9.56818 40.6835 9.49535 40.5071C9.42251 40.3307 9.38515 40.1416 9.38538 39.9508ZM13.9545 46.9603C12.8421 47.601 11.5593 47.8832 10.2807 47.7685C9.00213 47.6537 7.79002 47.1476 6.80948 46.3191C7.00329 45.3943 7.50937 44.5643 8.24277 43.9684C8.97617 43.3726 9.89223 43.0472 10.8372 43.047C11.7821 43.0467 12.6983 43.3715 13.4321 43.9668C14.1659 44.5622 14.6724 45.3919 14.8668 46.3166C14.5825 46.558 14.2772 46.7734 13.9545 46.9603ZM25.9716 57.3774C26.166 56.453 26.6724 55.6236 27.4059 55.0284C28.1393 54.4332 29.0552 54.1084 29.9998 54.1085C30.9443 54.1085 31.8602 54.4335 32.5935 55.0289C33.3269 55.6242 33.8331 56.4537 34.0273 57.3781C32.903 58.3341 31.4752 58.859 29.9993 58.8589C28.5235 58.8587 27.0958 58.3336 25.9716 57.3774ZM28.5462 51.0126C28.5466 50.7253 28.6321 50.4446 28.7919 50.2059C28.9517 49.9672 29.1786 49.7813 29.4441 49.6715C29.7095 49.5617 30.0015 49.5331 30.2832 49.5892C30.565 49.6453 30.8237 49.7837 31.0268 49.9868C31.23 50.1899 31.3683 50.4486 31.4245 50.7303C31.4806 51.012 31.452 51.3041 31.3422 51.5695C31.2325 51.835 31.0465 52.062 30.8079 52.2218C30.5692 52.3816 30.2885 52.4671 30.0012 52.4675C29.6154 52.4675 29.2453 52.3142 28.9724 52.0413C28.6996 51.7685 28.5463 51.3984 28.5462 51.0126ZM35.2809 55.9321C34.7141 54.6244 33.6822 53.5735 32.3849 52.983C32.7592 52.5305 32.997 51.9808 33.0705 51.3982C33.144 50.8156 33.0503 50.2241 32.8002 49.6928C32.5502 49.1615 32.1541 48.7123 31.6583 48.3977C31.1625 48.083 30.5874 47.916 30.0002 47.916C29.413 47.916 28.8379 48.083 28.3421 48.3977C27.8462 48.7123 27.4502 49.1615 27.2001 49.6928C26.9501 50.2241 26.8563 50.8156 26.9299 51.3982C27.0034 51.9808 27.2412 52.5305 27.6154 52.983C26.3181 53.5733 25.286 54.6239 24.7188 55.9315C24.1273 54.9882 23.7993 53.9036 23.7688 52.7906C23.7384 51.6776 24.0067 50.5767 24.5457 49.6024C25.0848 48.6282 25.875 47.8161 26.8341 47.2506C27.7933 46.6851 28.8864 46.3869 29.9998 46.3869C31.1133 46.3869 32.2064 46.6851 33.1655 47.2506C34.1247 47.8161 34.9149 48.6282 35.4539 49.6024C35.993 50.5767 36.2613 51.6776 36.2308 52.7906C36.2004 53.9036 35.8724 54.9882 35.2809 55.9315V55.9321ZM36.554 48.2675C35.8365 47.1863 34.8627 46.2993 33.7193 45.6858C32.576 45.0722 31.2986 44.751 30.001 44.7508C28.7034 44.7506 27.4259 45.0714 26.2823 45.6847C25.1388 46.298 24.1647 47.1846 23.4469 48.2656L17.8901 45.0575C18.4079 44.0135 18.6875 42.8675 18.7085 41.7023C18.7296 40.5372 18.4917 39.3819 18.012 38.3198C17.5323 37.2578 16.8228 36.3155 15.9346 35.561C15.0465 34.8066 14.0019 34.2587 12.8763 33.957C12.3723 33.8216 11.8561 33.7361 11.3354 33.7018V27.2973C11.8559 27.2631 12.3718 27.1778 12.8756 27.0426C14.1763 26.6968 15.3658 26.0214 16.3292 25.0816L16.3361 25.0746C17.5266 23.9116 18.3182 22.4013 18.5973 20.7606C18.8763 19.1198 18.6285 17.4328 17.8894 15.9415L23.4464 12.7343C23.745 13.1816 24.0884 13.5974 24.4712 13.9752C24.5058 14.0153 24.5443 14.052 24.586 14.0847C26.0466 15.4752 27.9862 16.2504 30.0028 16.2497C32.0195 16.2489 33.9585 15.4722 35.418 14.0806C35.4556 14.0506 35.4905 14.0173 35.5223 13.9812C35.9077 13.6014 36.2533 13.1831 36.5535 12.7329L42.1096 15.9412C41.5346 17.1038 41.2554 18.3905 41.2969 19.6869C41.3385 20.9834 41.6994 22.2495 42.3478 23.373C42.9961 24.4965 43.9117 25.4425 45.0134 26.1272C46.1151 26.8119 47.3688 27.214 48.6632 27.2978V33.708C47.3683 33.7893 46.1136 34.1896 45.0108 34.8733C43.908 35.5569 42.9914 36.5026 42.3427 37.6263C41.6939 38.7499 41.3331 40.0166 41.2923 41.3134C41.2516 42.6103 41.5322 43.8971 42.1092 45.0592L36.554 48.2675ZM50.7758 47.5845C49.8032 47.8457 48.7818 47.8671 47.7992 47.6466C46.8166 47.4262 45.9022 46.9705 45.1345 46.3189C45.3282 45.3935 45.8347 44.5631 46.5687 43.9673C47.3027 43.3715 48.2195 43.0466 49.1649 43.0473C50.1103 43.048 51.0267 43.3742 51.7598 43.9711C52.493 44.568 52.9983 45.3991 53.1906 46.3247C52.4888 46.9183 51.6639 47.3486 50.7755 47.5845H50.7758ZM47.7103 39.9508C47.7109 39.6638 47.7966 39.3834 47.9565 39.1451C48.1164 38.9068 48.3433 38.7212 48.6086 38.6118C48.874 38.5024 49.1658 38.4741 49.4472 38.5305C49.7286 38.5869 49.9869 38.7254 50.1897 38.9286C50.3924 39.1317 50.5303 39.3904 50.586 39.672C50.6418 39.9535 50.6128 40.2452 50.5029 40.5103C50.3929 40.7754 50.2068 41.0019 49.9681 41.1613C49.7294 41.3206 49.4489 41.4057 49.1619 41.4057C48.971 41.4055 48.782 41.3677 48.6058 41.2945C48.4295 41.2213 48.2694 41.1141 48.1346 40.979C47.9997 40.8439 47.8928 40.6835 47.82 40.5071C47.7472 40.3307 47.7098 40.1416 47.71 39.9508H47.7103ZM54.5599 44.6796C54.5224 44.7446 54.4828 44.8076 54.4427 44.8709C53.8766 43.5619 52.8439 42.5102 51.5455 41.9202C51.9191 41.4679 52.1563 40.9187 52.2295 40.3366C52.3027 39.7545 52.2088 39.1637 51.9589 38.6329C51.7089 38.1022 51.3131 37.6535 50.8177 37.3393C50.3223 37.025 49.7478 36.8582 49.1611 36.8582C48.5744 36.8582 47.9999 37.025 47.5045 37.3393C47.0091 37.6535 46.6133 38.1022 46.3633 38.6329C46.1134 39.1637 46.0195 39.7545 46.0927 40.3366C46.1659 40.9187 46.4031 41.4679 46.7767 41.9202C45.4787 42.5102 44.4462 43.5616 43.8799 44.8702C43.294 43.9348 42.9671 42.8606 42.9324 41.7574C42.8978 40.6543 43.1566 39.5617 43.6826 38.5913C44.2086 37.621 44.9827 36.8077 45.926 36.2346C46.8693 35.6615 47.9478 35.3492 49.0513 35.3295C50.1549 35.3098 51.2439 35.5835 52.207 36.1226C53.1701 36.6616 53.9728 37.4468 54.533 38.3977C55.0933 39.3487 55.391 40.4314 55.3957 41.5351C55.4004 42.6388 55.112 43.7239 54.5599 44.6796ZM30.001 19.0826C27.7427 19.0819 25.535 19.751 23.6569 21.0051C21.7789 22.2593 20.315 24.0422 19.4503 26.1284C18.5857 28.2146 18.3591 30.5103 18.7992 32.7253C19.2394 34.9403 20.3265 36.975 21.9231 38.572C23.5197 40.1691 25.5541 41.2569 27.7689 41.6977C29.9838 42.1385 32.2796 41.9126 34.366 41.0485C36.4525 40.1845 38.2358 38.7211 39.4905 36.8434C40.7452 34.9658 41.4149 32.7582 41.4149 30.5C41.4116 27.4735 40.2081 24.5719 38.0684 22.4316C35.9287 20.2913 33.0274 19.0869 30.001 19.0826ZM32.6649 39.904C32.0627 40.0749 31.4454 40.1872 30.8215 40.2392V34.3564H35.0872C34.6333 36.3386 33.8128 38.2186 32.668 39.8993C32.6665 39.901 32.6658 39.9026 32.6649 39.904ZM27.2806 39.8882C26.1547 38.2079 25.3527 36.3319 24.9161 34.3569H29.1805V40.2398C28.5371 40.186 27.9006 40.0683 27.2806 39.8882ZM20.2248 30.5C20.2252 29.754 20.3112 29.0106 20.481 28.2843H23.1529C22.9933 29.2915 22.9179 30.3103 22.9274 31.3301C22.9331 31.7951 22.9593 32.2568 23.0022 32.7156H20.481C20.3112 31.9893 20.2252 31.2459 20.2248 30.5ZM24.8165 28.2843H29.1805V32.7156H24.6548C24.5083 31.238 24.5627 29.7473 24.8165 28.2843ZM29.1805 20.7609V26.6437H25.1677C25.689 24.7046 26.4414 22.8353 27.4087 21.0757C27.9883 20.9161 28.5814 20.8107 29.1805 20.7607V20.7609ZM32.6947 21.1043C33.6457 22.8559 34.3825 24.7156 34.8894 26.6432H30.8215V20.7604C31.4557 20.8134 32.0831 20.9286 32.6947 21.1043ZM30.8215 32.7156V28.2843H35.2286C35.4733 29.7486 35.5178 31.2394 35.3607 32.7156H30.8215ZM36.8907 28.2843H39.5178C39.8594 29.7417 39.8594 31.2583 39.5178 32.7156H37.012C37.0618 32.2197 37.0925 31.7203 37.0986 31.2171C37.1079 30.2355 37.0384 29.2548 36.8907 28.2843ZM38.9799 26.6437H36.5764C36.2047 25.0873 35.683 23.5705 35.0186 22.1148C36.7796 23.1735 38.1649 24.7571 38.9799 26.6432V26.6437ZM25.09 22.052C24.4037 23.5262 23.863 25.0639 23.4756 26.6432H21.0192C21.8518 24.7179 23.2782 23.1091 25.09 22.052ZM21.0192 34.3567H23.2376C23.5346 35.8709 24.033 37.3386 24.7196 38.7204C23.0809 37.6647 21.793 36.1459 21.0192 34.3567ZM35.2357 38.7493C35.9413 37.3605 36.4566 35.8831 36.7676 34.3567H38.9799C38.1992 36.1624 36.895 37.6925 35.2357 38.7493Z" fill="#FF4D29"/>
</g>
<defs>
<clipPath id="clip0_889_8023">
<rect width="60" height="60" fill="white" transform="translate(0 0.5)"/>
</clipPath>
</defs>
</svg>
