<svg width="60" height="61" viewBox="0 0 60 61" fill="none" xmlns="http://www.w3.org/2000/svg">
<g clip-path="url(#clip0_889_8025)">
<path d="M57.9141 0.851562H23.9766C22.8867 0.851562 22.0078 1.73047 22.0078 2.82031V28.9062C21.4453 28.625 16.3477 25.6719 15.668 25.2734C15.4688 25.1562 15.2227 25.1562 15.0352 25.2734L0.433594 33.6875C0.234375 33.8047 0.117188 34.0156 0.117188 34.2383V51.0898C0.117188 51.3125 0.234375 51.5234 0.433594 51.6406L15.0234 60.0664C15.2227 60.1836 15.4688 60.1836 15.6563 60.0664L30.2461 51.6406C30.7383 51.3945 30.5156 50.5508 30.5625 50H57.9023C58.9922 50 59.8711 49.1211 59.8711 48.043V2.82031C59.8828 1.73047 59.0039 0.851562 57.9141 0.851562ZM22.9922 30.9688L9.67969 38.6562L7.65234 37.4844L20.8359 29.7266L22.9922 30.9688ZM9.05859 39.7695V45.6406L7.03125 44.4219V38.6094L9.05859 39.7695ZM15.3398 26.5508L19.5586 28.9883L6.375 36.7461L2.02734 34.2383L15.3398 26.5508ZM14.707 58.4141L1.39453 50.7266V35.3516L5.68359 37.8242L5.76562 37.8711V44.7852C5.76562 45.0078 5.88281 45.2188 6.07031 45.3359L9.36328 47.3281C9.5625 47.4453 9.80859 47.4453 10.0078 47.3398C10.207 47.2227 10.3359 47.0117 10.3359 46.7891V40.5195L14.707 43.0391V58.4141ZM15.3398 41.9258L10.9453 39.3828L24.2578 31.6953L28.6523 34.2383L15.3398 41.9258ZM29.2969 50.7266L15.9844 58.4141V43.0391C19.0312 41.2812 26.332 37.0625 29.2969 35.3516V50.7266ZM58.6055 48.043C58.6055 48.418 58.2891 48.7344 57.9141 48.7344H30.5742V41.9609H55.5352C55.8867 41.9609 56.168 41.6797 56.168 41.3281C56.168 40.9766 55.8867 40.6953 55.5352 40.6953H30.5742V36.2422H38.2969C38.6484 36.2422 38.9297 35.9609 38.9297 35.6094C38.9297 35.2578 38.6484 34.9766 38.2969 34.9766H30.5742C30.5508 34.5898 30.7031 33.9102 30.2578 33.6992C29.168 33.0781 24.2578 30.2305 23.2852 29.6445V2.82031C23.2852 2.43359 23.6016 2.12891 23.9766 2.12891H57.9141C58.3008 2.12891 58.6055 2.44531 58.6055 2.82031V48.043ZM31.1484 6.98047C31.1484 6.62891 31.4297 6.34766 31.7813 6.34766H50.0977C50.4492 6.34766 50.7305 6.62891 50.7305 6.98047C50.7305 7.33203 50.4492 7.61328 50.0977 7.61328H31.7813C31.4297 7.61328 31.1484 7.33203 31.1484 6.98047ZM56.168 12.6992C56.168 13.0508 55.8867 13.332 55.5352 13.332H26.3555C25.5234 13.3203 25.5117 12.0664 26.3555 12.0547H55.5352C55.8867 12.0664 56.168 12.3477 56.168 12.6992ZM56.168 18.4297C56.168 18.7812 55.8867 19.0625 55.5352 19.0625H52.2891C51.9375 19.0625 51.6562 18.7812 51.6562 18.4297C51.6562 18.0781 51.9375 17.7969 52.2891 17.7969H55.5352C55.8867 17.7969 56.168 18.0781 56.168 18.4297ZM25.7109 18.4297C25.7109 18.0781 25.9922 17.7969 26.3438 17.7969H29.5898C29.9414 17.7969 30.2227 18.0781 30.2227 18.4297C30.2227 18.7812 29.9414 19.0625 29.5898 19.0625H26.3438C26.0039 19.0625 25.7109 18.7812 25.7109 18.4297ZM56.168 24.1484C56.168 24.5 55.8867 24.7812 55.5352 24.7812H52.0078C51.6562 24.7812 51.375 24.5 51.375 24.1484C51.375 23.7969 51.6562 23.5156 52.0078 23.5156H55.5352C55.8867 23.5156 56.168 23.7969 56.168 24.1484ZM25.7109 24.1484C25.7109 23.7969 25.9922 23.5156 26.3438 23.5156H29.8711C30.2227 23.5156 30.5039 23.7969 30.5039 24.1484C30.5039 24.5 30.2227 24.7812 29.8711 24.7812H26.3438C26.0039 24.793 25.7109 24.5 25.7109 24.1484ZM56.168 29.8789C56.168 30.2305 55.8867 30.5117 55.5352 30.5117H49.8047C49.4531 30.5117 49.1719 30.2305 49.1719 29.8789C49.1719 29.5273 49.4531 29.2461 49.8047 29.2461H55.5234C55.8867 29.2344 56.168 29.5273 56.168 29.8789ZM32.7188 29.8789C32.7188 30.2305 32.4375 30.5117 32.0859 30.5117H26.3555C26.0039 30.5117 25.7227 30.2305 25.7227 29.8789C25.7227 29.5273 26.0039 29.2461 26.3555 29.2461H32.0859C32.4375 29.2344 32.7188 29.5273 32.7188 29.8789ZM56.168 35.5977C56.168 35.9492 55.8867 36.2305 55.5352 36.2305H43.582C43.2305 36.2305 42.9492 35.9492 42.9492 35.5977C42.9492 35.2461 43.2305 34.9648 43.582 34.9648H55.5352C55.8867 34.9648 56.168 35.2461 56.168 35.5977ZM50.1914 21.3242V17.0234C50.1914 16.7188 49.9688 16.4492 49.6641 16.3906L41.0508 14.8203C40.9805 14.8086 40.8984 14.8086 40.8164 14.8203L32.2031 16.3906C31.8984 16.4492 31.6758 16.707 31.6758 17.0234V21.3242C31.6758 25.5898 33.5156 29.5391 36.7266 32.1523C37.9453 33.1484 39.2812 33.8984 40.7227 34.3789C40.8516 34.4258 40.9922 34.4258 41.1328 34.3789C46.6055 32.5391 50.2266 27.1367 50.1914 21.3242ZM40.9453 33.1016C36.1289 31.3789 32.9297 26.5273 32.9648 21.3359V17.5742L40.9453 16.1211L44.625 16.7891L48.9141 17.5625V21.3242C48.9492 26.5273 45.7734 31.3555 40.9453 33.1016ZM36.7031 26.7383C36.9609 27.1484 36.6328 27.7109 36.1523 27.6992C35.9297 27.6992 35.7188 27.582 35.6016 27.3828C34.5352 25.5781 33.9727 23.4922 33.9727 21.3242V18.9336C33.9727 18.6289 34.1953 18.3594 34.5 18.3008L40.8281 17.1523C40.8984 17.1406 40.9805 17.1406 41.0508 17.1523L47.3789 18.3008C47.6836 18.3594 47.9062 18.6172 47.9062 18.9219V21.3125C47.9062 21.6641 47.625 21.9453 47.2734 21.9453C46.9219 21.9453 46.6406 21.6641 46.6406 21.3125V19.4492L40.957 18.418L35.2617 19.4492C35.1445 21.9453 35.3789 24.6406 36.7031 26.7383ZM39 29.3984C39.4688 29.75 39.1758 30.5469 38.6016 30.5352C37.9336 30.418 37.5 29.7031 37.0195 29.2812C36.7852 29.0234 36.7969 28.6133 37.0547 28.3789C37.8516 27.7578 38.3789 29.0586 39 29.3984ZM44.7656 21.7227C45.0117 21.9688 45.0117 22.3789 44.7656 22.625L40.8398 26.5508C40.5938 26.7969 40.1836 26.7969 39.9375 26.5508L38.1445 24.7578C37.5586 24.1719 38.4492 23.2695 39.0469 23.8555L40.3945 25.2031L43.8633 21.7344C44.1094 21.4766 44.5195 21.4766 44.7656 21.7227Z" fill="#FF4D29"/>
</g>
<defs>
<clipPath id="clip0_889_8025">
<rect width="60" height="60" fill="white" transform="translate(0 0.5)"/>
</clipPath>
</defs>
</svg>
