<svg width="60" height="61" viewBox="0 0 60 61" fill="none" xmlns="http://www.w3.org/2000/svg">
<g clip-path="url(#clip0_889_8027)">
<path d="M43.8 60.5C42.1 60.5 40.5 59.6 39.6 58.1L39.5 58H23.4L23.3 58.1C22.4 59.6 20.8 60.5 19.1 60.5C17.4 60.5 15.8 59.6 14.9 58.1L14.8 58H12.4L12.3 58.1C11.6 59.6 10 60.5 8.3 60.5C6.6 60.5 5 59.6 4.1 58.1L4 58H1.6C0.7 58 0 57.3 0 56.4V54.8C0 54.2 0.4 53.6 0.9 53.4L1 53.3V30.4C1 30 1.3 29.7 1.7 29.7H4.4V15.7C4.4 15.3 4.7 15 5.1 15H7.8V1C7.8 0.8 8.1 0.5 8.4 0.5H43.2C43.6 0.5 43.9 0.8 43.9 1.2V7.4H52.3C53.2 7.4 53.9 7.8 54.4 8.6L58.3 14.6C58.6 15 58.7 15.5 58.7 16V24.1H58.8C59.5 24.3 60 24.9 60 25.6V27.2C60 28.1 59.3 28.8 58.4 28.8H54.6L54.9 29.2C55.2 29.6 55.3 30.1 55.3 30.6V38.7H55.4C56.1 38.9 56.6 39.5 56.6 40.2V41.8C56.6 42.7 55.9 43.4 55 43.4H51.2L51.5 43.8C51.8 44.2 51.9 44.7 51.9 45.2V53.3H52C52.7 53.5 53.2 54.1 53.2 54.8V56.4C53.2 57.3 52.5 58 51.6 58H48V58.1C47.1 59.6 45.5 60.5 43.8 60.5ZM43.8 52.1C41.8 52.1 40.2 53.7 40.2 55.7C40.2 57.7 41.8 59.3 43.8 59.3C45.8 59.3 47.4 57.7 47.4 55.7C47.4 53.7 45.7 52.1 43.8 52.1ZM19.2 52.1C17.2 52.1 15.6 53.7 15.6 55.7C15.6 57.7 17.2 59.3 19.2 59.3C21.2 59.3 22.8 57.7 22.8 55.7C22.8 53.7 21.1 52.1 19.2 52.1ZM8.3 52.1C6.3 52.1 4.7 53.7 4.7 55.7C4.7 57.7 6.3 59.3 8.3 59.3C10.3 59.3 11.9 57.7 11.9 55.7C11.9 53.7 10.3 52.1 8.3 52.1ZM48.6 54.8C48.6 55.1 48.7 55.4 48.7 55.6C48.7 55.9 48.7 56.1 48.6 56.4V56.6H51.8C52 56.6 52.1 56.5 52.1 56.3V54.7C52.1 54.5 52 54.4 51.8 54.4H48.6V54.8ZM23.9 54.8C23.9 55.1 24 55.3 24 55.6C24 55.9 24 56.1 23.9 56.4V56.6H39V56.4C39 56.1 38.9 55.9 38.9 55.6C38.9 55.3 38.9 55.1 39 54.8V54.6H23.9V54.8ZM13.1 54.8C13.1 55.1 13.2 55.3 13.2 55.6C13.2 55.9 13.2 56.1 13.1 56.4V56.6H14.5V56.4C14.5 56.1 14.4 55.9 14.4 55.6C14.4 55.3 14.4 55.1 14.5 54.8V54.6H13L13.1 54.8ZM1.6 54.6C1.4 54.6 1.3 54.7 1.3 54.9V56.5C1.3 56.7 1.4 56.8 1.6 56.8H3.5V56.6C3.5 56.3 3.4 56.1 3.4 55.8C3.4 55.5 3.4 55.3 3.5 55V54.8H1.6V54.6ZM43.8 50.8C45.5 50.8 47.1 51.7 48 53.2L48.1 53.3H50.7V48.1H49.8C49.4 48.1 49.1 47.8 49.1 47.4C49.1 47 49.4 46.7 49.8 46.7H50.7V45.1C50.7 44.8 50.6 44.7 50.5 44.4L46.6 38.4C46.4 38 46 37.8 45.6 37.8H37.2V53.1H39.6L39.7 53C40.4 51.7 42 50.8 43.8 50.8ZM19.2 50.8C20.9 50.8 22.5 51.7 23.4 53.2L23.5 53.3H35.9V31.1H2.4V53.3H4L4.1 53.2C5 51.7 6.6 50.8 8.3 50.8C10 50.8 11.6 51.7 12.5 53.2L12.6 53.3H15L15.1 53.2C15.8 51.7 17.4 50.8 19.2 50.8ZM50.5 42.2L50.6 41.7C50.6 41.5 50.7 41.2 50.7 41C50.7 39.3 49.5 37.9 47.9 37.5L47.4 37.4L50.5 42.2ZM51.9 40.2C51.9 40.5 52 40.7 52 41C52 41.3 52 41.5 51.9 41.8V42H55C55.2 42 55.3 41.9 55.3 41.7V40.1C55.3 39.9 55.2 39.8 55 39.8H51.8L51.9 40.2ZM47.1 36.1C48.8 36.1 50.4 37 51.3 38.5L51.4 38.6H54V33.4H53.1C52.7 33.4 52.4 33.1 52.4 32.7C52.4 32.3 52.7 32 53.1 32H54V30.5C54 30.2 53.9 30.1 53.8 29.8L49.9 23.8C49.7 23.4 49.3 23.2 48.9 23.2H40.5V36.5H44.9C45.7 36.3 46.4 36.1 47.1 36.1ZM34.9 18.5C35.3 18.5 35.6 18.8 35.6 19.2V29.9H36.5C36.9 29.9 37.2 30.2 37.2 30.6V36.8H39.3V16.5H5.7V29.8H9.3V19.1C9.3 18.7 9.6 18.4 10 18.4C10.4 18.4 10.7 18.7 10.7 19.1V29.8H13.5V19.1C13.5 18.7 13.8 18.4 14.2 18.4C14.6 18.4 14.9 18.7 14.9 19.1V29.8H17.7V19.1C17.7 18.7 18 18.4 18.4 18.4C18.8 18.4 19.1 18.7 19.1 19.1V29.8H21.9V19.1C21.9 18.7 22.2 18.4 22.6 18.4C23 18.4 23.3 18.7 23.3 19.1V29.8H26V19.1C26 18.7 26.3 18.4 26.7 18.4C27.1 18.4 27.4 18.7 27.4 19.1V29.8H30.2V19.1C30.2 18.7 30.5 18.4 30.9 18.4C31.3 18.4 31.6 18.7 31.6 19.1V29.8H34.4V19.1C34.3 18.8 34.6 18.5 34.9 18.5ZM53.9 27.5L54 27C54 26.8 54.1 26.5 54.1 26.3C54.1 24.6 52.9 23.2 51.3 22.8L50.8 22.7L53.9 27.5ZM55.3 25.5C55.3 25.8 55.4 26.1 55.4 26.3C55.4 26.6 55.4 26.8 55.3 27.1V27.3H58.5C58.7 27.3 58.8 27.2 58.8 27V25.4C58.8 25.2 58.7 25.1 58.5 25.1H55.3V25.5ZM50.5 21.5C52.2 21.5 53.8 22.4 54.7 23.9L54.8 24H57.4V18.8H56.5C56.1 18.8 55.8 18.5 55.8 18.1C55.8 17.7 56.1 17.4 56.5 17.4H57.4V15.8C57.4 15.5 57.3 15.4 57.2 15.1L53.3 9.1C53.1 8.7 52.7 8.5 52.3 8.5H43.9V21.8H48.3C49 21.6 49.8 21.5 50.5 21.5ZM38.3 3.8C38.7 3.8 39 4.1 39 4.5V15.2H39.9C40.3 15.2 40.6 15.5 40.6 15.9V22.1H42.7V1.8H9.1V15.1H12.7V4.5C12.7 4.1 13 3.8 13.4 3.8C13.7 3.8 14 4.1 14 4.5V15.2H16.8V4.5C16.8 4.1 17.1 3.8 17.5 3.8C17.9 3.8 18.2 4.1 18.2 4.5V15.2H21V4.5C21 4.1 21.3 3.8 21.7 3.8C22.1 3.8 22.4 4.1 22.4 4.5V15.2H25.2V4.5C25.2 4.1 25.5 3.8 25.9 3.8C26.3 3.8 26.6 4.1 26.6 4.5V15.2H29.4V4.5C29.4 4.1 29.7 3.8 30.1 3.8C30.5 3.8 30.8 4.1 30.8 4.5V15.2H33.6V4.5C33.6 4.1 33.9 3.8 34.3 3.8C34.7 3.8 35 4.1 35 4.5V15.2H37.8V4.5C37.6 4.1 37.9 3.8 38.3 3.8ZM43.8 56.5C43.3 56.5 42.9 56.1 42.9 55.6C42.9 55.1 43.3 54.7 43.8 54.7C44.3 54.7 44.7 55.1 44.7 55.6C44.7 56.1 44.3 56.5 43.8 56.5ZM19.2 56.5C18.7 56.5 18.3 56.1 18.3 55.6C18.3 55.1 18.7 54.7 19.2 54.7C19.7 54.7 20.1 55.1 20.1 55.6C20.1 56.1 19.6 56.5 19.2 56.5ZM8.3 56.5C7.8 56.5 7.4 56.1 7.4 55.6C7.4 55.1 7.8 54.7 8.3 54.7C8.8 54.7 9.2 55.1 9.2 55.6C9.2 56.1 8.8 56.5 8.3 56.5ZM31.6 49.4C31.2 49.4 30.9 49.1 30.9 48.7V33.8C30.9 33.4 31.2 33.1 31.6 33.1C32 33.1 32.3 33.4 32.3 33.8V48.7C32.2 49.1 31.9 49.4 31.6 49.4ZM27.4 49.4C27 49.4 26.7 49.1 26.7 48.7V33.8C26.7 33.4 27 33.1 27.4 33.1C27.8 33.1 28.1 33.4 28.1 33.8V48.7C28.1 49.1 27.8 49.4 27.4 49.4ZM23.2 49.4C22.8 49.4 22.5 49.1 22.5 48.7V33.8C22.5 33.4 22.8 33.1 23.2 33.1C23.6 33.1 23.9 33.4 23.9 33.8V48.7C23.9 49.1 23.6 49.4 23.2 49.4ZM19.1 49.4C18.7 49.4 18.4 49.1 18.4 48.7V33.8C18.4 33.4 18.7 33.1 19.1 33.1C19.5 33.1 19.8 33.4 19.8 33.8V48.7C19.7 49.1 19.4 49.4 19.1 49.4ZM14.9 49.4C14.5 49.4 14.2 49.1 14.2 48.7V33.8C14.2 33.4 14.5 33.1 14.9 33.1C15.3 33.1 15.6 33.4 15.6 33.8V48.7C15.6 49.1 15.3 49.4 14.9 49.4ZM10.8 49.4C10.4 49.4 10.1 49.1 10.1 48.7V33.8C10.1 33.4 10.4 33.1 10.8 33.1C11.2 33.1 11.5 33.4 11.5 33.8V48.7C11.4 49.1 11.1 49.4 10.8 49.4ZM6.6 49.4C6.2 49.4 5.9 49.1 5.9 48.7V33.8C5.9 33.4 6.2 33.1 6.6 33.1C7 33.1 7.3 33.4 7.3 33.8V48.7C7.3 49.1 7 49.4 6.6 49.4ZM39 48C38.6 48 38.3 47.7 38.3 47.3C38.3 46.9 38.6 46.6 39 46.6H40.6C41 46.6 41.3 46.9 41.3 47.3C41.3 47.7 41 48 40.6 48H39ZM39 45.3C38.6 45.3 38.3 45 38.3 44.6V39.8C38.3 39.4 38.6 39.1 39 39.1H45.1C45.3 39.1 45.5 39.2 45.6 39.4L48.7 44.2C48.8 44.4 48.8 44.7 48.7 44.9C48.6 45.1 48.4 45.2 48.1 45.2H39V45.3ZM39.6 44H47L44.7 40.5H39.6V44ZM42.3 33.4C41.9 33.4 41.6 33.1 41.6 32.7C41.6 32.3 41.9 32 42.3 32H43.9C44.3 32 44.6 32.3 44.6 32.7C44.6 33.1 44.3 33.4 43.9 33.4H42.3ZM42.3 30.6C41.9 30.6 41.6 30.3 41.6 29.9V25.1C41.6 24.7 41.9 24.4 42.3 24.4H48.4C48.6 24.4 48.8 24.5 48.9 24.7L52 29.5C52.1 29.7 52.1 30 52 30.2C51.9 30.4 51.7 30.5 51.4 30.5H42.3V30.6ZM43 29.3H50.4L48.1 25.8H43V29.3ZM45.7 18.8C45.3 18.8 45 18.5 45 18.1C45 17.7 45.3 17.4 45.7 17.4H47.3C47.7 17.4 48 17.7 48 18.1C48 18.5 47.7 18.8 47.3 18.8H45.7ZM45.7 16C45.3 16 45 15.7 45 15.3V10.5C45 10.1 45.3 9.8 45.7 9.8H51.8C52 9.8 52.2 9.9 52.3 10.1L55.4 14.9C55.5 15.1 55.5 15.4 55.4 15.6C55.3 15.8 55.1 15.9 54.8 15.9H45.7V16ZM46.3 14.7H53.7L51.4 11.2H46.3V14.7Z" fill="#FF4D29"/>
</g>
<defs>
<clipPath id="clip0_889_8027">
<rect width="60" height="60" fill="white" transform="translate(0 0.5)"/>
</clipPath>
</defs>
</svg>
